<svg xmlns="http://www.w3.org/2000/svg" xmlns:xlink="http://www.w3.org/1999/xlink" width="295" height="261" viewBox="0 0 295 261"><defs><path id="niiba" d="M152.74 1625.63v-144.96h140.92v144.96z"/><path id="niibc" d="M156.99 1618.14c0 1.01.8 2.03 2.02 2.03H288.4c1.01 0 2.03-.81 2.03-2.03v-129.38c0-1-.81-2.02-2.03-2.02H158.81c-1.01 0-2.02.8-2.02 2.02v129.38zm1.82 9.92a10.15 10.15 0 0 1-10.12-10.12v-129.18c0-5.46 4.45-10.12 10.12-10.12H288.2c5.47 0 10.12 4.46 10.12 10.12v129.38c0 5.47-4.45 10.12-10.12 10.12H158.8z"/><path id="niibd" d="M256.2 1543.23c-2.03-8.3-3.85-21.26-.81-25.72 3.04-4.45 9.51-5.66 14.98.61 3.04 3.24 14.58 5.47 12.76-.2-5.27-16.6 1.62-7.5-2.43-21.26-2.63-8.7-36.65-27.74-54.47-3.64-4.05 5.46-15.79 39.68-25.71 31.78-9.52-7.49-26.12-6.27-32.6 5.87-2.43 4.66-5.26 14.99.2 31.59 5.88 18.22 23.29 31.99 26.93 28.75 5.67-5.06-.8-13.56-1.82-21.46 2.43 2.02 11.14 7.9 14.58 8.7 7.7 1.83 23.49 2.43 28.55 4.66 3.64 1.62 28.34 13.57 29.76 9.32 4.25-12.96-18.02-13.17-16-23.7 1.62-10.93 8.71-14.77 6.08-25.3z"/><path id="niibe" d="M256 1555.38s1-3.85 8.7-1.22c7.7 2.63 16 5.67 20.05 6.68 4.65 1.22 11.54 1.62 13.56-.4v11.94c-6.27 1.02-23.89-9.31-26.32-10.12-2.63-1.01-16-6.88-16-6.88z"/><path id="niibf" d="M252.96 1609.43c-5.67-.8-1.62-12.14-3.44-17.2 8.7 3.23 8.1 10.73 3.44 17.2zm5.47-21.05c-13.77-2.23-28.15-7.9-37.26-25.1-1.01 7.89 1.42 11.13-.4 11.74-21.67 2.43-33.82-11.55-36.04-15.6 1.41 9.52 16.2 27.34 8.7 30.78-10.73-4.05-25.91-25.51-28.54-47.38-3.45 19.04 12.14 46.37 28.14 53.45 3.64 3.45-2.84 3.04-1.01 5.27 3.44 4.25 13.56 7.49 21.86 22.27 2.23 1.62 6.68 4.45 10.73 2.83-.2-6.88-8.5-14.98-19.64-25.3-6.47-5.67-3.44-14.58-6.88-22.88 4.45 2.63 13.77 5.87 28.14 4.65 10.94 5.67 13.37 17.42 9.32 21.47 6.88 7.49 10.73 16.6 20.65 20.44 12.35-6.47 6.88-21.46 9.92-31.98-2.03-3.85-4.05-4.86-7.7-4.66z"/><path id="niibg" d="M254.17 1539.99c-5.26-12.76-22.47-38.07-.2-51.23-10.12-3.84-17.61 15.19-21.46 1.62-5.87 1.02.6 9.52-7.5 8.71 1.22 5.67 3.25 13.36 8.51 14.78-2.63 3.64-14.58-7.29-10.12 5.06-4.25.2-7.09-1.42-8.91-2.23-2.02 7.9-5.26 14.58-9.52 17.82-10.73.2-5.26-8.1-18.22-12.96 8.3-4.86 20.86 11.34 21.87-3.24-2.63-7.69-12.55-10.32-20.65-11.94.6-3.65 5.46-5.67-2.03-6.08-1.41-4.04 6.08-5.26 12.76-12.35-.4-1.41 1.21-3.44.4-4.25-1.01-1.01-4.45-.4-6.68-.6.2-3.04 20.65-6.08-8.9-3.85-1.02-.6 1.41-2.03 6.07-3.85 4.25-1.62 14.78-2.63 20.85-2.63.4-2.43-5.87-4.05-5.87-4.05s9.31-2.43 15.39-3.64c15.79-3.04 21.86-2.84 26.72-1.02 2.23.81-1.41-2.83.81-2.43 2.23.4 3.85 1.02 6.89 2.23 3.44 1.42 6.07 3.85 9.1 5.87 5.68 3.44 5.47 5.06 6.9 9.92 5.66 1.02 9.3 2.03 10.72 2.43 1.82 2.43-.6 8.1-.2 14.18 0 .8 1.82 4.25-.6 7.9-3.04 0-2.64-4.87-4.26-8.3-5.67-7.5-6.68-2.03-9.92-2.64-2.03.6-2.23-1.42-4.66-1.22-.2 9.72 8.91 8.1 8.3 16.2-3.64.6-2.02 6.48 5.27 6.28 2.02 0 2.23.6 3.24.4 2.83-1.01-.4-5.46 2.83-6.48.4 8.71 6.68 18.02 7.7 24.1 0 1.82-1.42 4.05-3.04 5.67-1.62 2.02-5.67 1.62-8.91 1.82-9.11-3.24-7.09-17.21-17.41-18.22-1.62 0-2.43.4-2.63 1.62-4.05 11.74 4.65 21.26 5.06 34.62 8.9-1.22 27.94 11.34 37.05 6.88 7.7 14.78 22.47 34.62 20.65 50.82-7.9 2.63-8.1-3.44-12.96-4.25 6.89-25.71-23.08-53.65-50.41-34.42-5.27-.4-5.27-6.48-10.53-6.88 7.09-17.82 2.43-24.3.4-37.06 2.64 2.43 6.48 5.88 8.1 6.89z"/><path id="niibh" d="M114.67 1544.44c-1-.4-2.22-2.22-5.67-1.82 3.65-7.5 15.19-5.06 20.66-9.31-2.84-.81-3.04-3.04-3.24-4.66 17.4-1.42 39.68-17.41 56.69-8.7-40.5 7.28-21.06 46.97-66.41 38.87-.6-6.68 4.25-9.72 6.07-9.92-3.64-3.44-9.51 2.02-12.15 3.44-2.63-3.65 3.04-6.68 4.05-7.9z"/><path id="niibi" d="M218.34 1534.52c13.16-4.05 13.16 8.5 17.4 11.95.82.4-16.4-6.68-17.4-11.95z"/><path id="niibj" d="M238.79 1710.67h3.84c3.04 0 3.85-2.43 3.85-3.85s-1.01-1.82-3.04-1.82h-3.24zm-2.23 10.32h-4.05l4.05-19.63h8.9c3.25 0 4.87 1.62 4.87 4.45 0 1.82-1.42 8.1-7.7 8.1h-4.65z"/><path id="niibk" d="M261.06 1712.29v-.6c0-1.83-1.22-2.44-2.23-2.44-1.82 0-3.04 1.22-3.64 3.04zm2.63 4.45a8.03 8.03 0 0 1-7.29 4.66c-3.44 0-5.87-1.42-5.87-5.26 0-2.43 1.21-10.13 8.7-10.13 3.45 0 5.47 1.62 5.47 4.86 0 .6-.2 1.82-.6 3.65h-9.72c0 .2-.2.8-.2 1.21 0 1.22.4 2.43 2.63 2.43 1 0 2.22-.6 2.83-1.62h4.05z"/><path id="niibl" d="M281.5 1700.55a5.55 5.55 0 0 1-5.66 4.04c-3.04 0-3.44-2.02-3.44-3.23v-.81h1.82c0 .8 0 1.82 2.23 1.82 1.21 0 2.63-.2 3.23-1.82zm-11.13 15.18l7.29-9.31h4.05l-3.04 14.57h-3.64l2.02-9.3-7.29 9.3h-4.05l3.04-14.57h3.85z"/><path id="niibm" d="M298.31 1706.42l-3.04 14.57h-3.84l2.43-11.54h-4.05l-1.01 4.46c-1.22 5.67-3.24 7.29-5.88 7.29-.6 0-1.82-.2-2.22-.4l.6-2.84s.61.2 1.22.2c1.21 0 1.82-.6 2.83-5.06l1.42-6.89h11.54z"/><path id="niibn" d="M146.46 1706.62a10.74 10.74 0 0 1 2.63-4.25c1.22-1.01 3.04-2.03 6.28-2.03 1.42 0 4.25.2 5.87 2.63a10.5 10.5 0 0 1 1.42 5.47c0 2.63-.81 6.08-2.23 8.7-2.23 4.06-5.67 4.46-8.1 4.46-1.62 0-3.64-.2-5.06-1.82a6.6 6.6 0 0 1-2.02-4.45l3.44-.61c0 .6.2 1.42.8 2.23.62.8 1.43 1.41 3.25 1.41s3.03-.8 4.05-2.22a10.14 10.14 0 0 0 1.62-4.26h-6.89l.4-2.83h6.69v-1.22c0-1.21-.2-2.43-.81-3.24-.81-1.41-2.43-1.41-3.04-1.41-1.21 0-2.22.4-3.24 1.21a5.22 5.22 0 0 0-1.62 2.63z"/><path id="niibo" d="M171.57 1700.55c0 .4.2.8.4 1.21.2.2.6.6 1.42.6.6 0 1.01-.2 1.42-.6.4-.4.6-.81.6-1.21h2.84a3.72 3.72 0 0 1-1.82 2.63 6.72 6.72 0 0 1-3.24 1.01c-1.02 0-2.23-.2-3.04-1.01a3.85 3.85 0 0 1-1.01-2.63zm-1.42 5.46l-1.42 8.1c0 .6-.2 1.22-.4 1.82.2-.4.6-.8 1.01-1.21l6.48-7.5.2-1.2h3.44l-2.63 15.38h-3.44l1.42-8.3c0-.4.2-1.22.4-1.62-.2.4-.6 1.01-1.01 1.21l-6.28 7.3-.2 1.41h-3.44l2.63-15.39h3.24z"/><path id="niibp" d="M187.56 1714.92h-6.88l.4-2.83h6.89z"/><path id="niibq" d="M193.64 1718.36h4.45c1.01 0 2.23 0 3.04-.8.8-.61 1.21-1.83 1.21-2.84 0-1.22-.6-1.82-.8-2.03-.82-.6-1.63-.6-2.44-.6h-4.25zm12.95-17.81l-.6 3.03h-10.13l-.8 5.47h5.06c1.21 0 3.23 0 4.65 1.21a5.25 5.25 0 0 1 1.62 3.85 8.2 8.2 0 0 1-2.23 5.47c-1.82 1.62-3.84 1.62-5.66 1.62h-9.12l3.45-20.86h13.76z"/><path id="niibr" d="M213.88 1706.01l-1.41 8.1c0 .6-.2 1.22-.4 1.82.2-.4.6-.8 1-1.21l6.48-7.5.2-1.2h3.45l-2.64 15.38h-3.44l1.42-8.3c0-.4.2-1.22.4-1.62-.2.4-.6 1.01-1 1.21l-6.28 7.3-.2 1.41H208l2.63-15.39h3.24z"/><path id="niibs" d="M231.3 1714.92h-6.89l.4-2.83h6.89z"/><path id="niibt" d="M161.65 1665.72h7.49l-3.24-9.11c-.2-.2-.4-.81-.4-.81-.2 0-.41.6-.41.81zm-4.66-16.6c1.21-2.63 2.63-4.46 8.3-4.46 3.44 0 6.68.4 8.3 4.46l13.36 32.2H174.6l-2.83-7.5h-13.16l-2.84 7.5h-12.35z"/><path id="niibu" d="M223 1667.14h9.1c1.02 0 2.23 0 3.04 1.01.2.4.4 1.01.4 1.62 0 .6-.2 1.62-.6 2.02-.2.41-.81.81-3.04.81h-6.27c-.61 0-1.83 0-2.23-.6-.2-.4-.4-1.01-.4-2.23zm8.7-8.1h-8.5V1656c0-.6-.2-1.21.4-1.62.4-.4.81-.4 1.42-.4h6.68c.81 0 1.82 0 2.63.8.4.41.6 1.02.6 1.63 0 .4-.2 1.21-.4 1.62-.6 1.01-1.82 1.01-2.83 1.01zm-20.85-8.1v24.9a7 7 0 0 0 1.41 4.05c1.62 1.83 3.85 1.62 5.47 1.62h19.03c3.04 0 5.67 0 8.1-2.63 2.23-2.43 2.23-5.26 2.23-7.7 0-2.22-.2-4.65-2.03-6.47a7.54 7.54 0 0 0-4.25-1.82v-.2c1.42-.2 2.63-.61 3.65-1.83 1.62-1.82 1.82-3.64 1.82-5.67 0-2.22-.2-5.67-2.23-7.7-2.02-2.22-5.26-2.42-7.9-2.42h-19.64c-1.41 0-3.23.8-4.04 1.82-.81.81-1.22 2.43-1.22 4.05z"/><path id="niibv" d="M268.35 1652.16c0-1.62.2-3.65 1.41-5.27a6.98 6.98 0 0 1 4.86-1.82h19.84c2.23 0 6.28 0 8.71 3.44 1.62 2.43 1.82 5.47 1.82 8.3 0 1.62-.2 5.87-1.41 8.91-1.42 3.24-3.85 4.46-6.69 4.46h-1.62v.2l10.33 10.93h-14.17l-7.09-9.52c-1.21-1.61-2.43-3.23-2.43-4.85v-.81c0-2.43 2.23-4.05 5.27-4.05h2.02c1.01 0 2.43-.2 3.24-1.02.6-.8.81-2.02.81-3.03 0-2.03-.6-2.84-.81-3.04-.81-1.01-2.23-.81-3.24-.81h-6.48c-.6 0-1.21 0-1.82.6-.81.62-.6 1.42-.6 2.23v24.5h-11.75v-29.35z"/><path id="niibw" d="M323.62 1665.72h7.5l-3.25-9.11c-.2-.2-.4-.81-.4-.81-.2 0-.4.6-.4.81zm-4.66-16.6c1.22-2.63 2.64-4.46 8.3-4.46 3.45 0 6.48.4 8.3 4.46l13.37 32.2h-12.35l-2.84-7.5h-13.16l-2.83 7.5H305.4z"/><path id="niibx" d="M351.97 1681.51v-36.24h11.74v36.24z"/><path id="niiby" d="M376.46 1681.51c-1.41 0-3.03-.4-3.84-1.21a4.65 4.65 0 0 1-1.62-3.44v-31.59h11.74v24.9c0 .41 0 1.22.6 1.83.41.4 1.22.4 1.83.4H404v9.11z"/><path id="niibz" d="M193.84 1657.82v14.38l9.11-7.29z"/><linearGradient id="niibb" x1="223.26" x2="223.26" y1="1511.84" y2="1635.28" gradientUnits="userSpaceOnUse"><stop offset="0" stop-color="#e6332a"/><stop offset=".23" stop-color="#e63229"/><stop offset=".31" stop-color="#e62c25"/><stop offset=".37" stop-color="#e5221e"/><stop offset=".42" stop-color="#e30814"/><stop offset=".42" stop-color="#e30613"/><stop offset=".93" stop-color="#be1622"/><stop offset="1" stop-color="#942320"/></linearGradient></defs><g><g transform="translate(-109 -1461)"><use fill="url(#niibb)" xlink:href="#niiba"/></g><g transform="translate(-109 -1461)"><use xlink:href="#niibc"/></g><g transform="translate(-109 -1461)"><use fill="#fff" xlink:href="#niibd"/></g><g transform="translate(-109 -1461)"><use fill="#e30613" xlink:href="#niibe"/></g><g transform="translate(-109 -1461)"><use xlink:href="#niibf"/></g><g transform="translate(-109 -1461)"><use xlink:href="#niibg"/></g><g transform="translate(-109 -1461)"><use xlink:href="#niibh"/></g><g transform="translate(-109 -1461)"><use xlink:href="#niibi"/></g><g transform="translate(-109 -1461)"><use fill="#fff" xlink:href="#niibj"/></g><g transform="translate(-109 -1461)"><use fill="#fff" xlink:href="#niibk"/></g><g transform="translate(-109 -1461)"><use fill="#fff" xlink:href="#niibl"/></g><g transform="translate(-109 -1461)"><use fill="#fff" xlink:href="#niibm"/></g><g transform="translate(-109 -1461)"><use fill="#fff" xlink:href="#niibn"/></g><g transform="translate(-109 -1461)"><use fill="#fff" xlink:href="#niibo"/></g><g transform="translate(-109 -1461)"><use fill="#fff" xlink:href="#niibp"/></g><g transform="translate(-109 -1461)"><use fill="#fff" xlink:href="#niibq"/></g><g transform="translate(-109 -1461)"><use fill="#fff" xlink:href="#niibr"/></g><g transform="translate(-109 -1461)"><use fill="#fff" xlink:href="#niibs"/></g><g transform="translate(-109 -1461)"><use fill="#fff" xlink:href="#niibt"/></g><g transform="translate(-109 -1461)"><use fill="#fff" xlink:href="#niibu"/></g><g transform="translate(-109 -1461)"><use fill="#fff" xlink:href="#niibv"/></g><g transform="translate(-109 -1461)"><use fill="#fff" xlink:href="#niibw"/></g><g transform="translate(-109 -1461)"><use fill="#fff" xlink:href="#niibx"/></g><g transform="translate(-109 -1461)"><use fill="#fff" xlink:href="#niiby"/></g><g transform="translate(-109 -1461)"><use fill="#fff" xlink:href="#niibz"/></g></g></svg>