<svg xmlns="http://www.w3.org/2000/svg" xmlns:xlink="http://www.w3.org/1999/xlink" width="14" height="20" viewBox="0 0 14 20"><defs><path id="y65ca" d="M1805.01 100.99l-4.92 8.22-5.05-8.15a5.83 5.83 0 1 1 9.97-.07zM1800 91a7 7 0 0 0-5.95 10.68l5.55 8.96c.1.17.3.27.5.27s.4-.1.5-.28l5.41-9.04A7 7 0 0 0 1800 91z"/><path id="y65cb" d="M1800 100.34a2.34 2.34 0 1 1 0-4.68 2.34 2.34 0 0 1 0 4.68zm0-5.84a3.5 3.5 0 1 0 .01 7.01 3.5 3.5 0 0 0-.01-7.01z"/></defs><g><g opacity=".6" transform="translate(-1793 -91)"><use xlink:href="#y65ca"/></g><g opacity=".6" transform="translate(-1793 -91)"><use xlink:href="#y65cb"/></g></g></svg>