<svg xmlns="http://www.w3.org/2000/svg" xmlns:xlink="http://www.w3.org/1999/xlink" width="50" height="50" viewBox="0 0 50 50"><defs><path id="pv5pa" d="M702.92 1469.72v6.25c0 1.55-.5 2.98-1.32 4.16h3.96a36.4 36.4 0 0 1-1.6-11.45c0-1.6-.46-3.17-1.32-4.5l-1.07 1.07c-.2.2-.46.3-.74.3h-11.46c-.28 0-.54-.1-.74-.3l-.41-.42a8.24 8.24 0 0 0-.94 3.85c.08 3.88-.46 7.75-1.6 11.45h3.96a7.26 7.26 0 0 1-1.31-4.16v-6.25h2.08v1.99c3.09-.61 3.13-3.92 3.13-4.07a1.04 1.04 0 1 1 2.08 0c0 .39.22 3.71 5.21 4.12v-2.04zm3.12-1.04c0 7.93 1.96 12 1.98 12.03a1.04 1.04 0 0 1-.94 1.5h-7.3v2.09h2.1c5.17 0 9.37 4.2 9.37 9.37v9.38c0 .57-.46 1.04-1.04 1.04h-29.18c-.57 0-1.04-.47-1.04-1.04v-9.38c0-5.17 4.2-9.36 9.38-9.37h2.08v-2.08h-7.3a1.04 1.04 0 0 1-.92-1.51c.01-.04 1.97-4.1 1.97-12.03 0-1.9.52-3.76 1.5-5.37l-.96-.96a3.12 3.12 0 0 1 1.14-5.14l8.38-3.05c.25-.09.51-.09.75.01l7.49 3a3.12 3.12 0 0 1 1.04 5.1l-.4.4a10.44 10.44 0 0 1 1.9 6zm-8.2 19.05a3.12 3.12 0 0 1-4.43 0l-1.35-1.35h-.55c.18 2.24.95 7.3 4.11 7.3 3.17 0 3.93-5.06 4.11-7.3h-.55zm-8.47-1.35a7.3 7.3 0 0 0-7.3 7.3v8.33h3.13v-4.17h2.08v4.17h7.3v-6.35c-4.17-.86-5-6.82-5.17-9.28zm14.59 15.63v-4.17h2.08v4.17h3.13v-8.34a7.3 7.3 0 0 0-7.3-7.29h-.04c-.17 2.46-1 8.42-5.17 9.28v6.35zm-8.34-18.75c-.72 0-1.42-.1-2.08-.3v1.95l1.34 1.35c.42.39 1.07.39 1.48 0l1.35-1.35v-1.95c-.67.2-1.36.3-2.09.3zm-5.2-7.3a5.19 5.19 0 0 0 8.34 4.17h-.01a5.2 5.2 0 0 0 2.08-4.16v-2.12c-3.29-.23-5.1-1.53-6.09-2.89a5.75 5.75 0 0 1-4.33 2.9zm12.65-15.16a1.04 1.04 0 0 0-.35-1.7l-7.12-2.85-8.01 2.92a1.04 1.04 0 0 0-.38 1.71l2.59 2.59h10.6zm-8.5-2.54h2.1v1.04h1.04v2.09h-1.05v1.04h-2.08v-1.04h-1.04v-2.09h1.04zm30.23 19.79c2.88 0 5.2 2.33 5.21 5.21v15.62c0 2.88-2.33 5.2-5.21 5.21h-11.46v-2.08h11.46c1.73 0 3.13-1.4 3.13-3.13v-14.58H710.2v-2.08h17.54a3.13 3.13 0 0 0-2.95-2.09h-15.63v-2.08h1.04v-3.12h-2.08v-2.09h9.37c1.73 0 3.13 1.4 3.13 3.13v2.08zm-10.42 0v-3.12h-2.09v3.12zm4.17 0v-2.08c0-.58-.47-1.04-1.05-1.04h-1.04v3.12zm3.12 8.33h2.09v2.09h2.08v2.08h-2.08v2.08h-2.09v-2.08h-2.08v-2.08h2.08zm2.09 11.46h2.08v2.08h-2.08zm-4.17 0h2.08v2.08h-2.08zm-4.17 0h2.08v2.08h-2.08zm9.38-34.37c.57 0 1.04.47 1.04 1.04v11.46h-2.08v-2.09h-2.09v-2.08h2.09v-2.08h-2.09v-2.08h2.09v-2.09h-4.17v5.21h-2.09v-6.25c0-.57.47-1.04 1.05-1.04h1.04v-1.04c0-.58.47-1.04 1.04-1.04v-6.25h2.09v6.25c.57 0 1.04.46 1.04 1.04v1.04z"/></defs><g><g transform="translate(-680 -1454)"><use fill="#fafafa" xlink:href="#pv5pa"/></g></g></svg>