<svg xmlns="http://www.w3.org/2000/svg" xmlns:xlink="http://www.w3.org/1999/xlink" width="50" height="50" viewBox="0 0 50 50"><defs><path id="l3d1a" d="M998.63 1642.66c2.88 0 5.2 2.34 5.21 5.21v21.88h1.04c.58 0 1.05-.46 1.05-1.04v-39.6c0-.57-.47-1.04-1.05-1.04h-29.17c-.58 0-1.05.47-1.05 1.04v8.34a5.21 5.21 0 0 1 2.09 4.17v1.04zm0 33.35H963.2a5.22 5.22 0 0 1-5.21-5.21v-31.26c0-1.73 1.4-3.13 3.13-3.13h10.42c.35 0 .7.03 1.04.1v-7.4c0-1.72 1.4-3.12 3.13-3.12h29.17c1.73 0 3.13 1.4 3.13 3.12v39.6c0 1.73-1.4 3.13-3.13 3.13h-1.14a5.22 5.22 0 0 1-5.1 4.17zm3.13-28.14c0-1.72-1.4-3.13-3.13-3.13h-27.1v-2.08h3.13v-1.04c0-1.73-1.4-3.13-3.12-3.13h-10.42c-.58 0-1.05.47-1.05 1.05v31.26c0 1.72 1.4 3.12 3.13 3.12h35.43c1.73 0 3.13-1.4 3.13-3.12zm-19.8-17.71v2.08h-2.09c-.57 0-1.04.47-1.04 1.04v2.09h-2.08v-2.09c0-1.72 1.4-3.12 3.12-3.12zm2.08 0h2.09v2.08h-2.09zm-2.08 4.16h20.84v2.09h-20.84zm0 4.17h20.84v2.09h-20.84zm5.71 15a4.88 4.88 0 0 1 0 7.2l-6.04 5.66a1.04 1.04 0 0 1-1.43 0l-6.04-5.67a4.88 4.88 0 0 1 0-7.19 5.56 5.56 0 0 1 6.76-.56 5.56 5.56 0 0 1 6.75.56zm-1.42 5.67a2.8 2.8 0 0 0 0-4.15 3.43 3.43 0 0 0-4.62 0c-.4.38-1.03.38-1.43 0a3.37 3.37 0 0 0-2.3-.89c-.86 0-1.69.32-2.32.9a2.79 2.79 0 0 0 0 4.14l5.34 5zm-18.88-16.5h2.08v2.08h-2.08zm-4.17 27.1h10.42v2.08H963.2zm12.5 0h2.09v2.08h-2.08z"/></defs><g><g transform="translate(-958 -1626)"><use fill="#fafafa" xlink:href="#l3d1a"/></g></g></svg>