<svg xmlns="http://www.w3.org/2000/svg" xmlns:xlink="http://www.w3.org/1999/xlink" width="50" height="50" viewBox="0 0 50 50"><defs><path id="q9pna" d="M722.67 1851.95a7.3 7.3 0 0 1-3.12 5.99v1.31h2.08c5.18 0 9.37 4.2 9.38 9.38v8.34c0 .57-.47 1.04-1.04 1.04h-29.18c-.58 0-1.04-.47-1.04-1.04v-8.34c0-5.18 4.2-9.38 9.38-9.38h2.08v-1.31a7.3 7.3 0 0 1-3.13-5.99v-2.08c-.57 0-1.04-.46-1.04-1.04v-4.17a8.34 8.34 0 1 1 16.68 0v4.17c0 .58-.47 1.04-1.05 1.04zm-5.2 7a7.3 7.3 0 0 1-4.18 0v1.19l2.09 6.95 2.08-6.95zm-2.1-1.78a5.21 5.21 0 0 0 5.11-4.17h-10.2a5.21 5.21 0 0 0 5.1 4.17zm5.22-7.33c-3.3-.23-5.1-1.54-6.1-2.9a5.75 5.75 0 0 1-4.32 2.9v1.07h10.42zm1.04-5.18a6.25 6.25 0 0 0-12.5 0v3.13c4.12 0 4.16-4 4.16-4.17a1.04 1.04 0 1 1 2.09 0c0 .41.25 4.17 6.25 4.17zm7.3 23.97a7.3 7.3 0 0 0-6.26-7.22v4.1c0 .3-.13.6-.37.8l-5.88 4.9v4.71h7.3v-4.17h2.08v4.17h3.13zm-20.47-2.33c-.24-.2-.38-.49-.38-.8v-4.1a7.3 7.3 0 0 0-6.25 7.23v7.3h3.13v-4.18h2.08v4.17h7.3v-4.72zm3.02-4.97h-1.31v3.68l3.22 2.69zm7.8 0l-1.9 6.37 3.2-2.69v-3.68zm8.6-33.34c1.73 0 3.13 1.4 3.13 3.12v10.42c0 1.73-1.4 3.13-3.13 3.13v13.55h-2.08v-15.63h2.08c.58 0 1.05-.47 1.05-1.05v-10.42c0-.57-.47-1.04-1.05-1.04h-43.76c-.58 0-1.05.47-1.05 1.04v10.42c0 .58.47 1.05 1.05 1.05h20.84v2.08H686.2v31.26h3.13v-19.8c0-1.72 1.4-3.12 3.12-3.12h12.5v2.08h-12.5c-.57 0-1.04.47-1.04 1.04v19.8h6.25v2.09h-12.5c-.58 0-1.04-.47-1.04-1.04v-32.3a3.13 3.13 0 0 1-3.13-3.14v-10.42c0-1.72 1.4-3.12 3.13-3.12zm-39.6 5.2h2.09v2.1h2.08v2.08h-2.08v2.08h-2.09v-2.08h-2.08v-2.09h2.08zm6.26 2.1h12.5v2.08h-12.5zm27.1 0h4.16v2.08h-4.17zm-32.31 12.5h4.16v2.08h-4.16zm6.25 0h9.38v2.08h-9.38zm-2.09 17.71h2.09v6.25h-2.09z"/></defs><g><g transform="translate(-681 -1828)"><use fill="#fafafa" xlink:href="#q9pna"/></g></g></svg>