<?xml version="1.0" encoding="utf-8"?>
<!-- Generator: Adobe Illustrator 22.0.1, SVG Export Plug-In . SVG Version: 6.00 Build 0)  -->
<svg version="1.2" baseProfile="tiny" id="Layer_1" xmlns="http://www.w3.org/2000/svg" xmlns:xlink="http://www.w3.org/1999/xlink"
	 x="0px" y="0px" viewBox="0 0 99.1 100" xml:space="preserve">
<path fill="#FFFFFF" d="M85.4,12.6C76.3,4.2,65,0,51.4,0C37.2,0,25.1,4.8,15,14.3C5,23.9,0,35.8,0,50c0,13.6,4.8,25.4,14.3,35.2
	c9.6,9.8,22.4,14.7,38.6,14.7c9.8,0,19.3-2,28.7-6c3.1-1.3,4.5-4.8,3.3-7.9c-1.3-3.2-4.9-4.7-8.1-3.3C68.7,86.3,60.7,88,52.9,88
	c-12.4,0-22-3.8-28.8-11.3c-6.8-7.5-10.2-16.4-10.2-26.6c0-11.1,3.7-20.3,10.9-27.7C32,15,41,11.3,51.6,11.3c9.8,0,18,3,24.8,9.1
	c6.7,6.1,10.1,13.7,10.1,22.9c0,6.3-1.6,11.6-4.6,15.7c-3.1,4.2-6.3,6.3-9.6,6.3c-1.8,0-2.7-1-2.7-2.9c0-1.6,0.1-3.4,0.3-5.5l3.8-31
	H60.6l-0.8,3c-3.3-2.7-7-4.1-10.9-4.1c-6.3,0-11.7,2.5-16.1,7.5c-4.5,5-6.7,11.4-6.7,19.3c0,7.7,2,13.9,6,18.6
	c4,4.7,8.8,7.1,14.3,7.1c5,0,9.3-2.1,12.8-6.3c2.7,4,6.6,6,11.8,6c7.6,0,14.3-3.3,19.8-10c5.6-6.7,8.4-14.7,8.4-24.1
	C99.1,31.2,94.6,21,85.4,12.6L85.4,12.6z M55.4,59.5c-2.3,3.1-5.1,4.7-8.3,4.7c-2.2,0-3.9-1.1-5.3-3.4c-1.3-2.3-2-5.1-2-8.5
	c0-4.2,0.9-7.6,2.8-10.2c1.9-2.6,4.2-3.9,7-3.9c2.4,0,4.5,1,6.4,2.9c1.9,1.9,2.8,4.5,2.8,7.7C58.8,52.9,57.7,56.4,55.4,59.5
	L55.4,59.5z M55.4,59.5"/>
</svg>
