<svg id="Layer_1" data-name="Layer 1" xmlns="http://www.w3.org/2000/svg" viewBox="0 0 2252.19 1261.19"><defs><style>.cls-1{fill:#2a39a3;}.cls-2{fill:#eff0f5;}.cls-3{fill:#2a39a4;}.cls-4{fill:#2b39a4;}.cls-5{fill:#f0f0f5;}</style></defs><title>123</title><path class="cls-1" d="M251,881q-560.74,0-1121.5.09c-3.75,0-4.59-.84-4.59-4.59q.15-626,0-1252c0-3.75.84-4.59,4.59-4.59q1121.5.13,2243,0c3.75,0,4.59.84,4.59,4.59q-.15,626,0,1252c0,3.75-.84,4.59-4.59,4.59Q811.75,880.94,251,881ZM729.11,416.08c.75,26.58,6.33,56.63,13.9,86.4,28.22,111,85.25,204.22,172.55,278.54,43.93,37.4,92.68,66.54,148.57,82.5,42.76,12.2,85.88,14.82,129.2,3,45.93-12.54,82.72-39,112.9-75.21,41.66-50,63.55-107.22,62.75-172.62a286.17,286.17,0,0,0-26.89-118.44c-55.44-118.93-147-197.13-271.4-237.14-46.59-15-95.07-18-143.69-18-35.14,0-69.85,3.74-103.14,15.91-38.74,14.16-68.14,38.53-83.48,77.79C731.21,362.28,728.54,386.84,729.11,416.08ZM-569.07,79.13A429.66,429.66,0,0,0-512.7,76c25.89-3.22,51.14-8.89,74.55-21,36-18.53,56.19-47.81,60.32-88.17,2.67-26.09-.91-51.59-7.75-76.6-16.77-61.38-44.2-117.93-79.41-170.75-15.87-23.81-34.35-45.45-57.15-63.06-42.77-33-88.67-38.44-137.74-15.45-23.6,11.06-44.29,26.41-63.41,43.92-37.09,34-68.07,73.08-95.7,114.92-17.19,26.05-32.08,53.32-41.64,83.2-7,22-10.71,44.36-7,67.44C-863.21-22.42-849.11-1-828,16c23.75,19.15,51.34,30.6,80.27,39C-689.39,72-629.49,77.6-569.07,79.13Zm1433,3.4a141.09,141.09,0,0,0,2.58,27.82c6.9,35.16,26.6,61.88,55.91,81.29,48.38,32,102.68,46.22,160,50.3a62.72,62.72,0,0,0,27-3.81c11.9-4.55,17.65-13,17.64-25.61a48.17,48.17,0,0,0-1.52-11.35c-4.19-17.23-12.71-32.47-22.15-47.2-23-35.9-50.31-68.36-79.17-99.59-18.11-19.61-37.35-38-59.46-53.2C955.1-5.43,945-11.09,933.68-14.5c-21.74-6.61-38.52-.37-50.67,18.82a78.77,78.77,0,0,0-7.1,14.27C868.06,39.18,864.48,60.57,863.93,82.53ZM717.61,265.11c37.16-.64,74.88-8,111.57-20.86,14.51-5.09,28.36-11.59,40.1-21.81,18.34-15.95,21.65-35,10-56.4a105.51,105.51,0,0,0-21.86-27.1c-31.77-29-69.14-48.2-109.49-62C717.87,66.61,687.2,62,655.52,67c-45.55,7.17-77.64,44.09-77.42,90.19.2,39.94,19.44,69.06,53.52,88.58C657.61,260.64,686.31,264.87,717.61,265.11ZM748,620c.27-18.86-.49-37.64-4-56.23a125.12,125.12,0,0,0-6.83-23.94C725,509.6,701.79,496.9,669.8,503.51c-29.68,6.13-56.31,19.31-80.07,37.83-19.91,15.52-32.65,36.21-38.79,60.76-8.17,32.68-3.86,64.26,10.08,94.44,19.27,41.74,49.91,72,93.57,87.68,27.74,10,50.51,1.31,66.22-23.61,7.07-11.22,11.68-23.5,15.18-36.22C745.38,690.22,747.42,655.19,748,620ZM-245,461c21.87,1,36.61-8.92,44.64-29.09.86-2.16,1.83-4.29,2.54-6.5,5.85-18.36,11.72-36.72,17.42-55.13a33.43,33.43,0,0,0,1.39-8.84c.49-15.4-6.89-26.76-19-35.31-23.84-16.8-63.91-18.38-87.81,8.76-18.68,21.22-33.39,44.36-37.7,72.92-3.13,20.81,5.73,37.21,24.27,43.34A195.35,195.35,0,0,0-245,461Z" transform="translate(875.09 380.09)"/><path class="cls-2" d="M729.11,416.08c-.57-29.24,2.1-53.8,11.27-77.29,15.34-39.26,44.74-63.63,83.48-77.79,33.29-12.17,68-15.93,103.14-15.91,48.62,0,97.1,3,143.69,18,124.36,40,216,118.21,271.4,237.14A286.17,286.17,0,0,1,1369,618.69c.8,65.4-21.09,122.65-62.75,172.62-30.18,36.2-67,62.67-112.9,75.21-43.32,11.82-86.44,9.2-129.2-3-55.89-16-104.64-45.1-148.57-82.5C828.26,706.7,771.23,613.48,743,502.48,735.44,472.71,729.86,442.66,729.11,416.08Zm204.45-166c-3.33,0-6.66-.06-10,0C890,250.83,856.76,254.24,825,266c-40.18,14.86-69.33,40.94-82.65,82.62-8.88,27.78-9.71,56.29-6.87,85.05,3.11,31.59,10.49,62.28,19.62,92.61q52.68,174.91,202.08,280c49.09,34.42,102.92,57.79,163.65,62.08,46.84,3.31,90.48-6.94,129.53-33.34,79.68-53.88,134.83-158,106.1-276.79-13.2-54.56-38.83-102.83-74.18-146-55.93-68.37-125.49-117-210.07-143.54C1027.05,254.51,980.44,251.2,933.56,250.06Z" transform="translate(875.09 380.09)"/><path class="cls-2" d="M-569.07,79.13C-629.49,77.6-689.39,72-747.72,55-776.65,46.6-804.24,35.15-828,16c-21.12-17-35.22-38.42-39.61-65.55-3.74-23.08,0-45.48,7-67.44,9.56-29.88,24.45-57.15,41.64-83.2,27.63-41.84,58.61-81,95.7-114.92,19.12-17.51,39.81-32.86,63.41-43.92,49.07-23,95-17.56,137.74,15.45,22.8,17.61,41.28,39.25,57.15,63.06,35.21,52.82,62.64,109.37,79.41,170.75,6.84,25,10.42,50.51,7.75,76.6C-382,7.19-402.19,36.47-438.15,55c-23.41,12.07-48.66,17.74-74.55,21A429.66,429.66,0,0,1-569.07,79.13Zm.29-5a437.5,437.5,0,0,0,55.37-3.17c25.06-3.13,49.51-8.63,72.22-20.14,32.36-16.38,52.15-42,57.49-78.32,3.85-26.21.71-51.93-5.89-77.2-16.28-62.43-44.11-119.69-79.8-173.2-16.35-24.51-35.39-46.77-59.39-64.29-38.92-28.43-80.46-33.6-124.83-14-22.32,9.86-42.13,23.55-60.26,39.64-46.14,40.95-83.53,89.09-114.83,142C-843.84-149-856-122-861.51-92.5c-8.52,45.59,5.36,82.36,43.36,109.56,19.84,14.2,41.92,23.76,65.06,31C-693.07,66.7-631.19,72.35-568.78,74.1Z" transform="translate(875.09 380.09)"/><path class="cls-2" d="M863.93,82.53c.55-22,4.13-43.35,12-63.94A78.77,78.77,0,0,1,883,4.32c12.15-19.19,28.93-25.43,50.67-18.82C945-11.09,955.1-5.43,964.74,1.18c22.11,15.16,41.35,33.59,59.46,53.2,28.86,31.23,56.2,63.69,79.17,99.59,9.44,14.73,18,30,22.15,47.2a48.17,48.17,0,0,1,1.52,11.35c0,12.64-5.74,21.06-17.64,25.61a62.72,62.72,0,0,1-27,3.81c-57.29-4.08-111.59-18.26-160-50.3-29.31-19.41-49-46.13-55.91-81.29A141.09,141.09,0,0,1,863.93,82.53ZM869,80.36c.13,21.33,3.47,39.67,11.76,57,13.17,27.44,35.08,46.11,61.06,60.53,32.66,18.12,68.09,28.23,104.55,35.07,16.71,3.13,33.52,5.39,50.63,3.14,20.59-2.7,28.54-14,23.55-34.08-3.65-14.71-10.69-27.93-18.61-40.67-24-38.51-53-73-83.87-106-17.87-19.16-36.8-37.19-58.79-51.69-9.35-6.16-19.18-11.36-30.13-14.11-15.15-3.8-28-.35-38.06,12A62,62,0,0,0,882,16.92C873.24,37.94,869.73,60,869,80.36Z" transform="translate(875.09 380.09)"/><path class="cls-2" d="M717.61,265.11c-31.3-.24-60-4.47-86-19.35-34.08-19.52-53.32-48.64-53.52-88.58-.22-46.1,31.87-83,77.42-90.19,31.68-5,62.35-.38,92.36,9.91,40.35,13.84,77.72,33,109.49,62A105.51,105.51,0,0,1,879.23,166c11.7,21.36,8.39,40.45-10,56.4-11.74,10.22-25.59,16.72-40.1,21.81C792.49,257.11,754.77,264.47,717.61,265.11ZM715.44,260c32.21-.29,63.57-5.91,94.4-14.81,19.1-5.52,37.72-12.23,53.63-24.62,19.35-15.05,22.63-33.54,10-54.49A113.6,113.6,0,0,0,849.6,138.7C817.65,111.33,780.87,92.77,741,80c-27.44-8.81-55.41-12.48-84.2-8-43.34,6.7-74,41.54-73.72,85.42.22,38.34,19,66.1,51.89,84.45C659.93,255.7,687.31,259.79,715.44,260Z" transform="translate(875.09 380.09)"/><path class="cls-2" d="M748,620c-.62,35.19-2.66,70.22-12,104.39-3.5,12.72-8.11,25-15.18,36.22-15.71,24.92-38.48,33.57-66.22,23.61-43.66-15.66-74.3-45.94-93.57-87.68-13.94-30.18-18.25-61.76-10.08-94.44,6.14-24.55,18.88-45.24,38.79-60.76,23.76-18.52,50.39-31.7,80.07-37.83,32-6.61,55.15,6.09,67.41,36.32A125.12,125.12,0,0,1,744,563.77C747.55,582.36,748.31,601.14,748,620Zm-5,.19a302.36,302.36,0,0,0-2-43.39c-2-15.59-5.24-30.84-13.05-44.72C720,518,708.28,509.29,692,507.39a67.08,67.08,0,0,0-21.85,1.22c-27.13,5.78-51.54,17.8-73.78,34-20.61,15-34.14,35.28-40.35,60.11-8.79,35.1-3.05,68.52,13.6,100,19,36,47.24,62.57,86,76.49,26.64,9.58,47,1.62,61.77-22.61,6.27-10.31,10.48-21.49,13.7-33.06C740.42,689.72,742.29,655,743,620.19Z" transform="translate(875.09 380.09)"/><path class="cls-2" d="M-245,461a195.35,195.35,0,0,1-54.26-9.85c-18.54-6.13-27.4-22.53-24.27-43.34,4.31-28.56,19-51.7,37.7-72.92,23.9-27.14,64-25.56,87.81-8.76,12.12,8.55,19.5,19.91,19,35.31a33.43,33.43,0,0,1-1.39,8.84c-5.7,18.41-11.57,36.77-17.42,55.13-.71,2.21-1.68,4.34-2.54,6.5C-208.44,452.1-223.18,462-245,461Zm.1-5.06c19.22,1,32.27-7.47,39.41-25.21,1.18-2.92,2.51-5.8,3.47-8.8q7.95-24.68,15.74-49.4c5.33-16.93.7-31.33-13.87-41.65-15.66-11.08-33.11-14.08-51.81-10.38-15.82,3.13-26.94,13.12-36.57,25.23-14.67,18.47-26.29,38.42-29.92,62.21-2.86,18.76,4.52,33.19,20.75,38.44A194,194,0,0,0-244.95,456Z" transform="translate(875.09 380.09)"/><path class="cls-1" d="M933.56,250.06c46.88,1.14,93.49,4.45,138.61,18.6,84.58,26.52,154.14,75.17,210.07,143.54,35.35,43.2,61,91.47,74.18,146C1385.15,677,1330,781.14,1250.32,835c-39,26.4-82.69,36.65-129.53,33.34-60.73-4.29-114.56-27.66-163.65-62.08q-149.43-104.78-202.08-280c-9.13-30.33-16.51-61-19.62-92.61-2.84-28.76-2-57.27,6.87-85.05C755.63,306.94,784.78,280.86,825,266c31.8-11.76,65-15.17,98.61-15.93C926.9,250,930.23,250.06,933.56,250.06Zm216.36,389.52c1.47,30.06,4.4,62.7,13.07,94.54,4.53,16.63,10.47,32.69,21.62,46.21,11.53,14,26.17,20,44.31,16.88a72.72,72.72,0,0,0,32.21-14c34.9-26.69,48.38-62.91,45.32-105.74-2.22-31.18-14.63-58.84-31.93-84.48-10.24-15.19-22.1-28.9-37.94-38.5-16.25-9.85-33.28-13.69-51.13-4.22-11.5,6.11-19,16.07-24.35,27.63C1152.37,596.59,1150.05,616.5,1149.92,639.58Z" transform="translate(875.09 380.09)"/><path class="cls-1" d="M-568.78,74.1C-631.19,72.35-693.07,66.7-753.09,48c-23.14-7.2-45.22-16.76-65.06-31-38-27.2-51.88-64-43.36-109.56C-856-122-843.84-149-828.7-174.56c31.3-52.93,68.69-101.07,114.83-142,18.13-16.09,37.94-29.78,60.26-39.64,44.37-19.6,85.91-14.43,124.83,14,24,17.52,43,39.78,59.39,64.29,35.69,53.51,63.52,110.77,79.8,173.2,6.6,25.27,9.74,51,5.89,77.2C-389,8.79-408.83,34.41-441.19,50.79c-22.71,11.51-47.16,17-72.22,20.14A437.5,437.5,0,0,1-568.78,74.1Z" transform="translate(875.09 380.09)"/><path class="cls-3" d="M869,80.36c.72-20.34,4.23-42.42,13-63.44A62,62,0,0,1,891.1,1.48c10-12.34,22.91-15.79,38.06-12,11,2.75,20.78,8,30.13,14.11,22,14.5,40.92,32.53,58.79,51.69,30.84,33.05,59.92,67.52,83.87,106,7.92,12.74,15,26,18.61,40.67,5,20.1-3,31.38-23.55,34.08-17.11,2.25-33.92,0-50.63-3.14-36.46-6.84-71.89-17-104.55-35.07-26-14.42-47.89-33.09-61.06-60.53C872.48,120,869.14,101.69,869,80.36Z" transform="translate(875.09 380.09)"/><path class="cls-3" d="M715.44,260c-28.13-.25-55.51-4.34-80.43-18.22-32.93-18.35-51.67-46.11-51.89-84.45-.25-43.88,30.38-78.72,73.72-85.42,28.79-4.44,56.76-.77,84.2,8,39.83,12.78,76.61,31.34,108.56,58.71a113.6,113.6,0,0,1,23.83,27.42c12.67,20.95,9.39,39.44-10,54.49-15.91,12.39-34.53,19.1-53.63,24.62C779,254.13,747.65,259.75,715.44,260Z" transform="translate(875.09 380.09)"/><path class="cls-3" d="M743,620.19c-.71,34.82-2.58,69.53-12,103.35-3.22,11.57-7.43,22.75-13.7,33.06-14.74,24.23-35.13,32.19-61.77,22.61-38.74-13.92-66.93-40.45-86-76.49-16.65-31.51-22.39-64.93-13.6-100,6.21-24.83,19.74-45.14,40.35-60.11,22.24-16.17,46.65-28.19,73.78-34A67.08,67.08,0,0,1,692,507.39c16.33,1.9,28,10.59,35.95,24.69C735.71,546,739,561.21,741,576.8A302.36,302.36,0,0,1,743,620.19Z" transform="translate(875.09 380.09)"/><path class="cls-4" d="M-244.95,456a194,194,0,0,1-52.8-9.56C-314,441.15-321.36,426.72-318.5,408c3.63-23.79,15.25-43.74,29.92-62.21,9.63-12.11,20.75-22.1,36.57-25.23,18.7-3.7,36.15-.7,51.81,10.38,14.57,10.32,19.2,24.72,13.87,41.65q-7.8,24.72-15.74,49.4c-1,3-2.29,5.88-3.47,8.8C-212.68,448.49-225.73,457-244.95,456Z" transform="translate(875.09 380.09)"/><path class="cls-5" d="M1149.92,639.58c.13-23.08,2.45-43,11.18-61.65,5.4-11.56,12.85-21.52,24.35-27.63,17.85-9.47,34.88-5.63,51.13,4.22,15.84,9.6,27.7,23.31,37.94,38.5,17.3,25.64,29.71,53.3,31.93,84.48,3.06,42.83-10.42,79-45.32,105.74a72.72,72.72,0,0,1-32.21,14c-18.14,3.11-32.78-2.91-44.31-16.88-11.15-13.52-17.09-29.58-21.62-46.21C1154.32,702.28,1151.39,669.64,1149.92,639.58ZM1302.14,690c-.26-4.49-.37-8.16-.71-11.81-3.35-35.45-18-66.17-39.67-93.84-7.86-10-16.88-18.89-27.87-25.52-10.36-6.26-21.36-10.31-33.69-8.23-16.93,2.85-27,14.25-34.11,28.71-7.85,15.84-10.76,32.93-10.89,50.36a406.66,406.66,0,0,0,11.19,97.54c4,16.89,9.59,33.29,20.18,47.44,11.14,14.86,25.66,21.27,44.16,17.15a68.26,68.26,0,0,0,24.59-10.63C1287.27,758.81,1300.71,727.06,1302.14,690Z" transform="translate(875.09 380.09)"/><path class="cls-3" d="M1302.14,690c-1.43,37.09-14.87,68.84-46.82,91.17a68.26,68.26,0,0,1-24.59,10.63c-18.5,4.12-33-2.29-44.16-17.15-10.59-14.15-16.15-30.55-20.18-47.44a406.66,406.66,0,0,1-11.19-97.54c.13-17.43,3-34.52,10.89-50.36,7.16-14.46,17.18-25.86,34.11-28.71,12.33-2.08,23.33,2,33.69,8.23,11,6.63,20,15.51,27.87,25.52,21.7,27.67,36.32,58.39,39.67,93.84C1301.77,681.81,1301.88,685.48,1302.14,690Z" transform="translate(875.09 380.09)"/></svg>