<?xml version="1.0" encoding="utf-8"?>
<!-- Generator: Adobe Illustrator 22.0.1, SVG Export Plug-In . SVG Version: 6.00 Build 0)  -->
<svg version="1.2" baseProfile="tiny" id="Layer_1" xmlns="http://www.w3.org/2000/svg" xmlns:xlink="http://www.w3.org/1999/xlink"
	 x="0px" y="0px" viewBox="0 0 1920 1080" xml:space="preserve">
<g>
	<path fill="#FDFDFD" d="M1509,825c-542.5,0-1085,0-1627.5,0.1c-3.7,0-4.6-0.8-4.6-4.6c0.1-186.7,0.1-373.3,0-560
		c0-3.7,0.8-4.6,4.6-4.6C526.7,256,1171.8,256,1817,256c0.6,2.2-1.1,3.4-2.4,4.6c-20.6,19.1-44.9,28.9-73,28.7
		c-26.3-0.2-52.6,0.1-78.6,5.1c-18.3,3.5-35.9,9-51.1,20.2c-14.3,10.6-24,24.7-30.3,41.3c-4.7,12.5-7,25.7-9.4,38.8
		c-3.2,17.6-6.8,35-16.2,50.6c-12.7,21.1-29.9,37.8-50.6,50.9c-19,12-39.8,20.2-60.3,28.9c-19.1,8.2-37.4,17.5-53.4,31
		c-16.3,13.7-27.5,30.4-30.8,52.1c-3.7,24.1,7.7,48,28.8,60.2c11.4,6.6,24,9.9,36.1,14.5c16.7,6.3,33,13.5,48.1,23.1
		c14.8,9.4,27.7,20.7,36.3,36.4c13.3,24.2,12.8,49.1,3.3,74.3C1512.4,819.7,1511.6,822.9,1509,825z"/>
	<path fill="#FEFEFE" d="M2013,256c9.8,0,19.7,0.1,29.5-0.1c2.2,0,2.9,0.4,2.5,2.6c-0.1,0.6,0,1.3,0,2c0,186.7,0,373.3,0.1,560
		c0,3.7-0.8,4.6-4.6,4.6c-90.8-0.1-181.7-0.1-272.5-0.1c-19.2-4.6-37.1-12.7-55.1-20.4c-31.1-13.3-61-29.2-89.2-48
		c-19.8-13.2-37.9-28.3-54-45.8c-19.5-21.2-27.5-46.1-24.2-74.9c3-25.8,11.8-49.2,27.8-69.6c12.5-16,28.8-27.6,46.6-37.1
		c31.8-16.9,66.2-26.1,101-34.4c22.5-5.4,45.3-9.6,67.3-17.1c37.7-12.9,71.2-32.9,101.6-58.6c32.4-27.3,58.9-59.7,82.4-94.7
		c13.5-20.2,25.6-41.4,36.8-63C2009.9,259.4,2010.7,257.2,2013,256z"/>
	<path fill="#FEFEFE" d="M1823,256c61.3,0,122.7,0,184,0c1.5,2.1,0,3.9-0.9,5.5c-20.7,39.5-44.2,77.2-73.3,111.1
		c-25.2,29.4-53.7,55.1-86.9,75.2c-23.8,14.4-48.9,25.7-75.9,32.7c-25.8,6.7-51.9,12-77.7,18.9c-28.6,7.7-56.5,17.1-82,32.4
		c-21.4,12.8-39.4,29-51.2,51.4c-8.2,15.6-13.5,32.2-15.8,49.7c-1.5,11-1.2,21.9,0.5,32.8c3,19.3,13.1,34.7,26,48.6
		c26.8,29,59.3,50.3,93.7,69c27.4,14.9,56,27.2,85.1,38.3c1.7,0.6,4.1,0.6,4.3,3.3c-79.7,0-159.3,0-239,0c-0.8-2.9,0.9-5.1,1.8-7.6
		c8.5-23.2,10-46.6-0.2-69.6c-8.4-19.1-23.2-32.7-40.5-43.7c-20.3-12.8-42.4-21.7-65-29.2c-9.1-3-17.6-7.1-25.3-12.8
		c-23.9-17.4-27-48.5-16.2-72.4c9.9-21.9,27.5-36,47.5-47.7c18.2-10.7,38-17.8,57.1-26.4c23.7-10.6,45.9-23.4,64.2-42.4
		c17.5-18.1,29.3-39,34.2-63.8c2.6-13.2,4.7-26.6,8-39.7c9.3-37.3,32.8-60.4,69.8-70c16-4.1,32.3-6.1,48.8-7.3
		c16-1.2,32-0.2,47.9-0.9c23.7-1,44.9-8.7,63.5-23.7C1814.4,264.2,1818.2,259.6,1823,256z"/>
	<path fill="#FE2D27" d="M1753,825c-15.5-6.4-31.2-12.4-46.5-19.1c-39.4-17.4-76.9-38.1-110.6-65.2c-11.7-9.4-22.4-19.8-32.3-31.2
		c-20.1-23.4-25.8-50.4-21.1-80.3c8.1-52.2,38.7-86.5,85.4-108.3c29.7-13.9,61.2-22.3,92.9-29.9c25.7-6.2,51.8-10.9,76.5-20.5
		c47.2-18.3,86.9-47.3,121.3-84c36-38.3,64-82.1,87.8-128.7c0.3-0.6,0.4-1.2,0.6-1.9c2,0,4,0,6,0c-23.8,47.2-51.7,91.5-87.6,130.6
		c-38.6,42-83.6,74.6-138.1,92.8c-24.1,8.1-49.3,12.5-74,18.6c-31.9,7.8-63.3,16.9-92.6,32.1c-38.6,20.1-63.6,50.6-72.3,93.8
		c-6.7,33.4,0.1,62.9,23.9,88.2c24.4,25.9,53.2,45.6,83.9,63c34.2,19.4,70.2,34.9,107.3,47.9c1.5,0.5,3.3,0.6,4.4,2
		C1763,825,1758,825,1753,825z"/>
	<path fill="#FE2D27" d="M1823,256c-9,12.3-21.2,20.5-34.7,26.9c-15.1,7.2-31.2,10.3-47.9,10.1c-23.8-0.3-47.7,0.1-71.3,4
		c-11.2,1.8-22.1,4.6-32.8,8.6c-31.8,11.9-49,35.9-56.2,68c-3.1,14-5.3,28.1-8.5,42.1c-8.2,35.1-30.2,60.2-58.9,80.2
		c-17.9,12.5-37.9,20.7-57.8,29.2c-19.5,8.3-38.8,16.7-55.7,29.8c-11.4,8.9-21.4,19-27.9,32.2c-17.8,35.8-2.8,72.3,35.1,85.2
		c23.5,8,46.8,16.5,67.9,29.8c19,11.9,35.2,26.5,43.7,47.9c10.1,25.5,7.1,50.6-3.9,75.1c-1.7,0-3.3,0-5,0
		c3.8-10.3,7.8-20.4,9.2-31.4c3.8-30.3-6.4-55-29.3-74.6c-18.9-16.2-41.1-26.2-64.1-34.9c-9-3.4-18.4-6.1-27.1-10
		c-19.7-8.9-33.9-22.9-37.6-45.2c-4-24.4,3.9-45.4,20.1-63.3c15.4-17,34.9-28.1,55.5-37.5c20.7-9.4,42.2-17.3,62-28.7
		c18.3-10.5,34.1-23.7,47.4-40.1c14.3-17.6,21.2-38.2,25-60.1c2.3-13.4,4.6-26.9,8.9-39.9c12.1-36.3,38.5-55.8,74.6-64.2
		c28.6-6.6,57.7-7.2,86.9-7c30,0.2,55.6-10.2,76.5-32C1819,256,1821,256,1823,256z"/>
	<path fill="#FE2D27" d="M72.2,813.9c-30.3,0.4-57.3-1.1-83.6-9c-19.6-5.9-37.3-15.1-50.7-31.2c-13.7-16.5-19.2-35.9-19.8-56.9
		c-0.9-32.4,7.6-62.9,19.1-92.8c11.5-29.8,27.5-56.9,50.7-79.3c26.9-26.1,59.4-41.1,96-47.7c41.7-7.5,83.1-4.3,124.1,4.3
		c75.2,15.8,146.4,42.8,213.7,79.8c18.7,10.3,36.3,22.4,51,38.1c8.1,8.7,14.8,18.4,17.4,30.4c2.6,12-0.4,22.8-6.8,32.8
		c-8,12.5-19.2,21.6-31.4,29.6c-26.3,17.4-55.1,29.4-84.7,39.8c-60.5,21.4-122.5,37-185.5,49.1C144.5,808.1,107.1,813,72.2,813.9z"
		/>
	<path fill="#FE2D27" d="M732.2,568.9c41.6,0.7,83.8,4.2,124.9,16.1c15.5,4.5,30.7,10.1,43.4,20.7c12.3,10.4,14.7,22.1,7.5,36.5
		c-6.7,13.2-17.1,23.3-28.7,32.2c-24.8,19-52.2,32.4-83.3,37.6c-31.9,5.3-62.7,0.3-92.3-12c-32.9-13.6-61.3-33.4-83.1-61.9
		c-5.2-6.7-9.5-14.1-12-22.3c-3.6-11.9-0.9-19.8,9.4-26.7c9.4-6.4,20.1-9.5,30.9-12.1C676,570.5,703.6,569.2,732.2,568.9z"/>
	<path fill="#FE2D27" d="M410.1,466.1c-4.5,0.2-11.9-0.6-19.2-2.4c-22.4-5.5-36.1-21.7-38.9-45.2c-3-25.2,2.1-49.4,8.6-73.4
		c4.2-15.4,9.6-30.4,17.5-44.5c3.6-6.4,7.7-12.5,12.8-17.8c14.7-15.6,32.2-20.4,52.7-14c16.7,5.2,30.8,14.9,43.9,26
		c21.2,18,40.6,37.6,54.2,62.2c6.5,11.8,10.8,24.5,8.9,38.3c-2.1,15.8-11.5,27-23.9,36c-18.6,13.5-40.1,20.8-61.9,26.7
		C447.9,462.5,430.8,465.8,410.1,466.1z"/>
	<path fill="#FEFEFE" d="M61.1,809c-23.7-0.1-49.4-1.9-74.2-10c-25-8.2-45.6-21.8-56.4-47c-6.6-15.3-8.6-31.6-7.1-48
		c4.3-48.9,19.9-93.9,48.9-133.7C0.1,532,38.5,510.4,84.6,502c40.5-7.4,80.7-4.3,120.6,3.9c76.6,15.8,149,43.3,217.3,81.4
		c16.8,9.4,32.4,20.4,45.8,34.4c7.4,7.8,13.6,16.4,16.5,27c3,11,0.5,21.1-5.4,30.5c-7,11.1-16.8,19.4-27.4,26.7
		c-26.1,18-55.1,30.2-84.8,40.6c-71.6,25.2-145,43.3-219.9,55.2C119.5,806.2,91.5,808.8,61.1,809z"/>
	<path fill="#FEFEFE" d="M732.9,573.9c41.1,0.7,83,4.3,123.7,16.2c12,3.5,23.7,7.9,34.3,14.7c18.5,11.9,21,24.8,8.1,42.6
		c-13,18-30.8,30.2-49.9,40.6c-26.1,14.2-53.8,22.3-83.7,20.8c-38.7-1.9-73.2-15.9-104.3-38.4c-15.9-11.5-30-24.8-40.7-41.5
		c-3.4-5.3-6.1-11-7.7-17.2c-1.7-7,0.2-12.5,5.8-16.8c9-7.1,19.7-10.3,30.5-12.9C676.1,575.6,703.9,574.1,732.9,573.9z"/>
	<path fill="#FEFEFE" d="M356.1,402.6c2.5-36.7,10.2-72.1,29.2-104.2c7.9-13.4,18.6-24,34.8-26.9c9.9-1.7,19.2,0.5,28.3,4.2
		c16.9,6.9,31,18,44.3,30.2c16.8,15.3,32.3,31.8,43.7,51.7c5,8.8,8.7,18,9.4,28.2c1.3,18.2-8.1,31-22,41.2
		c-17.9,13.1-38.6,20.1-59.6,25.8c-17.7,4.9-35.6,8.4-54.1,8.2c-4.9-0.1-9.7-0.5-14.4-1.4c-25.4-5.1-38.3-21.3-39.6-49.5
		C356,407.6,356.1,405.1,356.1,402.6z"/>
</g>
</svg>
