<?xml version="1.0" encoding="utf-8"?>
<!-- Generator: Adobe Illustrator 22.0.1, SVG Export Plug-In . SVG Version: 6.00 Build 0)  -->
<svg version="1.2" baseProfile="tiny" id="Layer_1" xmlns="http://www.w3.org/2000/svg" xmlns:xlink="http://www.w3.org/1999/xlink"
	 x="0px" y="0px" viewBox="0 0 1920 1080" xml:space="preserve">
<g>
	<path fill="#FFFFFF" d="M1133,187c1,0.9,1.9,1.7,2.3,2.1c-3.9,10.6-8.5,20.6-11.4,31.1c-5.6,20.4,0.7,37.4,17,50.7
		c15.5,12.6,33.8,19.8,52.4,26.2c28.6,9.8,57.5,19,86,29.1c20.4,7.2,39.7,17,57.5,29.7c26.5,18.9,41.4,44.6,43.2,76.9
		c1.6,29.6,1.2,59.2,2.3,88.8c0.5,13.9,1.8,27.9,4.2,41.6c1.7,10.1,6.9,19.3,18.4,21.2c5.1,0.8,10.7,0.2,15.7-1.1
		c22.8-5.8,41.5-19.2,59.1-34.2c28.1-24.1,51.8-52.2,73.4-82.1c1-1.3,2.1-2.6,3.1-3.8c0,3,0,6,0,9c-4,5-8,10.1-12,15.1
		c-22.8,29-47.3,56.5-77.3,78.4c-15.3,11.2-31.6,20.4-50.6,23.9c-14.8,2.7-26.2-3.4-32.1-17.4c-5.4-12.7-6.4-26.2-6.6-39.7
		c-0.4-22,0.5-44-0.4-66c-0.7-17.6-2.2-35.3-5.4-52.5c-5-26.9-23.2-44.6-45.1-59c-24.5-16-51.8-25.6-79.2-34.9
		c-26.1-8.8-52.3-17.5-78.2-27.2c-9.4-3.5-18.3-8.8-26.6-14.6c-23.2-16.3-30.5-38.2-21.7-65.2c2.9-8.9,7.6-17.3,11.4-26
		C1132.3,187,1132.7,187,1133,187z"/>
	<path fill="#FFFFFF" d="M1234,895c-0.5-1.4-1-2.8-1.4-3.8c8.5-6.4,17.2-12.2,25.1-19c21.8-18.5,38.3-40.7,44.8-69.2
		c3.7-16.3,2.5-32.4-0.8-48.6c-2.6-12.6-3.6-25.4-1.9-38.2c2.8-21.7,14-37.8,33.8-46.8c11.7-5.4,24.2-9.4,36.7-12.5
		c20.6-5.1,41.4-10.1,62.4-13.1c22.2-3.1,44.1,0.9,65.2,8.7c0.9,0.3,1.7,0.8,2.9,1.4c-0.7,1.5-1.3,2.7-1.4,2.8
		c-14-2.7-27.2-5.8-40.6-7.8c-14.6-2.2-29.3-1.2-43.7,2.1c-21.2,4.9-42.3,10.4-63.4,16c-6,1.6-11.9,4.4-17.5,7.3
		c-19.7,10.2-29.8,27-30,48.8c-0.1,12.5,1.8,25.2,3.8,37.6c6.3,38.2-5.5,70.6-30.5,99c-12.3,14-26.9,25.2-42.6,35.1
		C1234.7,895,1234.3,895,1234,895z"/>
	<path fill="#FFFFFF" d="M366,711c1-0.8,2-1.6,2.6-2.1c9.4,4.2,18.5,8.7,27.9,12.5c35.5,14,67.9,8.8,96.8-16.3
		c6.3-5.4,12.3-11.3,17.7-17.6c12.9-15.3,15.1-32.3,7.6-50.9c-8-19.7-22.2-33.3-40.9-42.6c-6.7-3.3-13.8-5.9-20.4-9.3
		c-20.5-10.4-37.9-24.2-48.3-45.3c-3.4-6.9-6-14-4.6-23.8c2.1,2.3,4.1,3.6,4.2,5c1.2,13.1,7.8,23.6,15.9,33.2
		c12,14.1,27.3,23.7,44.4,30.7c16.9,6.9,32.1,16.2,43.4,30.9c8.8,11.5,13.9,24.5,15.6,38.9c1,8.8-0.9,17.2-5.5,24.4
		c-4.8,7.7-10.1,15.5-16.5,21.7c-15.1,14.6-31.9,26.9-52.9,31.6c-22.6,5.1-44,0.2-64.8-8.6c-7.6-3.2-14.7-7.6-22.1-11.5
		C366,711.7,366,711.3,366,711z"/>
	<path fill="#FFFFFF" d="M523.9,401.9c-18.8-1.7-39.8-6.7-59.5-16.1c-7.7-3.7-11.1-10.6-8.9-19.1c3.9-15.4,13-27.2,26.3-35.6
		c5.4-3.4,11.6-4,17.9-2.6c14.9,3.5,26.5,11,32.8,25.7c4.6,10.7,7.9,21.6,8.5,33.2C541.5,399.9,539.2,402.2,523.9,401.9z
		 M523.8,396.9c12,0.2,12.8-0.5,12-9.8c-1-12.4-4.4-24.2-10.3-35.1c-6.3-11.8-17.2-16.8-29.6-18.6c-3.7-0.6-8.3,0.3-11.5,2.2
		c-12.3,7.4-20.5,18.3-24.2,32.2c-1.6,6,0.8,10.9,5.9,13.4C485.3,390.2,505.5,395.3,523.8,396.9z"/>
	<path fill="#FFFFFF" d="M1329,763.7c0.1-14.1,6.1-25,18.3-32.2c8.1-4.8,16.9-8,26.4-8.4c10.3-0.5,18.1,4,22.9,13.1
		c5.3,9.9,7.3,20.7,6.2,31.9c-1,10.5-5.9,19-14.5,25.2c-8.3,6-17.6,9.5-27.6,10.6c-11.9,1.3-21.2-3.5-25.8-14.6
		c-3.3-8-4.8-16.8-7.2-25.2C1328.1,763.9,1328.5,763.8,1329,763.7z M1332.8,764.1c2,7.5,3.3,15.2,6.1,22.4
		c3.7,9.4,11.1,13.5,21,12.4c9.6-1.1,18.4-4.4,26.2-10.2c6.7-5.1,10.7-11.9,11.6-20.2c1.1-10.3-0.7-20.3-5.3-29.5
		c-3.9-7.7-10.6-12.1-19.1-10.6c-7.9,1.4-15.8,3.8-23,7.4C1339.1,741.2,1333.9,751.2,1332.8,764.1z"/>
	<path fill="#FFFFFF" d="M709.2,738.5c-0.3,3-0.5,6-1,8.9c-2.4,13-9.7,18.8-22.8,17.4c-10.2-1-19.8-4.3-28.5-9.9
		c-10.1-6.5-11.9-14.9-4.8-24.5c8.1-11.1,18.7-19.4,31.4-24.6c10.4-4.3,18.1-0.9,21.6,9.8c2.4,7.3,3.2,15.2,4.8,22.8
		C709.7,738.4,709.5,738.4,709.2,738.5z M704.3,738c0.2-0.1,0.4-0.1,0.6-0.2c-1.4-7-2.3-14.1-4.4-20.8c-2.5-7.6-7.5-9.8-14.9-6.7
		c-12,5-22.1,12.9-29.7,23.5c-4.8,6.8-3.8,11.8,3.3,16.4c8.3,5.5,17.6,8.7,27.5,9.6c10,0.9,14.7-3,16.6-13
		C703.8,743.9,703.9,740.9,704.3,738z"/>
	<path fill="#FFFFFF" d="M572.3,378.2c-0.7,4.9-1.7,9.8-2.2,14.8c-0.4,4-2.8,6-6.2,5.7c-5.4-0.5-10.8-1.4-15.9-3.1
		c-1.7-0.5-3.3-3.6-3.7-5.8c-1.4-7.7-2.1-15.4-3.3-23.1c-0.8-5.1,0.9-7.7,6.3-7.7c4.1,0,8.4,0.3,12.3,1.4
		C569.4,363.1,572.1,367.3,572.3,378.2z M546.7,363.7c0.9,9.1,1.7,17.1,2.7,25.1c0.1,1.2,1.4,2.6,2.5,3.1c2.3,0.9,4.8,1.4,7.2,1.9
		c4.3,1,6.6-0.6,6.8-5.2c0.2-4,1-7.9,1-11.9c0.1-7-1.5-9.4-8.1-11.2C554.9,364.5,550.7,364.3,546.7,363.7z"/>
</g>
</svg>
