<svg id="svg7997" xmlns="http://www.w3.org/2000/svg" viewBox="0 0 68.89 91.18"><defs><style>.cls-1{fill:#fff;}</style></defs><title>bitcointalk</title><g id="layer1"><g id="g3140"><g id="g3142"><g id="g3146"><g id="g3148"><path id="path3150" class="cls-1" d="M103.74,61.74C105.17,52.16,97.87,47,87.9,43.58l3.23-13-7.9-2L80.08,41.26c-2.08-.51-4.21-1-6.33-1.48l3.17-12.72-7.89-2-3.24,13c-1.72-.39-3.41-.78-5-1.18v0L49.86,34.12l-2.1,8.43S53.62,43.9,53.49,44c3.2.8,3.78,2.92,3.69,4.59L53.49,63.36a8.16,8.16,0,0,1,.82.26l-.83-.2L48.31,84.13A2.87,2.87,0,0,1,44.69,86c.08.12-5.74-1.43-5.74-1.43l-3.92,9,10.28,2.56c1.91.48,3.78,1,5.63,1.46l-3.27,13.12,7.89,2,3.24-13c2.16.58,4.25,1.12,6.3,1.63L61.87,114.3l7.9,2L73,103.16c13.47,2.55,23.6,1.52,27.87-10.66,3.43-9.81-.17-15.47-7.26-19.16,5.16-1.19,9-4.59,10.09-11.6Zm-18,25.31c-2.45,9.81-19,4.51-24.32,3.18l4.34-17.39C71.06,74.18,88.24,76.82,85.69,87.05ZM88.13,61.6c-2.23,8.93-16,4.39-20.44,3.28l3.93-15.77C76.08,50.22,90.45,52.29,88.13,61.6Z" transform="translate(-35.03 -25.09)"/></g></g></g></g></g></svg>