<svg id="Layer_1" data-name="Layer 1" xmlns="http://www.w3.org/2000/svg" viewBox="0 0 241.48 119.23"><defs><style>.cls-1{fill:#2a39a4;}</style></defs><title>Untitled-12</title><path class="cls-1" d="M710.22,417h41.91v8.21h-31v43.92h25.77v8.06H721.17v56.45H710.22Z" transform="translate(-710.22 -415.85)"/><path class="cls-1" d="M771,526.51q-6.48-8.57-6.48-24.69V417h10.66v85.1q0,11.53,4.1,17.86t15.05,6.34q10.5,0,14.83-6.41t4.32-17.79V417H824v84.82q0,15.84-6.69,24.55t-23,8.71Q777.48,535.08,771,526.51Z" transform="translate(-710.22 -415.85)"/><path class="cls-1" d="M847,526.66q-7.2-8.43-8.21-23.26l9.65-2.88q1.29,12.39,5.54,19t14,6.62q16.43,0,16.42-16.85a23.28,23.28,0,0,0-3.38-12.6,71.6,71.6,0,0,0-10.88-12.6l-20.59-19.72a37,37,0,0,1-8.06-11A29.64,29.64,0,0,1,839,440.9q0-11.94,7.2-18.5t19.58-6.55q12.81,0,19.58,6.91t7.92,22.61l-9.36,2.45q-.86-11.67-4.82-17.5t-12.89-5.83q-7.92,0-12.6,3.81t-4.68,11.6a19.82,19.82,0,0,0,1.87,8.64,32,32,0,0,0,6.34,8.35l20.59,19.44a72.38,72.38,0,0,1,12.46,15.41,32.87,32.87,0,0,1,4.53,16.84q0,12.68-7.34,19.59t-19.44,6.91Q854.22,535.08,847,526.66Z" transform="translate(-710.22 -415.85)"/><path class="cls-1" d="M909.23,417h42.19v8.5H920.31v43.77h25.35v8.07H920.31v48.09h31.4v8.21H909.23Z" transform="translate(-710.22 -415.85)"/></svg>