<svg id="Layer_1" data-name="Layer 1" xmlns="http://www.w3.org/2000/svg" viewBox="0 0 344.09 286.75"><defs><style>.cls-1{fill:#fff;}</style></defs><title>reddit</title><path class="cls-1" d="M379,410.18a18.91,18.91,0,0,1,1.29,6.94,22.14,22.14,0,0,1-4.34,13,20.67,20.67,0,0,1-11,7.78h0s-.07,0-.09,0h-.07a19.58,19.58,0,0,1-6.38,1.06,22.67,22.67,0,0,1-13.84-4.88,20.83,20.83,0,0,1-7.78-12.68h0a.11.11,0,0,0,0-.05.06.06,0,0,0,0-.05h0a19.11,19.11,0,0,1-.44-4A21.93,21.93,0,0,1,350.74,397h0l0,0a21.08,21.08,0,0,1,7.33-1.31,22.86,22.86,0,0,1,12.66,3.86A20.52,20.52,0,0,1,379,410a.41.41,0,0,1,0,.08.09.09,0,0,0,0,.07Zm-13.76,55.43a11,11,0,0,0-6-1.84,9.32,9.32,0,0,0-5.15,1.57,100.17,100.17,0,0,1-50.84,14.05,87.36,87.36,0,0,1-38.55-8.71l-.07,0-.05,0a41.79,41.79,0,0,1-6.12-3.81,23.49,23.49,0,0,0-3.66-2,11.13,11.13,0,0,0-4.31-.94,9.66,9.66,0,0,0-4,.89l-.21.08h0a9.62,9.62,0,0,0-4.78,4,11.53,11.53,0,0,0-.28,11.36,9.63,9.63,0,0,0,3.95,3.95c17.14,11.57,37.32,16.8,57.59,16.79a125.64,125.64,0,0,0,53-11.93l.08-.05.08-.05c2.16-1.28,5-2.42,7.73-4.09a17,17,0,0,0,3.77-3.12,11.63,11.63,0,0,0,2.52-4.7h0a9.2,9.2,0,0,0,.32-2.42,9.7,9.7,0,0,0-1-4.25,11.39,11.39,0,0,0-4.13-4.69ZM244.9,437.8a.19.19,0,0,1,.1,0,19.42,19.42,0,0,0,6.68,1.19,22.7,22.7,0,0,0,15.08-6,20.36,20.36,0,0,0,6.9-15c0-.15,0-.31,0-.5s0-.56,0-.86a20.48,20.48,0,0,0-6.82-15,22.45,22.45,0,0,0-15.06-6,19.74,19.74,0,0,0-4.5.52h-.08a21.86,21.86,0,0,0-16.3,14.6h0a0,0,0,0,1,0,0,20,20,0,0,0-1,6.32,22.36,22.36,0,0,0,4.17,12.85,20.62,20.62,0,0,0,10.76,7.85l.08,0Zm232.13-54v0c.05.76.06,1.51.06,2.25a42.47,42.47,0,0,1-7.15,23.21,46.58,46.58,0,0,1-16.56,15.35,80,80,0,0,1,.67,10,82.94,82.94,0,0,1-17,49.86h0c-20,26.57-50.65,42.24-81.62,50.15h0a214.67,214.67,0,0,1-50.57,6.06,199.91,199.91,0,0,1-74.42-14.07v0h0c-24.53-10.11-47.92-26.19-62.25-49.75a81,81,0,0,1-12-42.12,74.66,74.66,0,0,1,.67-10,48.12,48.12,0,0,1-16.2-14.95,44,44,0,0,1-7.6-22.55v-.13a44.21,44.21,0,0,1,12.73-30.34c7.74-8,18.32-13.25,29.66-13.25h.47c1.19-.08,2.39-.12,3.59-.12a46.85,46.85,0,0,1,16.83,3l0,0h0A56.39,56.39,0,0,1,209.68,354a38.5,38.5,0,0,1,4.4-2.1c24.85-14.72,53.73-20.39,81.88-22,.25-13.95,2-28.54,8.76-41.32,5.67-10.62,15.5-18.88,27.2-21.74l.05,0H332a69.91,69.91,0,0,1,13.41-1.27c11.9,0,23.65,2.82,34.65,7.22a43,43,0,0,1,20-16.3l.08-.05.07,0A50.47,50.47,0,0,1,415.15,254,38.63,38.63,0,0,1,431,257.24v0s0,0,0,0l.1,0a38.33,38.33,0,0,1,17.73,14.36,39.68,39.68,0,0,1,6.91,22.08,38,38,0,0,1-.25,4.39l0,0a.19.19,0,0,1,0,.08,38.42,38.42,0,0,1-13.38,25.65,41.24,41.24,0,0,1-26.8,10.33,36.28,36.28,0,0,1-4.75-.3A39.79,39.79,0,0,1,385,321.41,38.5,38.5,0,0,1,374,295c0-.49,0-1,.06-1.48-9.15-4.07-18.86-7.45-28.52-7.44-1.4,0-2.79.08-4.19.22h0a21.83,21.83,0,0,0-17.21,11.8v0c-4.94,9.63-5.93,20.88-6.08,32.05,27.72,1.81,55.59,8.46,80,22.52h0l.36.2c.46.28,1.32.74,2.09,1.16a47.74,47.74,0,0,1,5.49-4,45.07,45.07,0,0,1,25-7.39,47.26,47.26,0,0,1,11.59,1.46h0l.16.05a.7.7,0,0,0,.14,0h0a46.22,46.22,0,0,1,23.13,14.34,44,44,0,0,1,11,25.25v0Zm-81.63-90.7a11.37,11.37,0,0,0,.05,1.16v.06a18.54,18.54,0,0,0,5.91,12.61,18.87,18.87,0,0,0,12.75,5.38h.12c.34,0,.68,0,1,0A19.16,19.16,0,0,0,428.16,307a18.54,18.54,0,0,0,6-12.68v0c0-.37.05-.72.05-1.1a18.72,18.72,0,0,0-6-13.29,19.68,19.68,0,0,0-13.39-5.7,15.18,15.18,0,0,0-4.62.69h-.05l-.05,0a20.44,20.44,0,0,0-10.41,6.76,18,18,0,0,0-4.33,11.44ZM190.85,367.39a26.91,26.91,0,0,0-11.32-2.94,17.33,17.33,0,0,0-1.91.11h-.18a23.61,23.61,0,0,0-15,6.32,20.92,20.92,0,0,0-7.06,14.53v.1c0,.45-.06.91-.06,1.34a19.45,19.45,0,0,0,2.88,9.9,26.91,26.91,0,0,0,5.07,6.16c6.36-13.91,16.28-25.72,27.62-35.53Zm241.4,68.05c0-12.4-4.47-24.86-11.71-34.88-14.45-20.1-36.85-33.21-60.15-40.52l-.17-.05q-6.71-2.07-13.54-3.63A188.67,188.67,0,0,0,249.75,360c-23.31,7.39-45.78,20.41-60.19,40.57h0a60.5,60.5,0,0,0-11.58,35,51.57,51.57,0,0,0,1.79,13.62h0A67.54,67.54,0,0,0,194.17,476a102.81,102.81,0,0,0,23.34,19.87c1.9,1.18,3.8,2.3,5.75,3.39,24.88,13.89,53.52,20,82,20,4.81,0,9.64-.17,14.42-.52,28.64-2.36,57.4-10.82,80.64-28.09v0A90.64,90.64,0,0,0,420,470.94a63.52,63.52,0,0,0,11.2-25.1v0h0a50.19,50.19,0,0,0,1.07-10.36Zm22.61-49.35a18.47,18.47,0,0,0-2.21-8.8l0,0,0,0a21.5,21.5,0,0,0-9-9.43,26.64,26.64,0,0,0-24.42-.54C430.56,377.12,440.53,389,447,403a23.31,23.31,0,0,0,5.17-6.46,22.21,22.21,0,0,0,2.71-10.4Zm0,0" transform="translate(-133 -254)"/></svg>