<svg id="Layer_1" data-name="Layer 1" xmlns="http://www.w3.org/2000/svg" viewBox="0 0 25.15 25.16"><defs><style>.cls-1{fill:#fff;}</style></defs><title>001-slack</title><path class="cls-1" d="M318,396.86a2.2,2.2,0,0,0-2.91-1.11l-1.06.47-2.72-6.07,1.07-.47a2.2,2.2,0,0,0-1.8-4l-1.06.47-.48-1.06a2.2,2.2,0,1,0-4,1.8l.48,1.06-6.08,2.71-.47-1.05a2.2,2.2,0,1,0-4,1.79l.47,1.06-1.06.48a2.19,2.19,0,0,0-1.11,2.9,2.21,2.21,0,0,0,2.91,1.12l1.06-.48,2.72,6.08-1.06.47a2.2,2.2,0,0,0,1.8,4l1.06-.47.47,1.06a2.2,2.2,0,0,0,4-1.8l-.47-1.06,6.07-2.72.47,1.06a2.2,2.2,0,0,0,4-1.79l-.48-1.06,1.06-.48a2.2,2.2,0,0,0,1.11-2.91Zm-14.06,3.88-2.72-6.08,6.07-2.71L310,398Zm0,0" transform="translate(-293 -383.76)"/></svg>