<svg id="Layer_1" data-name="Layer 1" xmlns="http://www.w3.org/2000/svg" viewBox="0 0 266.57 224.58"><defs><style>.cls-1{fill:#fff;}</style></defs><title>004-telegram</title><path class="cls-1" d="M410.07,294.48l-243.8,95A8.89,8.89,0,0,0,167,406.3l62,18.29L252.06,498a10.63,10.63,0,0,0,17.74,4.24l32-32.7,62.84,46.13a13.12,13.12,0,0,0,20.6-7.89l41.63-199a12.54,12.54,0,0,0-16.84-14.25Zm-30.56,44.17L266.27,438.79a6.1,6.1,0,0,0-2,3.87l-4.36,38.76a1.17,1.17,0,0,1-2.29.22l-17.94-57.8a6.09,6.09,0,0,1,2.61-7L376,333.92a3,3,0,0,1,3.51,4.73Zm0,0" transform="translate(-160.61 -293.6)"/></svg>