<svg id="Layer_1" data-name="Layer 1" xmlns="http://www.w3.org/2000/svg" viewBox="0 0 268.01 217.72"><defs><style>.cls-1{fill:#fff;}</style></defs><title>01-twitter</title><path class="cls-1" d="M171.3,484.26A157,157,0,0,0,412.14,351.61q0-3.24-.12-6.45c3.13-2.47,22.52-18,27.28-28,0,0-15.75,6.54-31.16,8.08H408l.08-.05c1.42-.95,21.27-14.47,24-30.57a191,191,0,0,1-26.73,11.14c-2.58.86-5.28,1.71-8.07,2.49a55.08,55.08,0,0,0-93.85,50.09c-4.25-.17-69-3.81-113-57.14,0,0-26.32,35.94,15.69,72.88,0,0-12.77-.5-23.79-7.09,0,0-4,43.54,43.53,54.67,0,0-9.36,3.54-24.3,1,0,0,8.36,35.18,50.62,38.47,0,0-33.42,30.19-80.86,23.1Zm0,0" transform="translate(-171.29 -290.83)"/></svg>