<svg xmlns="http://www.w3.org/2000/svg" xmlns:xlink="http://www.w3.org/1999/xlink" width="14" height="20" viewBox="0 0 14 20"><defs><path id="xhxga" d="M49.01 688.99l-4.92 8.22-5.05-8.15A5.83 5.83 0 1 1 49 689zM44 679a7 7 0 0 0-5.95 10.68l5.55 8.96c.1.17.3.27.5.27s.4-.1.5-.28L50 689.6A7 7 0 0 0 44 679z"/><path id="xhxgb" d="M44 688.34a2.34 2.34 0 1 1 0-4.68 2.34 2.34 0 0 1 0 4.68zm0-5.84a3.5 3.5 0 1 0 .01 7.01 3.5 3.5 0 0 0-.01-7.01z"/></defs><g><g opacity=".6" transform="translate(-37 -679)"><use fill="#fff" xlink:href="#xhxga"/></g><g opacity=".6" transform="translate(-37 -679)"><use fill="#fff" xlink:href="#xhxgb"/></g></g></svg>