<svg xmlns="http://www.w3.org/2000/svg" xmlns:xlink="http://www.w3.org/1999/xlink" width="16" height="17" viewBox="0 0 16 17"><defs><path id="c7n2a" d="M49.86 629.72l-.42.42a9 9 0 0 0-.65.67c-.34.37-.74.54-1.27.54h-.16c-1-.07-1.93-.46-2.63-.8a14.98 14.98 0 0 1-4.99-3.9 13.74 13.74 0 0 1-2.43-4.05 4.85 4.85 0 0 1-.38-2.11c.04-.4.19-.73.47-1l1.15-1.16a.77.77 0 0 1 .51-.24c.22 0 .39.13.5.24l.62.6.32.34.92.92c.36.36.36.69 0 1.04l-.3.3c-.28.29-.55.56-.84.82-.01 0-.02 0-.02.02-.3.29-.24.57-.18.76l.01.03c.24.59.58 1.13 1.09 1.78a12.42 12.42 0 0 0 3.42 2.96 4 4 0 0 1 .37.2c.11.07.22.1.33.1.28 0 .46-.19.52-.24l1.16-1.16c.11-.11.3-.25.5-.25.22 0 .39.13.5.24v.01l1.86 1.86c.36.35.36.7.02 1.06zm-1.21-3.55a1.57 1.57 0 0 0-1.14-.52c-.42 0-.82.17-1.16.51l-1.07 1.07a15.86 15.86 0 0 0-.6-.31c-1-.64-1.9-1.46-2.77-2.54-.42-.53-.7-.98-.91-1.44.28-.25.53-.51.78-.76l.29-.3c.7-.7.7-1.62 0-2.33l-.93-.92-.31-.33c-.2-.2-.41-.42-.63-.62a1.6 1.6 0 0 0-1.14-.5c-.4 0-.8.17-1.14.5h-.01l-1.15 1.16c-.43.44-.68.96-.73 1.58a6 6 0 0 0 .43 2.5 14.53 14.53 0 0 0 2.58 4.31 15.9 15.9 0 0 0 5.3 4.15 8.3 8.3 0 0 0 3.18.89c.78 0 1.43-.28 1.95-.84l.01-.02c.18-.2.38-.4.6-.61l.43-.43c.33-.35.51-.76.51-1.17 0-.42-.18-.82-.52-1.16z"/><path id="c7n2b" d="M44.65 620.06a4.3 4.3 0 0 1 3.54 3.54c.03.22.22.38.44.38l.08-.01a.46.46 0 0 0 .37-.53 5.2 5.2 0 0 0-4.28-4.28.46.46 0 0 0-.16.9z"/><path id="c7n2c" d="M51.98 623.32a8.56 8.56 0 0 0-2.4-4.65 8.56 8.56 0 0 0-4.65-2.4.46.46 0 0 0-.52.37c-.04.25.13.48.38.52a7.68 7.68 0 0 1 6.3 6.3c.04.23.23.39.45.39l.07-.01a.46.46 0 0 0 .37-.52z"/></defs><g><g clip-path="url(#clip-f3af1b07-6206-41b9-a496-1eaff46545e4)" opacity=".6" transform="translate(-36 -616)"><use fill="#fff" xlink:href="#c7n2a"/></g><g clip-path="url(#clip-0b02d13d-f7c4-4175-9f39-f3de5cdbcf95)" opacity=".6" transform="translate(-36 -616)"><use fill="#fff" xlink:href="#c7n2b"/></g><g clip-path="url(#clip-09bb8496-db16-48dc-bd72-d4a50b2aaeaf)" opacity=".6" transform="translate(-36 -616)"><use fill="#fff" xlink:href="#c7n2c"/></g></g></svg>