<!DOCTYPE svg PUBLIC "-//W3C//DTD SVG 20010904//EN" "http://www.w3.org/TR/2001/REC-SVG-20010904/DTD/svg10.dtd">
<svg version="1.0" xmlns="http://www.w3.org/2000/svg" width="400px" height="347px" viewBox="0 0 4000 3470" preserveAspectRatio="xMidYMid meet">
<g id="layer101" fill="#ef7b8a" stroke="none">
 <path d="M3650 642 c0 -4 -17 -26 -39 -48 -21 -23 -42 -50 -45 -61 -5 -15 -14 -20 -29 -18 -12 2 -49 6 -82 10 -33 3 -89 13 -125 22 -45 11 -89 14 -143 9 -69 -5 -82 -3 -107 15 l-28 21 -30 -22 c-47 -35 -52 -72 -11 -85 20 -7 22 -14 19 -52 -1 -20 3 -23 34 -23 25 0 38 -6 46 -20 18 -34 95 -71 159 -77 105 -10 139 1 244 77 94 69 117 99 117 152 0 10 5 27 10 38 6 11 15 29 20 40 6 11 10 22 10 25 0 3 -4 5 -10 5 -5 0 -10 -4 -10 -8z m-460 -241 c0 -27 -13 -33 -47 -20 -27 10 -27 11 -9 25 28 20 56 18 56 -5z m160 -35 c0 -15 -21 -26 -51 -26 -24 0 -25 16 -1 29 25 15 52 13 52 -3z"/>
 </g>
<g id="layer102" fill="#f9a573" stroke="none">
 <path d="M3124 3011 c-22 -16 -47 -31 -55 -34 -9 -3 -6 -6 8 -6 12 -1 34 4 50 10 21 8 30 7 38 -3 19 -24 35 -19 35 12 0 46 -27 54 -76 21z"/>
 <path d="M2910 990 c0 -25 4 -31 18 -28 11 2 17 12 17 28 0 16 -6 26 -17 28 -14 3 -18 -3 -18 -28z"/>
 <path d="M3134 1006 c-18 -14 -18 -16 -2 -32 19 -19 108 -33 159 -26 30 4 49 38 34 61 -10 17 -167 14 -191 -3z"/>
 <path d="M3533 785 c-6 -6 -9 -23 -6 -36 6 -35 -24 -58 -88 -67 -57 -8 -79 -8 -304 6 -195 12 -220 0 -181 -90 8 -18 17 -41 20 -50 5 -15 10 -14 38 12 38 36 38 35 70 10 22 -17 36 -19 104 -14 55 5 99 2 144 -9 36 -9 92 -19 125 -22 33 -4 70 -8 82 -10 15 -2 24 3 29 18 3 11 24 38 45 61 50 51 50 63 0 57 -7 -2 -10 2 -7 8 4 5 3 34 0 65 -6 48 -10 56 -33 64 -18 6 -30 6 -38 -3z"/>
 </g>
<g id="layer103" fill="#e8cb69" stroke="none">
 <path d="M3235 3049 c-16 -4 -41 -6 -55 -3 l-25 5 23 -17 c14 -10 22 -27 22 -46 0 -16 -4 -27 -9 -24 -4 3 -23 -6 -41 -19 -19 -14 -41 -26 -49 -26 -9 -1 10 -5 42 -10 47 -7 62 -6 74 6 18 19 102 21 104 3 1 -7 1 -20 0 -29 -3 -31 49 -53 137 -57 55 -3 82 -1 82 6 0 29 -26 60 -71 85 -32 18 -55 39 -66 62 -11 23 -30 41 -60 55 -46 22 -62 23 -108 9z"/>
 <path d="M3575 1051 c-3 -2 -112 -6 -243 -8 -130 -2 -264 -5 -297 -6 -33 -1 -73 1 -89 3 -33 6 -48 -15 -16 -23 26 -7 27 -47 1 -54 -33 -9 -38 -141 -10 -255 l9 -37 33 13 c25 10 64 11 172 4 222 -14 247 -14 304 -6 64 9 94 32 88 67 -7 37 13 52 50 36 18 -8 36 -9 44 -4 8 5 26 9 40 9 26 0 26 1 33 94 6 94 0 132 -25 153 -15 11 -86 22 -94 14z m-250 -42 c15 -23 -4 -57 -34 -61 -51 -7 -140 7 -159 26 -16 16 -16 18 2 32 24 17 181 20 191 3z"/>
 </g>
<g id="layer104" fill="#c1b6a8" stroke="none">
 <path d="M3340 3131 c0 -10 -97 -37 -117 -33 -7 2 -18 -6 -24 -17 -7 -10 -19 -17 -26 -14 -7 3 -13 -1 -13 -8 0 -7 3 -9 7 -6 3 4 12 2 18 -3 8 -7 28 -7 61 1 44 10 54 9 95 -10 31 -15 51 -32 62 -56 11 -23 33 -44 67 -62 34 -19 54 -38 61 -58 14 -39 72 -66 112 -52 30 10 31 14 16 54 -11 29 -66 82 -86 83 -6 0 -15 5 -19 12 -5 7 -2 8 7 3 8 -5 11 -4 6 1 -5 5 -12 9 -17 9 -4 0 -16 9 -26 20 -11 12 -15 14 -10 5 6 -8 -14 10 -43 40 -76 79 -131 117 -131 91z m44 -47 c9 -3 16 -13 16 -21 0 -10 -6 -13 -16 -9 -9 3 -18 6 -20 6 -2 0 -4 7 -4 15 0 17 2 18 24 9z m110 -105 c25 -12 41 -37 31 -48 -10 -9 -60 23 -63 42 -4 20 -1 21 32 6z m133 -133 c-6 -19 -25 -17 -32 3 -10 31 5 48 22 25 7 -10 12 -23 10 -28z"/>
 <path d="M3011 3002 c-1 -29 -40 -69 -86 -88 l-35 -14 0 -723 c0 -815 -4 -1094 -19 -1217 -18 -140 -14 -245 9 -290 11 -22 20 -46 20 -53 0 -8 9 -26 20 -40 11 -14 23 -40 27 -59 8 -42 69 -114 77 -91 8 21 9 19 -24 53 -20 20 -30 41 -30 60 0 16 -6 44 -14 62 -40 93 -50 152 -49 291 1 83 6 143 12 151 8 10 8 16 -3 25 -18 15 -16 215 2 233 15 15 15 58 1 95 -15 37 -23 1399 -9 1408 6 3 10 17 10 29 0 33 36 53 122 71 75 16 123 42 123 66 0 20 -45 13 -70 -11 -31 -29 -44 -25 -65 23 -14 32 -19 37 -19 19z"/>
 <path d="M3220 2920 c-23 -15 2 -32 52 -36 43 -3 60 8 51 33 -6 15 -80 18 -103 3z"/>
 <path d="M558 2418 c-16 -5 -28 -14 -28 -19 0 -6 6 -7 13 -3 10 6 10 4 0 -7 -19 -20 -16 -27 20 -49 19 -12 50 -20 76 -20 51 0 50 11 0 12 -19 0 -47 10 -62 20 -26 18 -27 22 -14 42 8 11 30 24 48 27 34 6 34 6 4 7 -16 0 -42 -4 -57 -10z"/>
 <path d="M2525 2391 c-6 -11 56 -31 96 -31 27 0 54 22 42 33 -10 11 -131 8 -138 -2z"/>
 <path d="M650 2380 c0 -12 34 -12 70 0 20 7 16 8 -22 9 -27 1 -48 -3 -48 -9z"/>
 <path d="M2501 2341 c-9 -6 -1 -9 25 -9 30 0 34 2 19 9 -26 10 -28 10 -44 0z"/>
 <path d="M898 2323 c12 -2 32 -2 45 0 12 2 2 4 -23 4 -25 0 -35 -2 -22 -4z"/>
 <path d="M551 2233 c-29 -24 -36 -67 -14 -84 15 -13 15 -12 6 6 -16 28 9 73 45 81 45 10 48 12 16 13 -18 1 -41 -7 -53 -16z"/>
 <path d="M2525 2210 c-27 -4 -59 -10 -69 -15 -18 -8 -18 -9 0 -22 26 -19 184 -18 210 2 19 15 19 15 0 30 -21 16 -57 17 -141 5z"/>
 <path d="M600 2195 c-8 -10 -8 -15 2 -21 14 -9 1403 -14 1646 -6 153 5 202 15 130 26 -18 3 -423 8 -900 10 -723 4 -868 3 -878 -9z"/>
 <path d="M2562 2010 c-68 -16 -55 -33 33 -41 39 -3 75 9 75 26 0 24 -43 31 -108 15z"/>
 <path d="M620 1995 c0 -11 11 -15 38 -15 48 0 73 15 40 23 -42 12 -78 8 -78 -8z"/>
 <path d="M1130 1990 c0 -5 18 -10 40 -10 22 0 40 5 40 10 0 6 -18 10 -40 10 -22 0 -40 -4 -40 -10z"/>
 <path d="M2625 1821 c-4 -3 -459 -6 -1011 -7 -707 0 -1008 -4 -1015 -11 -35 -35 -13 -35 940 -28 515 3 950 7 966 7 17 0 62 -3 101 -7 74 -8 98 1 75 29 -14 16 -47 27 -56 17z"/>
 <path d="M2696 1771 c-4 -6 -34 -11 -66 -11 -32 0 -62 -4 -65 -10 -4 -6 21 -10 69 -10 73 0 99 11 78 32 -6 6 -12 6 -16 -1z"/>
 <path d="M2530 1659 c0 -5 31 -9 68 -9 40 0 75 -5 86 -13 24 -18 18 -61 -9 -64 -16 -1 -16 -1 -2 3 21 7 23 50 1 58 -25 9 -78 7 -113 -5 -51 -18 -40 -34 31 -48 l43 -9 -57 -1 c-89 -2 -78 -19 14 -23 104 -5 132 6 136 51 6 58 -18 72 -115 70 -46 -1 -83 -6 -83 -10z"/>
 <path d="M758 1635 c-4 -4 -38 -7 -77 -7 -48 1 -73 -3 -81 -13 -22 -26 0 -34 88 -33 48 1 462 1 921 0 711 -2 837 0 849 12 8 8 11 19 8 24 -4 7 -265 11 -804 12 -438 0 -819 3 -847 6 -27 3 -53 3 -57 -1z"/>
 <path d="M2483 1458 c3 -9 26 -12 78 -11 65 2 69 1 34 -7 -23 -5 -458 -9 -1006 -9 -531 0 -973 -3 -983 -7 -21 -8 -21 -31 2 -38 9 -3 179 -5 377 -4 198 1 605 0 905 -1 305 -1 558 2 575 7 21 6 52 5 95 -4 l65 -14 -72 5 c-76 5 -109 -8 -45 -19 20 -3 72 -6 116 -6 63 0 77 3 73 14 -3 8 -1 31 6 51 15 50 4 55 -121 55 -79 0 -103 -3 -99 -12z"/>
 <path d="M530 1408 c0 -25 17 -48 34 -48 6 0 5 5 -2 12 -7 7 -12 20 -12 29 0 10 -4 21 -10 24 -6 3 -10 -4 -10 -17z"/>
 <path d="M2505 1267 c22 -18 55 -22 55 -7 0 6 -6 10 -12 10 -7 0 -24 3 -38 6 -24 6 -25 6 -5 -9z"/>
 <path d="M553 1250 c-20 -12 -33 -28 -33 -40 0 -21 28 -40 57 -39 11 0 6 5 -12 11 -16 6 -31 12 -33 14 -10 7 21 43 50 57 18 9 26 17 18 17 -8 0 -30 -9 -47 -20z"/>
 <path d="M973 1263 c9 -2 25 -2 35 0 9 3 1 5 -18 5 -19 0 -27 -2 -17 -5z"/>
 <path d="M2238 1263 c17 -2 47 -2 65 0 17 2 3 4 -33 4 -36 0 -50 -2 -32 -4z"/>
 <path d="M2610 1235 c-20 -8 -56 -11 -85 -9 -54 5 -91 -9 -66 -25 7 -5 57 -12 111 -16 124 -8 166 8 124 49 -18 19 -37 19 -84 1z"/>
 <path d="M619 1228 c-12 -5 -19 -14 -17 -20 4 -10 193 -14 897 -16 504 -1 899 2 908 7 47 26 -46 29 -895 33 -480 2 -882 0 -893 -4z"/>
 <path d="M612 1168 c-9 -4 33 -6 93 -6 110 1 105 5 -13 10 -35 2 -71 0 -80 -4z"/>
 <path d="M2398 1163 c12 -2 30 -2 40 0 9 3 -1 5 -23 4 -22 0 -30 -2 -17 -4z"/>
 <path d="M2488 1163 c17 -2 47 -2 65 0 17 2 3 4 -33 4 -36 0 -50 -2 -32 -4z"/>
 <path d="M910 920 c-13 -9 -13 -10 0 -9 8 1 26 5 40 9 l25 8 -25 1 c-14 0 -32 -4 -40 -9z"/>
 <path d="M2333 896 c21 -32 21 -50 1 -81 -18 -28 -16 -30 21 -13 50 23 39 109 -15 116 -23 4 -23 3 -7 -22z"/>
 <path d="M1060 889 c-19 -4 -56 -5 -82 -2 -53 6 -69 -8 -49 -45 10 -19 25 -20 694 -18 564 1 687 3 700 15 21 17 21 25 1 46 -14 14 -78 16 -623 14 -333 -1 -622 -5 -641 -10z"/>
 <path d="M2068 793 c12 -2 32 -2 45 0 12 2 2 4 -23 4 -25 0 -35 -2 -22 -4z"/>
 <path d="M3617 778 c-13 -10 -16 -26 -14 -70 1 -32 4 -58 7 -58 22 1 60 72 60 114 0 29 -24 35 -53 14z"/>
 <path d="M3691 763 c-1 -18 -9 -48 -18 -68 -16 -34 -14 -53 5 -41 17 10 33 93 23 118 -9 21 -10 21 -10 -9z"/>
 </g>
<g id="layer105" fill="#d0bbbb" stroke="none">
 <path d="M3039 2961 c14 -25 33 -27 51 -6 10 12 10 15 -1 15 -8 0 -25 3 -38 7 -21 5 -22 4 -12 -16z"/>
 <path d="M611 2421 c-19 -3 -40 -16 -48 -27 -13 -20 -12 -24 15 -42 16 -12 37 -22 48 -22 10 -1 381 -3 824 -6 751 -5 1018 1 1064 21 13 6 17 5 13 -2 -5 -7 0 -9 13 -6 11 3 20 0 20 -6 0 -17 121 -14 144 4 22 17 25 73 4 86 -14 10 -2043 9 -2097 0z m2052 -28 c12 -11 -15 -33 -42 -33 -40 0 -102 20 -96 31 7 10 128 13 138 2z m-1943 -13 c-36 -12 -70 -12 -70 0 0 6 21 10 48 9 38 -1 42 -2 22 -9z"/>
 <path d="M625 2245 c-5 -2 -23 -6 -38 -9 -16 -4 -32 -17 -39 -31 -6 -14 -16 -21 -22 -18 -14 8 13 -28 33 -44 20 -18 2097 -19 2135 -1 29 13 35 52 13 82 -12 16 -78 17 -1042 21 -567 1 -1034 2 -1040 0z m2041 -40 c19 -15 19 -15 0 -30 -26 -20 -184 -21 -210 -2 -18 13 -18 14 0 22 53 23 184 29 210 10z m-288 -11 c72 -11 23 -21 -130 -26 -243 -8 -1632 -3 -1646 6 -10 6 -10 11 -2 21 10 12 155 13 878 9 477 -2 882 -7 900 -10z"/>
 <path d="M584 2038 c-35 -9 -53 -26 -49 -46 2 -9 4 -20 4 -24 1 -4 8 -14 17 -22 14 -14 127 -16 1072 -16 l1056 0 23 22 c26 24 30 60 9 77 -11 9 -274 13 -1060 14 -576 1 -1058 -1 -1072 -5z m2070 -24 c23 -9 20 -31 -6 -40 -29 -10 -113 -3 -126 11 -19 19 94 44 132 29z m-1956 -11 c33 -8 8 -23 -40 -23 -27 0 -38 4 -38 15 0 16 36 20 78 8z m512 -13 c0 -5 -18 -10 -40 -10 -22 0 -40 5 -40 10 0 6 18 10 40 10 22 0 40 -4 40 -10z"/>
 <path d="M555 1836 c-31 -31 -32 -60 -3 -80 20 -14 133 -16 1015 -16 650 0 994 3 998 10 3 6 33 10 65 10 32 0 62 5 65 10 5 8 11 7 21 -1 24 -20 18 47 -7 70 -20 18 -47 19 -1075 20 l-1054 2 -25 -25z m2126 -32 c23 -28 -1 -37 -75 -29 -39 4 -84 7 -101 7 -16 0 -451 -4 -966 -7 -953 -7 -975 -7 -940 28 7 7 308 11 1015 11 552 1 1007 4 1011 7 9 10 42 -1 56 -17z"/>
 <path d="M637 1662 c-78 -2 -89 -5 -102 -26 -18 -27 -7 -69 20 -80 29 -11 1953 -7 1960 4 3 6 32 10 63 11 l57 1 -43 9 c-71 14 -82 30 -31 48 35 12 88 14 113 5 22 -8 20 -51 -1 -58 -14 -4 -14 -4 2 -3 27 3 33 46 9 64 -11 8 -46 13 -86 13 -37 0 -68 3 -68 8 0 6 -1697 11 -1893 4z m1025 -32 c539 -1 800 -5 804 -12 3 -5 0 -16 -8 -24 -12 -12 -138 -14 -849 -12 -459 1 -873 1 -921 0 -88 -1 -110 7 -88 33 8 10 33 14 81 13 39 0 73 3 77 7 4 4 30 4 57 1 28 -3 409 -6 847 -6z"/>
 <path d="M620 1460 c-14 -4 -38 -11 -53 -14 -30 -7 -31 -21 -5 -73 l11 -22 942 -1 c829 0 944 2 955 15 10 12 28 14 84 10 l71 -5 -65 14 c-43 9 -74 10 -95 4 -17 -5 -270 -8 -575 -7 -300 1 -707 2 -905 1 -198 -1 -368 1 -377 4 -23 7 -23 30 -2 38 10 4 452 7 983 7 567 0 983 3 1006 9 33 8 27 9 -33 5 -53 -4 -74 -2 -77 7 -4 10 -196 13 -923 15 -504 1 -928 -2 -942 -7z"/>
 <path d="M2710 1435 c0 -15 -3 -16 -12 -7 -7 7 -16 12 -22 12 -5 0 -2 -6 7 -13 11 -7 16 -22 15 -37 -2 -17 2 -25 12 -25 18 0 27 62 11 78 -8 8 -11 6 -11 -8z"/>
 <path d="M2468 1274 c-3 -3 -422 -5 -931 -6 -784 0 -930 -2 -954 -15 -27 -13 -53 -40 -53 -54 0 -7 69 -26 105 -30 86 -8 2046 -6 2072 2 37 12 46 30 33 64 -14 38 -48 49 -106 36 -93 -22 -104 -22 -126 -7 -24 17 -32 19 -40 10z m226 -40 c42 -41 0 -57 -124 -49 -54 4 -104 11 -111 16 -25 16 12 30 66 25 29 -2 65 1 85 9 47 18 66 18 84 -1z m-290 -16 c17 -9 17 -11 3 -19 -9 -5 -404 -8 -908 -7 -704 2 -893 6 -897 16 -2 6 5 15 17 20 32 11 1762 2 1785 -10z"/>
 <path d="M932 916 c-43 -9 -43 -10 -38 -45 3 -20 5 -41 6 -46 1 -33 51 -35 738 -34 l681 1 16 24 c20 30 19 54 -3 82 l-18 24 -670 1 c-369 1 -689 -2 -712 -7z m1392 -31 c20 -21 20 -29 -1 -46 -13 -12 -136 -14 -700 -15 -669 -2 -684 -1 -694 18 -20 37 -4 51 49 45 26 -3 63 -2 82 2 19 5 308 9 641 10 545 2 609 0 623 -14z"/>
 <path d="M3670 763 c0 -16 -6 -39 -13 -53 -23 -45 -27 -60 -14 -60 15 0 47 76 47 113 0 15 -4 27 -10 27 -5 0 -10 -12 -10 -27z"/>
 <path d="M2971 528 c-1 -15 50 -78 63 -78 13 0 -8 30 -24 35 -10 3 -23 18 -29 33 -6 17 -10 20 -10 10z"/>
 <path d="M3134 406 c-18 -14 -18 -15 9 -25 34 -13 47 -7 47 20 0 23 -28 25 -56 5z"/>
 <path d="M3298 369 c-24 -13 -23 -29 1 -29 30 0 51 11 51 26 0 16 -27 18 -52 3z"/>
 </g>
<g id="layer106" fill="#6fce79" stroke="none">
 <path d="M3247 3140 c3 -12 -1 -22 -11 -26 -9 -3 -13 -10 -10 -15 3 -5 12 -5 22 0 9 4 33 11 54 15 70 13 50 46 -29 46 -26 0 -30 -3 -26 -20z"/>
 <path d="M3029 2900 c-67 -9 -109 -34 -109 -66 0 -12 -4 -26 -10 -29 -14 -9 -6 -1371 9 -1408 14 -37 14 -80 -1 -95 -7 -7 -12 -51 -14 -116 -1 -99 0 -106 23 -128 21 -20 34 -22 96 -21 68 1 510 13 590 16 27 1 44 -5 60 -21 20 -21 22 -31 19 -115 -1 -51 1 -108 5 -127 l6 -35 8 45 c13 77 10 190 -5 218 -23 44 -36 470 -36 1170 0 347 -3 632 -7 631 -5 0 -17 -4 -28 -8 -12 -5 -28 -4 -40 3 -11 6 -65 13 -120 16 -86 6 -106 10 -139 32 -21 15 -44 24 -50 22 -7 -3 -39 2 -71 11 -62 16 -95 17 -186 5z"/>
 </g>
<g id="layer107" fill="#f8ede4" stroke="none">
 <path d="M393 3238 c-21 -18 -46 -38 -57 -43 -10 -6 -27 -31 -37 -57 -17 -43 -18 -116 -18 -1359 l0 -1314 26 -45 c44 -78 61 -87 171 -94 113 -8 2195 -7 2325 1 84 5 90 7 135 44 26 22 52 39 59 39 20 0 15 14 -16 44 -16 15 -31 42 -34 62 -3 19 -15 46 -26 61 -12 14 -21 32 -21 40 0 7 -9 31 -20 53 -23 45 -27 150 -9 290 15 123 19 402 19 1217 l0 723 35 14 c19 8 46 26 60 40 28 28 34 76 10 76 -16 0 -16 0 -20 79 -2 47 -6 57 -31 75 -16 11 -44 35 -63 53 l-34 33 -1209 0 -1208 0 -37 -32z m2326 -827 c12 -12 17 -27 14 -40 -13 -49 24 -48 -1093 -50 -1033 -2 -1045 -2 -1077 18 -43 27 -45 65 -5 79 17 7 403 11 1085 11 1031 1 1057 1 1076 -18z m-5 -194 c22 -30 15 -60 -20 -75 -18 -9 -305 -12 -1077 -12 -936 0 -1055 2 -1075 16 -29 20 -28 49 3 79 l24 25 1063 -4 1063 -5 19 -24z m2 -188 c20 -17 17 -49 -8 -76 l-21 -23 -1059 0 c-1055 0 -1058 0 -1079 21 -30 30 -22 71 17 84 47 15 2131 10 2150 -6z m-7 -190 c23 -22 28 -68 9 -87 -9 -9 -262 -12 -1078 -12 -948 0 -1068 2 -1088 16 -29 20 -28 49 3 80 l25 25 1054 -1 c1033 -1 1054 -2 1075 -21z m5 -188 c22 -18 25 -60 7 -82 -16 -19 -31 -20 -1083 -19 -587 0 -1074 3 -1083 6 -27 11 -38 53 -20 80 20 30 -26 29 1177 28 739 -1 991 -4 1002 -13z m1 -201 c22 -18 20 -77 -3 -89 -12 -6 -406 -10 -1078 -11 -949 0 -1061 1 -1081 15 -49 35 -22 80 57 96 19 3 497 6 1062 4 820 -1 1030 -4 1043 -15z m-175 -180 c24 -7 53 -7 91 1 65 13 94 3 109 -37 14 -35 3 -52 -39 -64 -57 -17 -2129 -9 -2158 8 -31 17 -29 48 4 69 25 17 90 18 978 23 522 3 957 6 965 8 8 1 31 -3 50 -8z m-167 -371 c18 -22 22 -56 9 -75 -22 -33 -49 -34 -755 -34 -658 0 -705 1 -719 18 -26 29 -30 80 -9 101 17 17 53 18 737 15 l719 -3 18 -22z"/>
 <path d="M3360 3075 c0 -8 2 -15 4 -15 2 0 11 -3 20 -6 10 -4 16 -1 16 9 0 8 -7 18 -16 21 -22 9 -24 8 -24 -9z"/>
 <path d="M3462 2973 c3 -19 53 -51 63 -42 10 11 -6 36 -31 48 -33 15 -36 14 -32 -6z"/>
 <path d="M3596 2881 c-10 -15 3 -53 17 -48 17 5 18 21 4 41 -10 13 -16 16 -21 7z"/>
 </g>

</svg>