<!DOCTYPE svg PUBLIC "-//W3C//DTD SVG 20010904//EN" "http://www.w3.org/TR/2001/REC-SVG-20010904/DTD/svg10.dtd">
<svg version="1.0" xmlns="http://www.w3.org/2000/svg" width="178px" height="65px" viewBox="0 0 1780 650" preserveAspectRatio="xMidYMid meet">
<g id="layerbg1" fill="#121f27" stroke="none">
 <path d="M223 623 c12 -11 75 -14 82 -3 4 6 -11 10 -41 10 -26 0 -44 -3 -41 -7z"/>
 <path d="M458 123 c-8 -14 -3 -38 7 -41 12 -3 16 36 4 43 -4 3 -9 2 -11 -2z"/>
 </g>
<g id="layerbg2" fill="#abb3b7" stroke="none">
 <path d="M655 521 c-7 -13 17 -24 40 -19 9 1 16 8 16 13 0 14 -48 19 -56 6z"/>
 <path d="M1145 521 c-3 -5 -2 -12 3 -15 12 -7 62 -1 65 9 3 11 -61 17 -68 6z"/>
 <path d="M115 460 c-4 -6 -4 -14 -1 -17 3 -3 1 -12 -5 -19 -6 -8 -6 -14 0 -18 5 -4 12 -2 16 4 3 5 3 10 -1 10 -3 0 -1 7 6 15 9 11 10 19 3 26 -8 8 -13 7 -18 -1z"/>
 <path d="M125 330 c-9 -10 -14 -24 -10 -30 9 -15 27 -1 21 17 -3 8 -2 11 3 8 5 -3 12 -1 15 4 12 19 -12 20 -29 1z"/>
 <path d="M706 131 c-21 -23 -6 -36 20 -16 14 10 16 17 8 25 -7 7 -15 5 -28 -9z"/>
 </g>
<g id="layerbg3" fill="#d6dee3" stroke="none">
 <path d="M867 543 c-8 -15 -2 -98 8 -100 12 -3 16 95 4 102 -4 3 -10 2 -12 -2z"/>
 <path d="M1335 490 c-8 -13 20 -24 40 -16 8 3 14 1 12 -3 -2 -8 3 -11 20 -11 3 0 -2 9 -12 20 -19 21 -50 26 -60 10z"/>
 <path d="M1655 470 c-3 -6 0 -12 7 -15 18 -7 49 0 49 10 0 13 -48 17 -56 5z"/>
 <path d="M979 459 c-10 -47 3 -73 20 -40 8 14 7 22 -4 31 -8 7 -15 11 -16 9z"/>
 <path d="M108 403 c-8 -15 -3 -53 7 -53 11 0 15 49 4 56 -4 2 -9 1 -11 -3z"/>
 <path d="M416 281 c-10 -11 -13 -22 -8 -25 5 -3 17 3 26 13 10 11 13 22 8 25 -5 3 -17 -3 -26 -13z"/>
 </g>
<g id="layerbg4" fill="#b4bdc3" stroke="none">
 <path d="M1065 548 c-8 -24 0 -128 10 -126 13 4 17 125 5 133 -6 4 -12 0 -15 -7z"/>
 <path d="M475 460 c-4 -6 -1 -18 7 -27 7 -9 12 -18 11 -20 -2 -1 -1 -3 2 -3 3 0 8 0 12 0 4 0 2 5 -4 11 -6 6 -9 17 -7 24 7 16 -12 29 -21 15z"/>
 <path d="M716 322 c-3 -5 3 -17 13 -26 11 -10 22 -13 25 -8 3 5 -3 17 -13 26 -11 10 -22 13 -25 8z"/>
 </g>
<g id="layerbg5" fill="#bcc6ca" stroke="none">
 <path d="M406 571 c-10 -11 -13 -22 -8 -25 5 -3 17 3 26 13 10 11 13 22 8 25 -5 3 -17 -3 -26 -13z"/>
 <path d="M496 351 c-10 -11 -13 -22 -8 -25 5 -3 17 3 26 13 10 11 13 22 8 25 -5 3 -17 -3 -26 -13z"/>
 <path d="M166 292 c-3 -5 3 -17 13 -26 11 -10 22 -13 25 -8 3 5 -3 17 -13 26 -11 10 -22 13 -25 8z"/>
 <path d="M365 251 c-3 -5 -2 -12 3 -15 12 -7 47 -1 47 9 0 12 -43 16 -50 6z"/>
 <path d="M226 231 c-10 -11 -13 -22 -8 -25 5 -3 17 3 26 13 10 11 13 22 8 25 -5 3 -17 -3 -26 -13z"/>
 <path d="M275 229 c-7 -10 5 -16 27 -15 10 1 18 6 18 11 0 12 -38 16 -45 4z"/>
 <path d="M759 213 c-4 -29 -3 -39 4 -50 5 -7 13 -10 19 -7 5 3 4 11 -2 19 -7 8 -9 19 -6 24 4 5 2 12 -4 16 -5 3 -11 3 -11 -2z"/>
 <path d="M395 180 c-3 -5 -1 -11 5 -15 5 -3 10 -3 10 1 0 3 6 1 14 -5 9 -8 16 -8 20 -2 7 10 -10 24 -31 27 -7 1 -15 -2 -18 -6z"/>
 </g>
<g id="layerbg6" fill="#687378" stroke="none">
 <path d="M1090 551 c-5 -11 -6 -22 -1 -25 11 -7 43 28 34 37 -11 12 -22 8 -33 -12z"/>
 <path d="M1215 560 c-8 -12 20 -24 35 -15 6 3 8 11 5 16 -8 12 -32 12 -40 -1z"/>
 <path d="M1395 560 c-8 -12 20 -24 35 -15 6 3 8 11 5 16 -8 12 -32 12 -40 -1z"/>
 <path d="M98 503 c-10 -19 -1 -38 17 -38 11 0 20 -6 20 -12 0 -7 3 -13 8 -13 7 0 8 4 6 15 -1 3 -2 11 -3 18 -1 6 -10 11 -20 9 -10 -2 -15 1 -12 7 4 5 2 12 -3 15 -5 4 -11 3 -13 -1z"/>
 <path d="M1157 488 c-23 -12 -11 -31 11 -19 9 5 20 9 25 10 4 1 8 4 10 8 4 10 -28 11 -46 1z"/>
 <path d="M1605 480 c-3 -5 -3 -10 1 -10 4 0 -1 -9 -10 -19 -18 -19 -13 -28 14 -27 9 1 15 12 16 29 1 29 -10 44 -21 27z"/>
 <path d="M605 331 c-7 -13 7 -20 31 -17 10 2 24 -1 31 -6 7 -5 14 -5 18 2 3 5 4 11 1 11 -17 4 -26 7 -28 8 -10 8 -48 9 -53 2z"/>
 <path d="M376 192 c-9 -15 21 -49 34 -36 7 7 5 15 -9 28 -10 9 -22 13 -25 8z"/>
 <path d="M721 156 c-14 -17 -1 -29 16 -15 13 11 14 10 17 -11 0 -5 4 -10 9 -10 4 0 10 0 13 0 4 0 2 6 -4 13 -6 6 -10 16 -9 21 3 14 -31 16 -42 2z"/>
 <path d="M414 46 c-3 -9 -10 -14 -14 -11 -5 3 -11 1 -15 -5 -4 -6 6 -10 24 -10 35 0 47 13 26 30 -12 10 -16 9 -21 -4z"/>
 </g>
<g id="layerbg7" fill="#727d83" stroke="none">
 <path d="M1286 561 c-3 -5 5 -16 19 -25 29 -19 48 0 20 21 -22 15 -32 16 -39 4z"/>
 <path d="M1655 561 c-7 -13 17 -24 40 -19 9 1 16 8 16 13 0 14 -48 19 -56 6z"/>
 <path d="M1204 546 c-4 -10 -2 -22 4 -28 8 -8 13 -7 18 6 4 10 2 22 -4 28 -8 8 -13 7 -18 -6z"/>
 <path d="M1245 548 c-9 -22 -1 -108 10 -108 13 0 18 107 5 115 -5 3 -12 0 -15 -7z"/>
 <path d="M1197 460 c-11 -20 -12 -32 -5 -36 12 -8 38 22 38 42 0 26 -19 23 -33 -6z"/>
 <path d="M780 434 c-9 -10 -10 -18 -3 -25 8 -8 14 -5 22 9 13 25 -2 38 -19 16z"/>
 <path d="M435 310 c-14 -15 -14 -19 -1 -29 12 -10 17 -8 26 8 6 12 15 20 19 18 5 -1 8 2 8 8 -3 16 -36 13 -52 -5z"/>
 <path d="M425 240 c-13 -14 -15 -24 -8 -31 7 -7 15 -2 26 15 21 31 6 43 -18 16z"/>
 <path d="M386 191 c-7 -10 39 -43 48 -34 3 3 1 14 -5 24 -10 20 -34 25 -43 10z"/>
 <path d="M725 151 c-4 -8 -1 -19 8 -28 19 -20 30 -1 13 22 -10 14 -15 15 -21 6z"/>
 <path d="M334 126 c-8 -21 3 -49 16 -41 5 3 10 15 10 25 0 25 -18 36 -26 16z"/>
 </g>
<g id="layerbg8" fill="#525d64" stroke="none">
 <path d="M708 494 c-4 -4 -2 -16 4 -28 6 -11 11 -22 10 -23 -1 -2 1 -2 5 0 12 4 12 25 -1 42 -6 9 -15 13 -18 9z"/>
 <path d="M874 466 c-4 -10 -2 -22 4 -28 8 -8 13 -7 18 6 4 10 2 22 -4 28 -8 8 -13 7 -18 -6z"/>
 <path d="M1655 461 c-7 -13 17 -24 40 -19 9 1 16 8 16 13 0 14 -48 19 -56 6z"/>
 <path d="M934 448 c-12 -17 -12 -54 1 -50 6 2 9 8 7 14 -1 5 2 7 7 4 16 -10 21 10 8 28 -11 15 -15 15 -23 4z"/>
 <path d="M1595 431 c-10 -17 15 -45 29 -31 7 7 5 15 -6 26 -11 11 -18 13 -23 5z"/>
 <path d="M98 383 c-4 -8 -3 -28 2 -38 1 -3 3 -9 4 -15 0 -5 4 -10 9 -10 4 0 10 0 13 0 4 0 2 6 -3 13 -6 6 -9 20 -8 29 3 18 -11 34 -17 21z"/>
 <path d="M716 332 c-3 -5 5 -19 18 -31 13 -13 26 -18 30 -13 3 5 -5 19 -18 31 -13 13 -26 18 -30 13z"/>
 <path d="M545 300 c-3 -4 1 -13 9 -19 10 -9 16 -8 26 4 7 8 11 15 9 16 -31 6 -40 6 -44 -1z"/>
 <path d="M455 250 c-3 -5 3 -14 14 -20 20 -10 41 3 27 18 -10 10 -35 11 -41 2z"/>
 <path d="M776 183 c-4 -5 -12 -8 -17 -8 -5 0 -8 -4 -6 -10 3 -12 36 -14 44 -2 7 12 -11 30 -21 20z"/>
 <path d="M729 94 c-7 -8 -22 -14 -33 -13 -12 0 -25 0 -31 -1 -5 -1 -22 -3 -37 -4 -16 0 -28 -5 -28 -11 0 -13 48 -17 55 -4 4 5 14 5 26 -1 12 -7 25 -7 37 -1 27 14 45 38 34 45 -6 3 -15 -1 -23 -10z"/>
 <path d="M444 59 c-11 -18 6 -29 27 -18 12 6 18 13 15 17 -11 10 -36 11 -42 1z"/>
 </g>
<g id="layerbg9" fill="#cad2d6" stroke="none">
 <path d="M1037 553 c-8 -16 -2 -113 8 -115 12 -3 16 110 4 118 -4 2 -9 1 -12 -3z"/>
 <path d="M835 538 c-9 -24 -1 -103 10 -103 14 0 19 95 6 108 -7 7 -12 5 -16 -5z"/>
 <path d="M755 528 c-8 -23 0 -113 10 -113 13 0 17 112 5 120 -6 4 -12 0 -15 -7z"/>
 <path d="M1327 494 c-3 -4 -2 -15 4 -26 12 -23 64 -22 65 2 1 25 -7 32 -22 19 -10 -8 -18 -9 -27 0 -8 6 -17 8 -20 5z"/>
 <path d="M1624 489 c-6 -11 7 -17 33 -14 12 1 25 -5 28 -12 7 -19 24 -7 21 15 -2 12 -13 17 -40 18 -20 0 -39 -3 -42 -7z"/>
 <path d="M117 443 c-4 -3 -1 -13 6 -21 8 -11 8 -14 0 -9 -6 4 -14 3 -17 -2 -12 -19 12 -20 28 -2 14 15 14 20 3 29 -8 7 -17 9 -20 5z"/>
 <path d="M505 291 c-6 -11 1 -15 19 -12 5 1 4 -4 -3 -13 -7 -8 -8 -17 -3 -20 6 -3 15 0 21 8 8 10 6 17 -8 30 -12 11 -21 14 -26 7z"/>
 <path d="M456 261 c-10 -11 -13 -22 -8 -25 5 -3 17 3 26 13 10 11 13 22 8 25 -5 3 -17 -3 -26 -13z"/>
 <path d="M259 219 c-11 -21 6 -36 18 -16 4 7 18 13 31 13 36 -1 30 17 -6 19 -23 1 -36 -4 -43 -16z"/>
 <path d="M508 154 c-4 -4 -3 -15 3 -26 6 -11 13 -17 16 -14 4 3 12 1 19 -5 8 -7 14 -7 19 1 6 10 5 11 -15 14 -5 0 -15 9 -22 19 -8 10 -17 15 -20 11z"/>
 <path d="M744 135 c-4 -9 -12 -14 -19 -11 -19 7 -51 -19 -36 -28 6 -4 18 -2 26 4 8 6 19 9 24 6 6 -4 15 2 21 13 7 13 7 22 0 26 -6 3 -13 -1 -16 -10z"/>
 <path d="M615 90 c-7 -11 35 -31 49 -22 5 3 1 11 -9 19 -22 16 -32 16 -40 3z"/>
 </g>
<g id="layerbg10" fill="#5a666b" stroke="none">
 <path d="M265 620 c-9 -14 10 -20 46 -16 19 2 49 -2 66 -9 38 -16 55 -2 21 16 -28 15 -125 21 -133 9z"/>
 <path d="M875 538 c-9 -22 -2 -68 10 -71 14 -3 19 63 6 76 -7 7 -12 5 -16 -5z"/>
 <path d="M669 497 c0 -1 -2 -12 -5 -24 -5 -28 16 -42 23 -15 3 12 11 18 19 15 7 -3 12 -9 11 -13 -1 -4 2 -10 8 -11 5 -2 10 7 10 20 0 20 -5 25 -32 27 -18 1 -33 2 -34 1z"/>
 <path d="M95 408 c-7 -19 0 -53 10 -51 13 4 17 51 5 58 -6 3 -12 0 -15 -7z"/>
 <path d="M487 404 c-9 -9 -9 -48 0 -57 3 -4 13 -1 21 6 8 6 18 11 21 10 3 -2 6 2 6 7 0 6 -3 9 -7 8 -4 -2 -13 5 -20 15 -8 10 -17 15 -21 11z"/>
 <path d="M627 364 c-3 -3 -3 -13 0 -21 4 -9 1 -13 -8 -11 -8 2 -16 -1 -17 -7 -1 -5 7 -9 18 -9 11 0 20 4 21 9 0 6 5 15 10 21 13 16 -9 33 -24 18z"/>
 <path d="M460 291 c-8 -17 -6 -25 10 -41 11 -11 26 -18 32 -14 7 5 5 11 -7 20 -10 7 -15 20 -12 28 9 24 -11 29 -23 7z"/>
 <path d="M440 235 c-7 -8 -16 -13 -20 -10 -5 3 -11 1 -14 -4 -4 -5 -2 -12 4 -16 6 -4 8 -10 5 -15 -3 -5 -1 -11 4 -14 5 -4 12 -2 15 3 4 5 2 12 -4 16 -6 4 -8 11 -4 16 3 5 9 7 14 4 4 -3 13 2 19 9 7 8 8 17 3 20 -6 3 -15 -1 -22 -9z"/>
 <path d="M515 228 c-7 -19 0 -53 10 -51 13 4 17 51 5 58 -6 3 -12 0 -15 -7z"/>
 <path d="M774 216 c-8 -21 3 -49 16 -41 5 3 10 15 10 25 0 25 -18 36 -26 16z"/>
 <path d="M255 200 c-3 -5 -2 -11 2 -13 14 -8 63 -2 66 8 3 12 -61 17 -68 5z"/>
 <path d="M330 141 c-5 -11 -6 -22 -1 -25 11 -7 43 28 34 37 -11 12 -22 8 -33 -12z"/>
 <path d="M444 65 c-10 -8 -17 -15 -14 -15 31 -7 41 -7 46 2 12 19 -11 29 -32 13z"/>
 </g>
<g id="layerbg11" fill="#8a9397" stroke="none">
 <path d="M436 572 c-3 -5 3 -17 13 -26 11 -10 22 -13 25 -8 3 5 -3 17 -13 26 -11 10 -22 13 -25 8z"/>
 <path d="M1426 552 c-4 -7 -9 -130 -6 -157 0 -5 7 -1 15 9 17 22 21 141 6 151 -5 3 -12 2 -15 -3z"/>
 <path d="M416 542 c-3 -5 3 -17 13 -26 11 -10 22 -13 25 -8 3 5 -3 17 -13 26 -11 10 -22 13 -25 8z"/>
 <path d="M1494 536 c-4 -10 -2 -22 4 -28 8 -8 13 -7 18 6 4 10 2 22 -4 28 -8 8 -13 7 -18 -6z"/>
 <path d="M1645 449 c-10 -15 26 -31 59 -27 27 3 33 1 25 -8 -6 -8 -6 -14 -1 -18 6 -3 15 0 21 8 8 10 7 17 -7 28 -18 17 -90 29 -97 17z"/>
 <path d="M795 440 c-8 -12 20 -24 35 -15 6 3 8 11 5 16 -8 12 -32 12 -40 -1z"/>
 <path d="M895 440 c-8 -12 20 -24 35 -15 6 3 8 11 5 16 -8 12 -32 12 -40 -1z"/>
 <path d="M1007 444 c-3 -3 -3 -12 0 -20 3 -8 2 -14 -3 -12 -5 2 -10 -1 -11 -7 -2 -5 11 -10 27 -10 17 1 29 5 28 10 -1 6 -9 9 -18 7 -11 -2 -10 0 3 8 9 6 15 15 12 21 -7 10 -29 12 -38 3z"/>
 <path d="M1116 442 c-3 -5 3 -17 13 -26 11 -10 22 -13 25 -8 3 5 -3 17 -13 26 -11 10 -22 13 -25 8z"/>
 <path d="M1465 440 c-8 -12 20 -24 35 -15 6 3 8 11 5 16 -8 12 -32 12 -40 -1z"/>
 <path d="M1316 422 c-4 -4 -12 -7 -17 -7 -15 0 -11 -19 5 -21 18 -3 41 22 28 30 -5 3 -12 2 -16 -2z"/>
 <path d="M656 341 c-10 -11 -13 -22 -8 -25 5 -3 17 3 26 13 10 11 13 22 8 25 -5 3 -17 -3 -26 -13z"/>
 <path d="M559 343 c-1 -4 -1 -12 0 -17 1 -5 -5 -6 -13 -3 -8 3 -21 -2 -30 -12 -15 -16 -15 -19 3 -35 20 -18 30 -12 26 17 -2 11 2 17 12 15 17 -3 27 28 12 38 -5 3 -10 2 -10 -3z"/>
 <path d="M479 123 c-1 -4 -1 -12 0 -17 1 -4 -3 -14 -9 -21 -7 -9 -7 -15 -1 -19 11 -7 24 11 26 37 2 17 -14 36 -16 20z"/>
 <path d="M516 122 c-3 -5 3 -17 13 -26 13 -12 21 -14 26 -6 3 5 10 8 15 5 5 -3 11 -1 14 4 4 5 2 12 -3 15 -5 4 -13 1 -16 -4 -5 -8 -13 -6 -25 5 -10 9 -21 12 -24 7z"/>
 <path d="M710 94 c-9 -10 -10 -18 -3 -25 8 -8 14 -5 22 9 13 25 -2 38 -19 16z"/>
 <path d="M337 94 c-3 -4 -1 -16 5 -28 7 -11 12 -24 13 -28 0 -14 19 -9 21 5 2 17 -30 60 -39 51z"/>
 </g>
<g id="layerbg12" fill="#dce6ea" stroke="none">
 <path d="M335 590 c-3 -5 -4 -11 -1 -11 3 -1 9 -2 14 -3 4 -1 17 -7 29 -14 13 -7 24 -8 28 -3 3 6 -4 15 -15 21 -11 6 -20 8 -20 4 0 -3 -6 -1 -14 5 -10 8 -16 9 -21 1z"/>
 <path d="M427 573 c-4 -3 -2 -12 3 -19 6 -6 9 -18 8 -25 -2 -9 4 -13 16 -11 15 3 18 -1 13 -17 -7 -28 9 -37 22 -13 12 22 -13 67 -31 56 -6 -4 -8 -2 -5 3 8 12 -17 36 -26 26z"/>
 <path d="M929 557 c0 -1 -2 -10 -4 -19 -5 -27 10 -30 30 -8 10 11 16 20 14 21 -2 0 -12 2 -21 4 -10 2 -18 3 -19 2z"/>
 <path d="M1106 547 c-13 -10 -15 -16 -8 -21 7 -4 12 -4 12 0 0 3 6 1 14 -5 19 -16 29 2 13 23 -11 14 -15 15 -31 3z"/>
 <path d="M1706 551 c-4 -5 3 -15 14 -21 11 -6 18 -16 14 -21 -3 -6 -9 -8 -12 -5 -8 9 -33 -15 -26 -26 3 -5 15 -1 26 9 11 10 23 17 27 16 3 -2 6 4 6 13 0 21 -41 49 -49 35z"/>
 <path d="M628 487 c-6 -12 -6 -23 1 -31 6 -7 9 -15 6 -18 -3 -3 1 -11 9 -17 8 -7 17 -8 20 -3 3 6 0 15 -8 21 -21 18 -8 51 18 47 11 -3 26 -5 33 -5 6 -1 13 -11 15 -23 4 -28 22 -26 26 2 6 34 -15 50 -65 47 -32 -1 -48 -7 -55 -20z"/>
 <path d="M1155 501 c-7 -13 17 -24 40 -19 9 1 16 8 16 13 0 14 -48 19 -56 6z"/>
 <path d="M140 484 c-9 -10 -10 -18 -3 -25 8 -8 14 -5 22 9 13 25 -2 38 -19 16z"/>
 <path d="M501 408 c-5 -14 -5 -28 2 -36 12 -16 20 -8 24 23 5 32 -15 42 -26 13z"/>
 <path d="M626 353 c-4 -5 -12 -8 -17 -8 -5 0 -8 -4 -6 -10 3 -12 36 -14 44 -2 7 12 -11 30 -21 20z"/>
 <path d="M670 335 c-7 -8 -11 -15 -9 -16 47 -10 73 3 40 20 -14 8 -22 7 -31 -4z"/>
 <path d="M115 330 c-3 -5 -1 -11 5 -15 5 -3 10 -3 10 2 0 4 5 0 11 -10 6 -9 15 -15 20 -12 13 9 -5 38 -25 41 -9 1 -18 -2 -21 -6z"/>
 <path d="M471 292 c-13 -25 2 -38 19 -16 9 10 10 18 3 25 -8 8 -14 5 -22 -9z"/>
 <path d="M406 271 c-10 -11 -13 -22 -8 -25 5 -3 17 3 26 13 10 11 13 22 8 25 -5 3 -17 -3 -26 -13z"/>
 <path d="M746 282 c-3 -5 1 -18 8 -28 10 -12 11 -23 5 -31 -7 -7 -6 -14 1 -18 16 -10 34 10 24 27 -5 7 -9 19 -11 27 -3 20 -20 35 -27 23z"/>
 <path d="M504 216 c-4 -10 -2 -22 4 -28 8 -8 13 -7 18 6 4 10 2 22 -4 28 -8 8 -13 7 -18 -6z"/>
 <path d="M265 210 c-8 -13 20 -24 41 -16 20 8 9 26 -16 26 -10 0 -22 -5 -25 -10z"/>
 <path d="M756 158 c-14 -33 -12 -53 4 -43 4 3 13 18 18 35 15 42 -5 50 -22 8z"/>
 <path d="M436 172 c-3 -5 3 -17 13 -26 11 -10 22 -13 25 -8 3 5 -3 17 -13 26 -11 10 -22 13 -25 8z"/>
 <path d="M600 85 c-7 -8 -11 -15 -9 -16 31 -6 40 -6 45 2 3 5 9 7 14 4 5 -3 11 -1 14 4 4 5 2 12 -3 15 -5 4 -13 2 -16 -4 -5 -8 -11 -8 -20 0 -9 7 -16 6 -25 -5z"/>
 </g>
<g id="layerbg13" fill="#97a1a6" stroke="none">
 <path d="M198 599 c-9 -5 -15 -16 -14 -24 2 -16 15 -21 18 -7 0 4 8 12 16 18 19 14 2 25 -20 13z"/>
 <path d="M156 552 c-4 -4 -12 -7 -17 -7 -15 0 -11 -19 5 -21 18 -3 41 22 28 30 -5 3 -12 2 -16 -2z"/>
 <path d="M915 550 c-4 -6 -1 -18 7 -27 7 -9 12 -18 11 -20 -2 -1 -1 -3 2 -3 3 0 8 0 12 0 4 0 2 5 -4 11 -6 6 -9 17 -7 24 7 16 -12 29 -21 15z"/>
 <path d="M1276 543 c-3 -3 -6 -32 -6 -62 0 -53 -2 -57 -25 -59 -13 -1 -30 -3 -37 -4 -6 -2 -12 4 -13 12 0 16 -30 21 -30 5 0 -5 -4 -15 -8 -22 -4 -6 -4 -14 0 -16 14 -9 88 -5 100 5 8 6 19 6 32 -1 20 -11 40 2 21 14 -5 3 -10 33 -10 65 0 55 -9 78 -24 63z"/>
 <path d="M1384 537 c-7 -20 -2 -47 11 -50 14 -3 19 43 6 56 -7 7 -12 6 -17 -6z"/>
 <path d="M1536 538 c-8 -25 -1 -98 9 -100 13 -4 16 100 4 108 -5 3 -11 -1 -13 -8z"/>
 <path d="M605 530 c-4 -6 -1 -18 7 -27 7 -9 12 -18 11 -20 -2 -1 -1 -3 2 -3 3 0 8 0 12 0 4 0 2 5 -4 11 -6 6 -9 17 -7 24 7 16 -12 29 -21 15z"/>
 <path d="M1655 530 c-8 -13 20 -24 41 -16 20 8 9 26 -16 26 -10 0 -22 -5 -25 -10z"/>
 <path d="M105 510 c-10 -17 5 -33 20 -20 9 8 12 5 11 -12 0 -13 4 -24 9 -25 15 -4 12 30 -4 50 -16 19 -27 22 -36 7z"/>
 <path d="M1387 463 c-12 -12 -7 -50 8 -63 16 -13 18 -9 15 30 -2 28 -13 44 -23 33z"/>
 <path d="M987 453 c-4 -3 -2 -12 3 -19 6 -6 9 -18 8 -25 -2 -9 9 -13 34 -14 21 0 37 5 35 10 -1 6 -15 10 -30 9 -18 0 -26 4 -23 12 6 14 -18 37 -27 27z"/>
 <path d="M825 440 c-3 -5 -3 -10 2 -11 4 -1 -2 -4 -15 -7 -46 -14 -26 -27 44 -30 55 -2 74 1 84 13 9 11 10 19 3 26 -8 8 -13 7 -17 0 -10 -15 -27 -14 -23 2 1 6 -5 12 -13 12 -8 0 -14 -6 -12 -12 1 -7 -7 -13 -19 -13 -11 0 -18 4 -14 9 3 5 1 12 -4 15 -5 4 -12 2 -16 -4z"/>
 <path d="M1459 446 c-10 -48 -6 -51 64 -51 40 0 66 4 64 10 -2 9 -19 12 -95 14 -13 1 -21 5 -17 10 3 5 1 12 -5 16 -5 3 -10 4 -11 1z"/>
 <path d="M675 410 c-4 -6 0 -12 7 -15 23 -8 83 0 81 10 -3 13 -80 17 -88 5z"/>
 <path d="M1625 410 c-3 -5 0 -13 8 -16 23 -8 102 0 102 11 0 14 -102 19 -110 5z"/>
 <path d="M709 339 c-9 -47 0 -65 33 -64 22 0 19 20 -2 20 -8 0 -15 8 -15 17 0 15 -14 38 -16 27z"/>
 <path d="M466 292 c-3 -5 6 -19 20 -31 20 -17 23 -25 14 -36 -7 -9 -8 -15 0 -20 9 -6 14 1 11 17 0 4 8 12 19 18 11 6 18 15 15 21 -4 5 -11 7 -16 3 -5 -3 -8 0 -7 8 2 7 -3 12 -11 10 -7 -1 -19 2 -26 8 -8 6 -16 7 -19 2z"/>
 <path d="M441 167 c-8 -11 -7 -18 8 -31 11 -10 17 -25 14 -35 -6 -24 11 -35 26 -17 9 10 8 16 -4 26 -11 9 -12 16 -5 25 7 8 4 17 -9 29 -15 14 -20 14 -30 3z"/>
 <path d="M496 172 c-4 -6 -2 -21 4 -32 9 -16 15 -18 31 -10 11 6 17 16 13 21 -3 6 -8 8 -12 5 -3 -3 -10 2 -17 11 -8 11 -14 13 -19 5z"/>
 <path d="M325 121 c-15 -25 14 -91 38 -87 15 2 21 21 7 21 -16 0 -28 25 -23 45 5 20 -12 36 -22 21z"/>
 <path d="M742 123 c-16 -6 -34 -40 -24 -47 4 -2 18 6 30 19 22 23 19 37 -6 28z"/>
 </g>
<g id="layerbg14" fill="#36454b" stroke="none">
 <path d="M176 611 c-14 -15 -14 -20 -3 -29 19 -16 30 -3 14 16 -7 9 -7 13 -1 9 6 -3 20 0 30 8 18 14 18 14 -2 15 -11 0 -28 -8 -38 -19z"/>
 <path d="M395 621 c-3 -6 1 -13 9 -18 13 -7 16 -12 16 -28 0 -3 11 2 25 11 22 14 27 42 5 29 -5 -3 -18 -1 -29 5 -12 6 -22 6 -26 1z"/>
 <path d="M100 601 c-11 -22 -5 -28 26 -26 11 1 21 -4 21 -11 0 -7 -3 -12 -6 -11 -3 1 -7 -1 -8 -5 -7 -19 -2 -20 17 -3 19 17 19 19 4 36 -9 10 -21 16 -27 12 -5 -3 -7 -1 -3 5 3 6 2 13 -3 17 -6 3 -15 -3 -21 -14z"/>
 <path d="M626 593 c-3 -3 -1 -12 5 -20 6 -7 8 -13 3 -13 -4 0 3 -11 16 -25 30 -32 53 -32 74 -1 17 27 6 45 -14 21 -10 -12 -16 -13 -26 -4 -8 6 -14 8 -14 4 0 -4 -7 -2 -15 5 -8 7 -13 16 -10 20 7 11 -10 22 -19 13z"/>
 <path d="M220 580 c-8 -5 -16 -14 -16 -20 -1 -5 -2 -15 -3 -21 0 -6 -8 -9 -16 -6 -21 9 -28 -10 -8 -22 18 -10 16 -12 -9 -15 -19 -2 -16 -29 4 -32 19 -2 54 43 50 64 -2 8 4 12 15 10 10 -2 18 2 18 7 0 6 3 15 7 21 14 22 -14 32 -42 14z"/>
 <path d="M306 571 c-11 -12 -14 -21 -7 -26 11 -6 15 1 11 20 -1 5 7 2 18 -8 22 -20 35 -12 21 14 -12 24 -22 24 -43 0z"/>
 <path d="M1139 578 c-11 -40 4 -65 39 -64 14 1 17 20 2 22 -5 1 -15 2 -21 3 -6 0 -9 8 -6 16 4 8 2 17 -3 20 -6 4 -10 5 -11 3z"/>
 <path d="M376 561 c-4 -5 2 -14 11 -20 11 -5 18 -21 18 -38 1 -22 5 -28 24 -29 13 -1 28 -9 33 -18 17 -30 29 -6 13 25 -9 16 -20 27 -24 24 -10 -5 -39 25 -31 33 3 2 -5 11 -17 19 -13 9 -23 10 -27 4z"/>
 <path d="M476 561 c-4 -6 -2 -19 6 -28 7 -9 12 -18 11 -20 -2 -1 0 -2 4 0 13 4 12 25 -1 43 -10 12 -15 14 -20 5z"/>
 <path d="M594 556 c-3 -9 -3 -24 2 -33 4 -10 8 -21 8 -25 1 -3 4 -9 8 -13 4 -4 4 -13 2 -20 -7 -16 12 -29 21 -15 4 6 2 16 -3 23 -6 7 -11 15 -11 20 -1 4 -1 10 -2 15 -1 4 0 17 0 29 3 26 -17 40 -25 19z"/>
 <path d="M830 554 c-9 -10 -10 -18 -3 -25 8 -8 14 -5 22 9 13 25 -2 38 -19 16z"/>
 <path d="M911 556 c-8 -10 -9 -16 -1 -21 7 -4 7 -12 0 -25 -6 -12 -7 -21 -1 -25 6 -3 15 3 21 14 7 14 7 22 0 26 -8 5 -8 11 0 20 7 8 7 16 2 19 -6 3 -15 -1 -21 -8z"/>
 <path d="M1089 563 c-1 -4 -1 -12 0 -17 1 -4 -2 -13 -7 -20 -8 -9 -9 -50 -3 -75 1 -2 10 4 21 14 13 12 17 22 11 29 -6 6 -8 24 -7 39 3 24 -12 52 -15 30z"/>
 <path d="M1382 558 c-7 -7 -12 -8 -12 -3 0 4 -9 0 -20 -10 -11 -10 -17 -22 -14 -26 8 -14 25 1 17 14 -3 7 3 4 15 -7 21 -18 22 -18 28 0 4 11 9 22 11 26 6 13 -14 17 -25 6z"/>
 <path d="M91 499 c-15 -24 -17 -36 -9 -46 12 -14 32 -7 22 8 -3 5 1 21 10 34 10 14 12 26 6 30 -5 3 -19 -9 -29 -26z"/>
 <path d="M984 505 c-14 -10 -16 -17 -8 -25 7 -7 15 -5 28 9 21 23 6 36 -20 16z"/>
 <path d="M1635 510 c-11 -18 6 -31 36 -28 26 3 41 16 22 19 -5 1 -18 5 -30 10 -13 5 -25 4 -28 -1z"/>
 <path d="M506 481 c-4 -5 -2 -12 3 -16 6 -3 8 -12 5 -19 -7 -17 12 -30 21 -16 4 6 2 17 -4 24 -6 7 -8 15 -5 18 3 3 1 9 -5 12 -5 4 -12 2 -15 -3z"/>
 <path d="M1346 462 c-3 -6 5 -17 19 -26 24 -16 32 -13 31 14 -1 17 -41 26 -50 12z"/>
 <path d="M764 445 c-9 -23 10 -40 25 -22 9 11 8 17 -4 27 -12 10 -16 9 -21 -5z"/>
 <path d="M635 421 c-6 -11 29 -33 39 -24 7 7 -12 33 -25 33 -4 0 -10 -4 -14 -9z"/>
 <path d="M151 396 c-18 -20 -20 -27 -11 -51 7 -19 14 -25 21 -18 6 6 6 19 -1 37 -5 15 -6 25 -1 22 5 -3 14 1 20 8 21 25 -5 26 -28 2z"/>
 <path d="M665 380 c-19 -20 -23 -30 -14 -35 7 -5 19 2 30 16 10 13 23 24 28 24 18 0 17 18 -1 21 -9 1 -28 -11 -43 -26z"/>
 <path d="M446 391 c-7 -10 0 -15 17 -12 10 2 -10 -36 -24 -44 -7 -5 -6 -11 1 -20 9 -10 3 -22 -24 -52 -43 -48 -36 -70 23 -68 38 1 40 0 25 -16 -11 -12 -12 -19 -4 -24 14 -9 -8 -38 -24 -32 -16 6 -48 -12 -41 -24 4 -6 13 -5 25 1 26 14 33 13 27 -5 -4 -8 -2 -17 4 -21 6 -3 8 -12 5 -20 -8 -22 16 -29 31 -8 12 16 11 21 -9 35 -19 15 -20 19 -9 33 7 9 10 16 6 16 -4 0 -2 7 5 15 7 8 9 15 4 15 -4 0 0 6 11 13 10 8 15 19 11 25 -4 6 1 23 10 37 16 24 15 25 -7 34 -29 11 -44 4 -29 -14 8 -9 6 -14 -7 -20 -34 -13 -62 -15 -68 -5 -4 6 -3 10 2 9 4 -1 11 0 16 1 4 1 12 3 19 4 6 0 12 8 14 16 2 8 10 35 19 59 15 42 15 45 -3 64 -13 13 -22 15 -26 8z"/>
 <path d="M537 383 c-4 -3 1 -15 10 -26 10 -11 18 -28 18 -38 0 -10 5 -19 10 -19 6 0 10 10 10 23 0 15 5 21 17 19 26 -4 32 17 6 27 -47 17 -65 21 -71 14z"/>
 <path d="M105 321 c-4 -8 -1 -19 8 -28 19 -20 30 -1 13 22 -10 14 -15 15 -21 6z"/>
 <path d="M761 302 c-7 -14 -6 -24 4 -38 16 -21 16 -21 19 19 2 35 -9 44 -23 19z"/>
 <path d="M186 297 c-16 -12 -16 -14 -2 -26 9 -8 16 -11 16 -7 0 3 10 -4 22 -16 20 -20 22 -20 34 -3 16 22 7 40 -12 24 -8 -6 -14 -7 -14 -2 0 5 -6 17 -13 26 -10 15 -15 16 -31 4z"/>
 <path d="M350 290 c-11 -11 -18 -25 -15 -30 4 -6 -3 -11 -14 -11 -37 -2 -41 -4 -41 -13 -1 -15 44 -18 75 -6 23 9 25 13 15 25 -11 13 -10 18 5 29 12 9 14 15 7 20 -6 4 -21 -3 -32 -14z"/>
 <path d="M698 303 c-9 -18 -2 -36 14 -39 26 -3 30 11 9 30 -11 10 -21 14 -23 9z"/>
 <path d="M166 241 c-4 -5 -2 -12 4 -16 6 -4 8 -10 5 -15 -8 -14 29 -30 45 -20 9 5 19 5 26 -1 8 -7 14 -6 19 1 3 5 4 11 1 11 -12 3 -26 7 -33 9 -5 1 -16 1 -27 0 -10 -1 -15 3 -12 8 3 5 -1 15 -8 21 -9 8 -16 8 -20 2z"/>
 <path d="M542 233 c-17 -35 6 -121 29 -107 6 4 6 11 -2 20 -6 8 -8 14 -5 14 4 0 2 9 -4 20 -7 14 -8 26 0 39 6 13 6 22 1 26 -6 3 -14 -2 -19 -12z"/>
 <path d="M347 214 c-3 -3 -3 -12 0 -20 3 -8 0 -14 -6 -14 -6 0 -10 4 -8 9 1 5 -2 8 -8 8 -5 -1 -9 -6 -7 -10 1 -4 -4 -7 -12 -5 -8 2 -15 -1 -15 -7 0 -5 6 -9 13 -7 16 3 28 -35 15 -44 -5 -3 -7 -10 -3 -15 3 -5 10 -7 15 -3 5 3 7 9 4 14 -3 5 0 12 6 15 5 4 8 14 5 22 -3 8 -2 12 3 9 4 -3 16 0 25 7 16 12 16 14 -2 30 -10 9 -21 14 -25 11z"/>
 <path d="M747 214 c-3 -3 -4 -11 -1 -17 2 -7 -12 -22 -31 -35 -20 -12 -34 -26 -31 -30 3 -5 -4 -13 -14 -19 -14 -10 -21 -8 -35 7 -10 11 -22 17 -27 14 -5 -4 2 -19 17 -34 15 -16 27 -32 26 -37 -1 -4 2 -8 7 -8 4 0 13 -4 19 -8 9 -5 17 1 24 17 16 35 38 40 64 16 24 -22 32 -18 31 15 -1 11 -7 19 -14 17 -17 -3 -52 16 -52 29 0 6 4 8 9 4 12 -7 22 9 26 41 2 24 -7 39 -18 28z"/>
 <path d="M485 110 c-11 -18 5 -32 21 -19 9 7 14 8 12 3 -2 -5 0 -10 5 -11 18 -7 19 -2 2 17 -20 22 -31 25 -40 10z"/>
 <path d="M353 97 c-4 -7 -17 -17 -27 -21 -13 -4 -16 -10 -9 -17 13 -13 41 -2 53 22 12 21 -4 37 -17 16z"/>
 <path d="M555 80 c-7 -12 32 -33 45 -25 6 4 8 10 5 14 -7 13 -44 20 -50 11z"/>
 </g>
<g id="layerbg15" fill="#f3fafb" stroke="none">
 <path d="M232 607 c-43 -16 -104 -66 -96 -78 4 -7 14 -3 28 9 47 42 137 56 203 31 39 -14 92 -67 109 -109 16 -36 20 -104 9 -139 -10 -31 14 -35 26 -4 16 41 12 128 -7 169 -50 104 -170 158 -272 121z"/>
 <path d="M615 550 c-4 -6 -1 -34 6 -61 17 -65 48 -91 103 -87 l41 3 3 69 c3 74 -7 98 -32 76 -9 -7 -13 -16 -10 -21 3 -5 -11 -9 -30 -9 -25 0 -38 6 -46 20 -12 22 -25 26 -35 10z m115 -85 c0 -20 -5 -25 -24 -25 -21 0 -36 16 -36 39 0 4 14 8 30 9 26 2 30 -1 30 -23z"/>
 <path d="M847 554 c-4 -4 -7 -31 -7 -61 0 -45 -3 -53 -19 -53 -10 0 -24 -7 -31 -15 -17 -21 3 -27 81 -23 49 2 64 7 64 18 0 9 -11 16 -27 18 -25 3 -27 7 -30 59 -3 52 -14 73 -31 57z"/>
 <path d="M933 549 c-16 -16 12 -110 38 -132 15 -12 35 -17 63 -15 l41 3 0 75 c0 60 -3 75 -15 75 -11 0 -16 -15 -20 -58 -3 -31 -8 -57 -12 -57 -5 0 -14 0 -21 0 -7 0 -19 22 -26 49 -14 55 -31 77 -48 60z"/>
 <path d="M1098 555 c-3 -3 1 -33 10 -66 18 -72 41 -92 104 -87 l43 3 3 69 c3 80 -9 103 -38 69 -23 -29 -70 -31 -88 -3 -12 20 -24 25 -34 15z m112 -91 c0 -21 -4 -25 -22 -22 -15 2 -24 11 -26 26 -3 18 1 22 22 22 21 0 26 -5 26 -26z"/>
 <path d="M1291 546 c-7 -9 -11 -39 -9 -78 3 -55 5 -63 23 -63 14 0 21 8 23 28 3 23 8 27 33 27 24 0 29 -4 29 -24 0 -30 16 -42 35 -26 10 8 15 32 15 70 0 38 -5 62 -15 70 -20 17 -35 4 -35 -31 0 -26 -3 -29 -30 -29 -25 0 -30 4 -30 24 0 32 -23 51 -39 32z"/>
 <path d="M1512 548 c-7 -7 -12 -33 -12 -59 0 -42 -3 -48 -22 -51 -13 -2 -23 -10 -23 -18 0 -12 14 -15 70 -15 56 0 70 3 70 15 0 8 -10 16 -22 18 -19 3 -22 10 -25 59 -3 57 -14 73 -36 51z"/>
 <path d="M1629 541 c-19 -16 -22 -22 -11 -32 9 -10 15 -10 24 -1 17 17 68 15 68 -2 0 -11 -14 -16 -47 -18 l-48 -3 0 -40 0 -40 54 -3 c29 -2 60 -1 68 3 26 9 -5 35 -43 35 -19 0 -34 5 -34 10 0 6 15 10 34 10 58 0 81 47 39 80 -32 25 -74 26 -104 1z"/>
 <path d="M120 446 c-14 -38 -13 -101 4 -139 16 -38 76 -94 112 -103 39 -10 120 1 149 20 36 24 22 38 -20 20 -48 -20 -84 -18 -135 9 -65 33 -85 66 -86 143 -1 73 -9 89 -24 50z"/>
 <path d="M563 335 c-21 -15 -1 -29 24 -18 10 5 25 8 33 7 8 -1 25 -2 37 -3 36 -2 82 -49 96 -99 16 -52 34 -58 29 -9 -7 78 -73 136 -153 134 -28 0 -58 -6 -66 -12z"/>
 <path d="M504 185 c-9 -24 14 -70 48 -95 35 -26 106 -32 132 -11 25 21 9 31 -25 17 -27 -11 -36 -11 -63 2 -36 17 -65 50 -66 74 0 23 -19 33 -26 13z"/>
 </g>
<g id="layerbg16" fill="#25373e" stroke="none">
 <path d="M0 325 l0 -325 890 0 890 0 0 325 0 325 -890 0 -890 0 0 -325z m395 267 c46 -22 85 -62 107 -112 37 -80 9 -190 -64 -255 l-33 -30 32 35 c68 74 81 164 37 244 -69 123 -229 149 -333 54 l-36 -33 35 39 c53 58 114 85 175 79 28 -3 64 -12 80 -21z m257 -60 c7 -24 74 -22 72 2 -1 10 6 16 17 16 16 0 19 -8 19 -49 0 -56 15 -74 57 -69 27 3 28 5 28 61 0 47 2 57 17 57 14 0 18 -11 20 -57 2 -37 7 -58 16 -59 29 -3 32 -4 32 -14 0 -13 -137 -13 -145 0 -5 8 -11 7 -21 -1 -19 -15 -89 -16 -108 0 -12 10 -46 102 -46 125 0 15 38 4 42 -12z m324 -38 c9 -30 23 -58 31 -61 26 -10 45 26 40 75 -3 29 -1 42 8 42 16 0 22 -23 20 -85 l-2 -50 -44 -3 c-24 -1 -50 2 -57 6 -7 5 -21 36 -31 70 -19 61 -19 62 0 62 14 0 22 -14 35 -56z m162 39 c15 -25 73 -27 79 -2 3 10 12 19 20 19 11 0 13 -14 11 -67 -3 -77 -14 -86 -78 -70 -33 8 -37 13 -53 66 -9 31 -17 60 -17 64 0 14 29 7 38 -10z m178 1 c-11 -29 12 -55 47 -52 28 3 32 7 32 33 0 20 6 31 18 33 15 3 17 -5 17 -67 0 -56 -3 -71 -15 -71 -8 0 -16 5 -16 10 -1 6 -2 15 -3 22 0 6 -14 15 -30 19 -30 8 -40 5 -42 -12 -1 -5 -3 -11 -4 -14 -1 -3 -3 -9 -4 -15 0 -5 -5 -11 -11 -12 -6 -2 -11 28 -13 70 -2 61 0 72 14 72 11 0 14 -5 10 -16z m226 -41 c3 -55 4 -58 31 -61 55 -7 25 -22 -43 -22 -40 0 -70 4 -70 10 0 6 8 10 19 10 32 0 44 25 37 75 -6 36 -4 45 8 45 11 0 16 -14 18 -57z m202 39 c15 -18 15 -21 -4 -45 -13 -16 -32 -27 -53 -29 -46 -4 -39 -22 11 -26 66 -5 49 -22 -23 -22 l-64 0 4 32 c5 36 21 50 52 45 13 -2 31 2 40 9 16 11 16 13 -10 25 -21 9 -30 10 -39 1 -7 -7 -20 -12 -30 -12 -16 0 -17 3 -8 20 15 28 99 29 124 2z m-1591 -64 c-19 -24 -23 -67 -11 -114 14 -52 71 -109 123 -122 47 -13 116 6 153 42 21 19 31 24 26 13 -10 -28 -92 -79 -135 -84 -120 -17 -226 109 -189 224 14 41 30 66 38 58 3 -2 0 -10 -5 -17z m566 -147 c38 -27 61 -74 61 -123 0 -39 -14 -66 -25 -49 -4 7 -2 18 4 25 17 20 -5 78 -43 115 -25 24 -46 35 -78 38 -52 6 -107 -12 -90 -29 9 -9 8 -16 -5 -30 -9 -10 -18 -37 -20 -61 -4 -36 0 -49 21 -74 42 -50 76 -59 132 -34 26 12 49 19 52 16 3 -3 12 1 20 8 13 10 14 9 4 -10 -13 -23 -34 -41 -31 -26 4 21 -3 21 -33 3 -70 -42 -152 -12 -175 65 -13 40 -2 95 22 115 20 17 8 34 -13 19 -10 -6 0 5 21 24 35 32 44 35 91 34 36 -2 61 -10 85 -26z m-240 -192 c9 -26 1 -79 -12 -79 -6 0 -1 39 5 46 9 8 -1 35 -20 57 -14 16 -14 17 0 12 9 -4 21 -20 27 -36z"/>
 <path d="M667 483 c-10 -16 29 -57 47 -50 28 11 16 51 -16 55 -14 2 -28 -1 -31 -5z"/>
 <path d="M1163 479 c-18 -18 2 -50 30 -45 30 4 31 50 2 54 -11 1 -26 -3 -32 -9z"/>
 </g>
<g id="layer101" fill="#121f27" stroke="none">
 <path d="M268 623 c6 -2 18 -2 25 0 6 3 1 5 -13 5 -14 0 -19 -2 -12 -5z"/>
 <path d="M124 488 c-4 -7 -3 -8 4 -4 12 7 16 16 8 16 -3 0 -8 -5 -12 -12z"/>
 <path d="M460 90 c0 -7 3 -10 7 -7 3 4 3 10 0 14 -4 3 -7 0 -7 -7z"/>
 </g>
<g id="layer102" fill="#abb3b7" stroke="none">
 <path d="M144 548 c-4 -7 -3 -8 4 -4 7 4 12 9 12 12 0 8 -9 4 -16 -8z"/>
 <path d="M673 513 c9 -2 23 -2 30 0 6 3 -1 5 -18 5 -16 0 -22 -2 -12 -5z"/>
 <path d="M1158 513 c7 -3 16 -2 19 1 4 3 -2 6 -13 5 -11 0 -14 -3 -6 -6z"/>
 <path d="M1110 470 c0 -7 3 -10 7 -7 3 4 3 10 0 14 -4 3 -7 0 -7 -7z"/>
 <path d="M120 450 c0 -7 3 -10 7 -7 3 4 3 10 0 14 -4 3 -7 0 -7 -7z"/>
 <path d="M1500 440 c0 -7 3 -10 7 -7 3 4 3 10 0 14 -4 3 -7 0 -7 -7z"/>
 <path d="M683 433 c4 -3 10 -3 14 0 3 4 0 7 -7 7 -7 0 -10 -3 -7 -7z"/>
 <path d="M120 310 c0 -7 3 -10 7 -7 3 4 3 10 0 14 -4 3 -7 0 -7 -7z"/>
 <path d="M720 130 c0 -7 3 -10 7 -7 3 4 3 10 0 14 -4 3 -7 0 -7 -7z"/>
 <path d="M475 110 c3 -5 8 -10 11 -10 3 0 2 5 -1 10 -3 6 -8 10 -11 10 -3 0 -2 -4 1 -10z"/>
 </g>
<g id="layer103" fill="#d6dee3" stroke="none">
 <path d="M225 590 c3 -5 8 -10 11 -10 3 0 2 5 -1 10 -3 6 -8 10 -11 10 -3 0 -2 -4 1 -10z"/>
 <path d="M124 518 c-4 -7 -3 -8 4 -4 7 4 12 9 12 12 0 8 -9 4 -16 -8z"/>
 <path d="M873 480 c0 -25 2 -35 4 -22 2 12 2 32 0 45 -2 12 -4 2 -4 -23z"/>
 <path d="M1348 483 c6 -2 18 -2 25 0 6 3 1 5 -13 5 -14 0 -19 -2 -12 -5z"/>
 <path d="M1668 463 c7 -3 16 -2 19 1 4 3 -2 6 -13 5 -11 0 -14 -3 -6 -6z"/>
 <path d="M985 440 c3 -5 8 -10 11 -10 3 0 2 5 -1 10 -3 6 -8 10 -11 10 -3 0 -2 -4 1 -10z"/>
 <path d="M514 238 c-4 -7 -3 -8 4 -4 12 7 16 16 8 16 -3 0 -8 -5 -12 -12z"/>
 <path d="M383 33 c4 -3 10 -3 14 0 3 4 0 7 -7 7 -7 0 -10 -3 -7 -7z"/>
 </g>
<g id="layer104" fill="#b4bdc3" stroke="none">
 <path d="M243 583 c4 -3 10 -3 14 0 3 4 0 7 -7 7 -7 0 -10 -3 -7 -7z"/>
 <path d="M1071 534 c0 -11 3 -14 6 -6 3 7 2 16 -1 19 -3 4 -6 -2 -5 -13z"/>
 <path d="M1183 513 c4 -3 10 -3 14 0 3 4 0 7 -7 7 -7 0 -10 -3 -7 -7z"/>
 <path d="M1072 480 c0 -19 2 -27 5 -17 2 9 2 25 0 35 -3 9 -5 1 -5 -18z"/>
 <path d="M500 480 c0 -7 3 -10 7 -7 3 4 3 10 0 14 -4 3 -7 0 -7 -7z"/>
 <path d="M1713 463 c4 -3 10 -3 14 0 3 4 0 7 -7 7 -7 0 -10 -3 -7 -7z"/>
 <path d="M480 450 c0 -7 3 -10 7 -7 3 4 3 10 0 14 -4 3 -7 0 -7 -7z"/>
 <path d="M760 190 c0 -7 3 -10 7 -7 3 4 3 10 0 14 -4 3 -7 0 -7 -7z"/>
 <path d="M403 33 c4 -3 10 -3 14 0 3 4 0 7 -7 7 -7 0 -10 -3 -7 -7z"/>
 </g>
<g id="layer105" fill="#bcc6ca" stroke="none">
 <path d="M1070 440 c0 -7 3 -10 7 -7 3 4 3 10 0 14 -4 3 -7 0 -7 -7z"/>
 <path d="M170 286 c0 -2 8 -10 18 -17 15 -13 16 -12 3 4 -13 16 -21 21 -21 13z"/>
 <path d="M460 260 c0 -7 3 -10 7 -7 3 4 3 10 0 14 -4 3 -7 0 -7 -7z"/>
 <path d="M373 243 c4 -3 10 -3 14 0 3 4 0 7 -7 7 -7 0 -10 -3 -7 -7z"/>
 <path d="M303 223 c4 -3 10 -3 14 0 3 4 0 7 -7 7 -7 0 -10 -3 -7 -7z"/>
 <path d="M353 213 c4 -3 10 -3 14 0 3 4 0 7 -7 7 -7 0 -10 -3 -7 -7z"/>
 <path d="M425 170 c3 -5 8 -10 11 -10 3 0 2 5 -1 10 -3 6 -8 10 -11 10 -3 0 -2 -4 1 -10z"/>
 <path d="M765 170 c3 -5 8 -10 11 -10 3 0 2 5 -1 10 -3 6 -8 10 -11 10 -3 0 -2 -4 1 -10z"/>
 </g>
<g id="layer106" fill="#687378" stroke="none">
 <path d="M253 613 c4 -3 10 -3 14 0 3 4 0 7 -7 7 -7 0 -10 -3 -7 -7z"/>
 <path d="M283 583 c4 -3 10 -3 14 0 3 4 0 7 -7 7 -7 0 -10 -3 -7 -7z"/>
 <path d="M743 553 c4 -3 10 -3 14 0 3 4 0 7 -7 7 -7 0 -10 -3 -7 -7z"/>
 <path d="M1103 553 c4 -3 10 -3 14 0 3 4 0 7 -7 7 -7 0 -10 -3 -7 -7z"/>
 <path d="M1228 553 c7 -3 16 -2 19 1 4 3 -2 6 -13 5 -11 0 -14 -3 -6 -6z"/>
 <path d="M1408 553 c7 -3 16 -2 19 1 4 3 -2 6 -13 5 -11 0 -14 -3 -6 -6z"/>
 <path d="M1504 548 c-4 -7 -3 -8 4 -4 12 7 16 16 8 16 -3 0 -8 -5 -12 -12z"/>
 <path d="M1735 540 c3 -5 8 -10 11 -10 3 0 2 5 -1 10 -3 6 -8 10 -11 10 -3 0 -2 -4 1 -10z"/>
 <path d="M1611 444 c0 -11 3 -14 6 -6 3 7 2 16 -1 19 -3 4 -6 -2 -5 -13z"/>
 <path d="M544 328 c-4 -7 -3 -8 4 -4 7 4 12 9 12 12 0 8 -9 4 -16 -8z"/>
 <path d="M613 323 c4 -3 10 -3 14 0 3 4 0 7 -7 7 -7 0 -10 -3 -7 -7z"/>
 <path d="M393 163 c4 -3 10 -3 14 0 3 4 0 7 -7 7 -7 0 -10 -3 -7 -7z"/>
 <path d="M343 153 c4 -3 10 -3 14 0 3 4 0 7 -7 7 -7 0 -10 -3 -7 -7z"/>
 <path d="M724 148 c-4 -7 -3 -8 4 -4 7 4 12 9 12 12 0 8 -9 4 -16 -8z"/>
 <path d="M545 130 c3 -5 8 -10 11 -10 3 0 2 5 -1 10 -3 6 -8 10 -11 10 -3 0 -2 -4 1 -10z"/>
 <path d="M474 68 c-4 -7 -3 -8 4 -4 12 7 16 16 8 16 -3 0 -8 -5 -12 -12z"/>
 <path d="M425 40 c3 -5 8 -10 11 -10 3 0 2 5 -1 10 -3 6 -8 10 -11 10 -3 0 -2 -4 1 -10z"/>
 </g>
<g id="layer107" fill="#727d83" stroke="none">
 <path d="M623 553 c4 -3 10 -3 14 0 3 4 0 7 -7 7 -7 0 -10 -3 -7 -7z"/>
 <path d="M853 553 c4 -3 10 -3 14 0 3 4 0 7 -7 7 -7 0 -10 -3 -7 -7z"/>
 <path d="M933 553 c4 -3 10 -3 14 0 3 4 0 7 -7 7 -7 0 -10 -3 -7 -7z"/>
 <path d="M1053 553 c4 -3 10 -3 14 0 3 4 0 7 -7 7 -7 0 -10 -3 -7 -7z"/>
 <path d="M1293 553 c4 -3 10 -3 14 0 3 4 0 7 -7 7 -7 0 -10 -3 -7 -7z"/>
 <path d="M1523 553 c4 -3 10 -3 14 0 3 4 0 7 -7 7 -7 0 -10 -3 -7 -7z"/>
 <path d="M1673 553 c9 -2 23 -2 30 0 6 3 -1 5 -18 5 -16 0 -22 -2 -12 -5z"/>
 <path d="M1211 534 c0 -11 3 -14 6 -6 3 7 2 16 -1 19 -3 4 -6 -2 -5 -13z"/>
 <path d="M1253 515 c0 -22 2 -30 4 -17 2 12 2 30 0 40 -3 9 -5 -1 -4 -23z"/>
 <path d="M1320 540 c0 -7 3 -10 7 -7 3 4 3 10 0 14 -4 3 -7 0 -7 -7z"/>
 <path d="M1211 464 c0 -11 3 -14 6 -6 3 7 2 16 -1 19 -3 4 -6 -2 -5 -13z"/>
 <path d="M1251 454 c0 -11 3 -14 6 -6 3 7 2 16 -1 19 -3 4 -6 -2 -5 -13z"/>
 <path d="M1320 440 c0 -7 3 -10 7 -7 3 4 3 10 0 14 -4 3 -7 0 -7 -7z"/>
 <path d="M785 429 c-4 -6 -5 -12 -2 -15 2 -3 7 2 10 11 7 17 1 20 -8 4z"/>
 <path d="M1193 433 c4 -3 10 -3 14 0 3 4 0 7 -7 7 -7 0 -10 -3 -7 -7z"/>
 <path d="M1553 433 c4 -3 10 -3 14 0 3 4 0 7 -7 7 -7 0 -10 -3 -7 -7z"/>
 <path d="M1735 430 c3 -5 8 -10 11 -10 3 0 2 5 -1 10 -3 6 -8 10 -11 10 -3 0 -2 -4 1 -10z"/>
 <path d="M441 306 c-9 -11 -9 -16 0 -22 7 -4 9 -3 5 4 -3 5 0 12 6 15 7 2 10 7 7 11 -3 4 -12 0 -18 -8z"/>
 <path d="M430 235 c-7 -9 -11 -17 -9 -20 3 -2 10 5 17 15 14 24 10 26 -8 5z"/>
 <path d="M398 183 c7 -3 16 -2 19 1 4 3 -2 6 -13 5 -11 0 -14 -3 -6 -6z"/>
 <path d="M730 141 c0 -6 4 -13 10 -16 6 -3 7 1 4 9 -7 18 -14 21 -14 7z"/>
 <path d="M480 130 c0 -7 3 -10 7 -7 3 4 3 10 0 14 -4 3 -7 0 -7 -7z"/>
 <path d="M342 110 c0 -14 2 -19 5 -12 2 6 2 18 0 25 -3 6 -5 1 -5 -13z"/>
 </g>
<g id="layer108" fill="#525d64" stroke="none">
 <path d="M333 613 c4 -3 10 -3 14 0 3 4 0 7 -7 7 -7 0 -10 -3 -7 -7z"/>
 <path d="M724 548 c-4 -7 -3 -8 4 -4 7 4 12 9 12 12 0 8 -9 4 -16 -8z"/>
 <path d="M875 550 c3 -5 8 -10 11 -10 3 0 2 5 -1 10 -3 6 -8 10 -11 10 -3 0 -2 -4 1 -10z"/>
 <path d="M650 530 c0 -7 3 -10 7 -7 3 4 3 10 0 14 -4 3 -7 0 -7 -7z"/>
 <path d="M970 520 c0 -7 3 -10 7 -7 3 4 3 10 0 14 -4 3 -7 0 -7 -7z"/>
 <path d="M154 508 c-4 -7 -3 -8 4 -4 12 7 16 16 8 16 -3 0 -8 -5 -12 -12z"/>
 <path d="M1751 494 c0 -11 3 -14 6 -6 3 7 2 16 -1 19 -3 4 -6 -2 -5 -13z"/>
 <path d="M90 470 c0 -5 5 -10 11 -10 5 0 7 5 4 10 -3 6 -8 10 -11 10 -2 0 -4 -4 -4 -10z"/>
 <path d="M881 454 c0 -11 3 -14 6 -6 3 7 2 16 -1 19 -3 4 -6 -2 -5 -13z"/>
 <path d="M1673 453 c9 -2 23 -2 30 0 6 3 -1 5 -18 5 -16 0 -22 -2 -12 -5z"/>
 <path d="M934 438 c-4 -7 -3 -8 4 -4 7 4 12 9 12 12 0 8 -9 4 -16 -8z"/>
 <path d="M1600 421 c0 -5 5 -13 10 -16 6 -3 10 -2 10 4 0 5 -4 13 -10 16 -5 3 -10 2 -10 -4z"/>
 <path d="M735 310 c10 -11 20 -20 23 -20 3 0 -3 9 -13 20 -10 11 -20 20 -23 20 -3 0 3 -9 13 -20z"/>
 <path d="M556 288 c3 -5 10 -6 15 -3 13 9 11 12 -6 12 -8 0 -12 -4 -9 -9z"/>
 <path d="M735 260 c3 -5 8 -10 11 -10 3 0 2 5 -1 10 -3 6 -8 10 -11 10 -3 0 -2 -4 1 -10z"/>
 <path d="M155 250 c3 -5 8 -10 11 -10 3 0 2 5 -1 10 -3 6 -8 10 -11 10 -3 0 -2 -4 1 -10z"/>
 <path d="M480 240 c0 -7 3 -10 7 -7 3 4 3 10 0 14 -4 3 -7 0 -7 -7z"/>
 <path d="M780 230 c0 -7 3 -10 7 -7 3 4 3 10 0 14 -4 3 -7 0 -7 -7z"/>
 <path d="M195 220 c3 -5 8 -10 11 -10 3 0 2 5 -1 10 -3 6 -8 10 -11 10 -3 0 -2 -4 1 -10z"/>
 <path d="M780 170 c0 -7 3 -10 7 -7 3 4 3 10 0 14 -4 3 -7 0 -7 -7z"/>
 <path d="M729 83 c-13 -16 -12 -17 4 -4 9 7 17 15 17 17 0 8 -8 3 -21 -13z"/>
 <path d="M603 63 c4 -3 10 -3 14 0 3 4 0 7 -7 7 -7 0 -10 -3 -7 -7z"/>
 <path d="M633 63 c4 -3 10 -3 14 0 3 4 0 7 -7 7 -7 0 -10 -3 -7 -7z"/>
 <path d="M693 63 c4 -3 10 -3 14 0 3 4 0 7 -7 7 -7 0 -10 -3 -7 -7z"/>
 <path d="M450 50 c0 -7 3 -10 7 -7 3 4 3 10 0 14 -4 3 -7 0 -7 -7z"/>
 </g>
<g id="layer109" fill="#cad2d6" stroke="none">
 <path d="M843 490 c0 -30 2 -43 4 -27 2 15 2 39 0 55 -2 15 -4 2 -4 -28z"/>
 <path d="M762 510 c0 -14 2 -19 5 -12 2 6 2 18 0 25 -3 6 -5 1 -5 -13z"/>
 <path d="M1040 520 c0 -7 3 -10 7 -7 3 4 3 10 0 14 -4 3 -7 0 -7 -7z"/>
 <path d="M1042 480 c0 -14 2 -19 5 -12 2 6 2 18 0 25 -3 6 -5 1 -5 -13z"/>
 <path d="M1653 483 c4 -3 10 -3 14 0 3 4 0 7 -7 7 -7 0 -10 -3 -7 -7z"/>
 <path d="M1683 483 c4 -3 10 -3 14 0 3 4 0 7 -7 7 -7 0 -10 -3 -7 -7z"/>
 <path d="M762 460 c0 -14 2 -19 5 -12 2 6 2 18 0 25 -3 6 -5 1 -5 -13z"/>
 <path d="M1353 463 c9 -2 23 -2 30 0 6 3 -1 5 -18 5 -16 0 -22 -2 -12 -5z"/>
 <path d="M125 430 c3 -5 8 -10 11 -10 3 0 2 5 -1 10 -3 6 -8 10 -11 10 -3 0 -2 -4 1 -10z"/>
 <path d="M130 360 c0 -7 3 -10 7 -7 3 4 3 10 0 14 -4 3 -7 0 -7 -7z"/>
 <path d="M524 258 c-4 -7 -3 -8 4 -4 12 7 16 16 8 16 -3 0 -8 -5 -12 -12z"/>
 <path d="M165 250 c3 -5 8 -10 11 -10 3 0 2 5 -1 10 -3 6 -8 10 -11 10 -3 0 -2 -4 1 -10z"/>
 <path d="M365 230 c3 -5 8 -10 11 -10 3 0 2 5 -1 10 -3 6 -8 10 -11 10 -3 0 -2 -4 1 -10z"/>
 <path d="M500 190 c0 -7 3 -10 7 -7 3 4 3 10 0 14 -4 3 -7 0 -7 -7z"/>
 <path d="M700 110 c-9 -6 -10 -10 -3 -10 6 0 15 5 18 10 8 12 4 12 -15 0z"/>
 <path d="M623 83 c4 -3 10 -3 14 0 3 4 0 7 -7 7 -7 0 -10 -3 -7 -7z"/>
 </g>
<g id="layer110" fill="#5a666b" stroke="none">
 <path d="M278 613 c7 -3 16 -2 19 1 4 3 -2 6 -13 5 -11 0 -14 -3 -6 -6z"/>
 <path d="M313 613 c4 -3 10 -3 14 0 3 4 0 7 -7 7 -7 0 -10 -3 -7 -7z"/>
 <path d="M353 613 c4 -3 10 -3 14 0 3 4 0 7 -7 7 -7 0 -10 -3 -7 -7z"/>
 <path d="M1125 550 c3 -5 8 -10 11 -10 3 0 2 5 -1 10 -3 6 -8 10 -11 10 -3 0 -2 -4 1 -10z"/>
 <path d="M720 530 c0 -7 3 -10 7 -7 3 4 3 10 0 14 -4 3 -7 0 -7 -7z"/>
 <path d="M883 505 c0 -22 2 -30 4 -17 2 12 2 30 0 40 -3 9 -5 -1 -4 -23z"/>
 <path d="M1750 520 c0 -7 3 -10 7 -7 3 4 3 10 0 14 -4 3 -7 0 -7 -7z"/>
 <path d="M673 483 c4 -3 10 -3 14 0 3 4 0 7 -7 7 -7 0 -10 -3 -7 -7z"/>
 <path d="M720 480 c0 -7 3 -10 7 -7 3 4 3 10 0 14 -4 3 -7 0 -7 -7z"/>
 <path d="M930 480 c0 -7 3 -10 7 -7 3 4 3 10 0 14 -4 3 -7 0 -7 -7z"/>
 <path d="M670 460 c0 -7 3 -10 7 -7 3 4 3 10 0 14 -4 3 -7 0 -7 -7z"/>
 <path d="M635 430 c3 -5 8 -10 11 -10 3 0 2 5 -1 10 -3 6 -8 10 -11 10 -3 0 -2 -4 1 -10z"/>
 <path d="M101 394 c0 -11 3 -14 6 -6 3 7 2 16 -1 19 -3 4 -6 -2 -5 -13z"/>
 <path d="M492 375 c0 -16 2 -22 5 -12 2 9 2 23 0 30 -3 6 -5 -1 -5 -18z"/>
 <path d="M520 370 c0 -7 3 -10 7 -7 3 4 3 10 0 14 -4 3 -7 0 -7 -7z"/>
 <path d="M633 353 c4 -3 10 -3 14 0 3 4 0 7 -7 7 -7 0 -10 -3 -7 -7z"/>
 <path d="M444 228 c-4 -7 -3 -8 4 -4 12 7 16 16 8 16 -3 0 -8 -5 -12 -12z"/>
 <path d="M521 214 c0 -11 3 -14 6 -6 3 7 2 16 -1 19 -3 4 -6 -2 -5 -13z"/>
 <path d="M782 200 c0 -14 2 -19 5 -12 2 6 2 18 0 25 -3 6 -5 1 -5 -13z"/>
 <path d="M263 193 c4 -3 10 -3 14 0 3 4 0 7 -7 7 -7 0 -10 -3 -7 -7z"/>
 <path d="M298 193 c7 -3 16 -2 19 1 4 3 -2 6 -13 5 -11 0 -14 -3 -6 -6z"/>
 <path d="M336 134 c-5 -14 -4 -15 9 -4 17 14 19 20 6 20 -5 0 -12 -7 -15 -16z"/>
 <path d="M460 60 c0 -7 3 -10 7 -7 3 4 3 10 0 14 -4 3 -7 0 -7 -7z"/>
 </g>
<g id="layer111" fill="#8a9397" stroke="none">
 <path d="M440 566 c0 -2 8 -10 18 -17 15 -13 16 -12 3 4 -13 16 -21 21 -21 13z"/>
 <path d="M1433 485 c0 -38 2 -53 4 -32 2 20 2 52 0 70 -2 17 -4 1 -4 -38z"/>
 <path d="M420 536 c0 -2 8 -10 18 -17 15 -13 16 -12 3 4 -13 16 -21 21 -21 13z"/>
 <path d="M1501 524 c0 -11 3 -14 6 -6 3 7 2 16 -1 19 -3 4 -6 -2 -5 -13z"/>
 <path d="M125 520 c3 -5 8 -10 11 -10 3 0 2 5 -1 10 -3 6 -8 10 -11 10 -3 0 -2 -4 1 -10z"/>
 <path d="M180 520 c0 -7 3 -10 7 -7 3 4 3 10 0 14 -4 3 -7 0 -7 -7z"/>
 <path d="M1320 500 c0 -7 3 -10 7 -7 3 4 3 10 0 14 -4 3 -7 0 -7 -7z"/>
 <path d="M1659 437 c5 -5 24 -7 42 -5 33 3 33 4 -8 8 -23 3 -39 2 -34 -3z"/>
 <path d="M703 433 c4 -3 10 -3 14 0 3 4 0 7 -7 7 -7 0 -10 -3 -7 -7z"/>
 <path d="M808 433 c7 -3 16 -2 19 1 4 3 -2 6 -13 5 -11 0 -14 -3 -6 -6z"/>
 <path d="M908 433 c7 -3 16 -2 19 1 4 3 -2 6 -13 5 -11 0 -14 -3 -6 -6z"/>
 <path d="M1018 433 c7 -3 16 -2 19 1 4 3 -2 6 -13 5 -11 0 -14 -3 -6 -6z"/>
 <path d="M1478 433 c7 -3 16 -2 19 1 4 3 -2 6 -13 5 -11 0 -14 -3 -6 -6z"/>
 <path d="M1573 433 c4 -3 10 -3 14 0 3 4 0 7 -7 7 -7 0 -10 -3 -7 -7z"/>
 <path d="M1314 408 c-4 -7 -3 -8 4 -4 12 7 16 16 8 16 -3 0 -8 -5 -12 -12z"/>
 <path d="M1734 408 c-4 -7 -3 -8 4 -4 12 7 16 16 8 16 -3 0 -8 -5 -12 -12z"/>
 <path d="M130 400 c0 -7 3 -10 7 -7 3 4 3 10 0 14 -4 3 -7 0 -7 -7z"/>
 <path d="M521 306 c-8 -10 -8 -16 2 -24 10 -9 13 -6 13 13 0 29 0 29 -15 11z"/>
 <path d="M370 170 c0 -7 3 -10 7 -7 3 4 3 10 0 14 -4 3 -7 0 -7 -7z"/>
 <path d="M520 116 c0 -2 8 -10 18 -17 15 -13 16 -12 3 4 -13 16 -21 21 -21 13z"/>
 <path d="M715 89 c-4 -6 -5 -12 -2 -15 2 -3 7 2 10 11 7 17 1 20 -8 4z"/>
 <path d="M474 78 c-4 -7 -3 -8 4 -4 7 4 12 9 12 12 0 8 -9 4 -16 -8z"/>
 <path d="M355 60 c3 -5 8 -10 11 -10 3 0 2 5 -1 10 -3 6 -8 10 -11 10 -3 0 -2 -4 1 -10z"/>
 <path d="M433 43 c4 -3 10 -3 14 0 3 4 0 7 -7 7 -7 0 -10 -3 -7 -7z"/>
 </g>
<g id="layer112" fill="#dce6ea" stroke="none">
 <path d="M180 570 c0 -7 3 -10 7 -7 3 4 3 10 0 14 -4 3 -7 0 -7 -7z"/>
 <path d="M435 560 c3 -5 8 -10 11 -10 3 0 2 5 -1 10 -3 6 -8 10 -11 10 -3 0 -2 -4 1 -10z"/>
 <path d="M465 530 c3 -5 8 -10 11 -10 3 0 2 5 -1 10 -3 6 -8 10 -11 10 -3 0 -2 -4 1 -10z"/>
 <path d="M1735 530 c3 -5 8 -10 11 -10 3 0 2 5 -1 10 -3 6 -8 10 -11 10 -3 0 -2 -4 1 -10z"/>
 <path d="M707 494 c13 -3 23 -15 26 -30 4 -21 4 -21 3 3 -1 22 -6 28 -26 30 -21 1 -21 0 -3 -3z"/>
 <path d="M1173 493 c9 -2 23 -2 30 0 6 3 -1 5 -18 5 -16 0 -22 -2 -12 -5z"/>
 <path d="M1704 488 c-4 -7 -3 -8 4 -4 12 7 16 16 8 16 -3 0 -8 -5 -12 -12z"/>
 <path d="M145 479 c-4 -6 -5 -12 -2 -15 2 -3 7 2 10 11 7 17 1 20 -8 4z"/>
 <path d="M630 470 c0 -7 3 -10 7 -7 3 4 3 10 0 14 -4 3 -7 0 -7 -7z"/>
 <path d="M1620 440 c0 -7 3 -10 7 -7 3 4 3 10 0 14 -4 3 -7 0 -7 -7z"/>
 <path d="M645 430 c3 -5 8 -10 11 -10 3 0 2 5 -1 10 -3 6 -8 10 -11 10 -3 0 -2 -4 1 -10z"/>
 <path d="M1590 420 c0 -7 3 -10 7 -7 3 4 3 10 0 14 -4 3 -7 0 -7 -7z"/>
 <path d="M507 400 c-3 -11 -2 -22 2 -24 4 -3 8 6 9 20 2 29 -4 31 -11 4z"/>
 <path d="M630 340 c0 -7 3 -10 7 -7 3 4 3 10 0 14 -4 3 -7 0 -7 -7z"/>
 <path d="M674 328 c-4 -7 -3 -8 4 -4 7 4 12 9 12 12 0 8 -9 4 -16 -8z"/>
 <path d="M543 313 c4 -3 10 -3 14 0 3 4 0 7 -7 7 -7 0 -10 -3 -7 -7z"/>
 <path d="M476 283 c-6 -14 -5 -15 5 -6 7 7 10 15 7 18 -3 3 -9 -2 -12 -12z"/>
 <path d="M335 220 c3 -5 8 -10 11 -10 3 0 2 5 -1 10 -3 6 -8 10 -11 10 -3 0 -2 -4 1 -10z"/>
 <path d="M765 220 c-3 -5 -1 -10 4 -10 6 0 11 5 11 10 0 6 -2 10 -4 10 -3 0 -8 -4 -11 -10z"/>
 <path d="M511 204 c0 -11 3 -14 6 -6 3 7 2 16 -1 19 -3 4 -6 -2 -5 -13z"/>
 <path d="M278 203 c6 -2 18 -2 25 0 6 3 1 5 -13 5 -14 0 -19 -2 -12 -5z"/>
 <path d="M760 150 c0 -7 3 -10 7 -7 3 4 3 10 0 14 -4 3 -7 0 -7 -7z"/>
 <path d="M554 98 c-4 -7 -3 -8 4 -4 7 4 12 9 12 12 0 8 -9 4 -16 -8z"/>
 <path d="M606 82 c-3 -5 1 -9 9 -9 8 0 12 4 9 9 -3 4 -7 8 -9 8 -2 0 -6 -4 -9 -8z"/>
 <path d="M355 50 c3 -5 8 -10 11 -10 3 0 2 5 -1 10 -3 6 -8 10 -11 10 -3 0 -2 -4 1 -10z"/>
 </g>
<g id="layer113" fill="#97a1a6" stroke="none">
 <path d="M154 538 c-4 -7 -3 -8 4 -4 7 4 12 9 12 12 0 8 -9 4 -16 -8z"/>
 <path d="M920 540 c0 -7 3 -10 7 -7 3 4 3 10 0 14 -4 3 -7 0 -7 -7z"/>
 <path d="M1283 475 c0 -38 2 -53 4 -32 2 20 2 52 0 70 -2 17 -4 1 -4 -38z"/>
 <path d="M1392 515 c0 -16 2 -22 5 -12 2 9 2 23 0 30 -3 6 -5 -1 -5 -18z"/>
 <path d="M1541 524 c0 -11 3 -14 6 -6 3 7 2 16 -1 19 -3 4 -6 -2 -5 -13z"/>
 <path d="M610 520 c0 -7 3 -10 7 -7 3 4 3 10 0 14 -4 3 -7 0 -7 -7z"/>
 <path d="M1668 523 c6 -2 18 -2 25 0 6 3 1 5 -13 5 -14 0 -19 -2 -12 -5z"/>
 <path d="M165 510 c-3 -5 -1 -10 4 -10 6 0 11 5 11 10 0 6 -2 10 -4 10 -3 0 -8 -4 -11 -10z"/>
 <path d="M110 499 c0 -5 5 -7 10 -4 6 3 10 8 10 11 0 2 -4 4 -10 4 -5 0 -10 -5 -10 -11z"/>
 <path d="M970 500 c0 -7 3 -10 7 -7 3 4 3 10 0 14 -4 3 -7 0 -7 -7z"/>
 <path d="M1540 490 c0 -7 3 -10 7 -7 3 4 3 10 0 14 -4 3 -7 0 -7 -7z"/>
 <path d="M660 480 c0 -7 3 -10 7 -7 3 4 3 10 0 14 -4 3 -7 0 -7 -7z"/>
 <path d="M1541 454 c0 -11 3 -14 6 -6 3 7 2 16 -1 19 -3 4 -6 -2 -5 -13z"/>
 <path d="M1390 436 c0 -14 4 -27 8 -30 5 -3 6 8 4 25 -5 35 -12 38 -12 5z"/>
 <path d="M995 440 c3 -5 8 -10 11 -10 3 0 2 5 -1 10 -3 6 -8 10 -11 10 -3 0 -2 -4 1 -10z"/>
 <path d="M883 433 c4 -3 10 -3 14 0 3 4 0 7 -7 7 -7 0 -10 -3 -7 -7z"/>
 <path d="M1173 433 c4 -3 10 -3 14 0 3 4 0 7 -7 7 -7 0 -10 -3 -7 -7z"/>
 <path d="M930 422 c0 -8 -25 -13 -72 -14 l-73 -2 69 -3 c64 -4 100 7 83 24 -4 3 -7 1 -7 -5z"/>
 <path d="M1230 410 c-23 -7 -23 -8 -3 -9 12 -1 25 4 28 9 3 6 5 10 3 9 -2 -1 -14 -5 -28 -9z"/>
 <path d="M688 403 c6 -2 18 -2 25 0 6 3 1 5 -13 5 -14 0 -19 -2 -12 -5z"/>
 <path d="M738 403 c7 -3 16 -2 19 1 4 3 -2 6 -13 5 -11 0 -14 -3 -6 -6z"/>
 <path d="M1023 403 c4 -3 10 -3 14 0 3 4 0 7 -7 7 -7 0 -10 -3 -7 -7z"/>
 <path d="M1053 403 c4 -3 10 -3 14 0 3 4 0 7 -7 7 -7 0 -10 -3 -7 -7z"/>
 <path d="M1168 403 c6 -2 18 -2 25 0 6 3 1 5 -13 5 -14 0 -19 -2 -12 -5z"/>
 <path d="M1473 403 c9 -2 23 -2 30 0 6 3 -1 5 -18 5 -16 0 -22 -2 -12 -5z"/>
 <path d="M1538 403 c12 -2 30 -2 40 0 9 3 -1 5 -23 4 -22 0 -30 -2 -17 -4z"/>
 <path d="M1653 403 c15 -2 39 -2 55 0 15 2 2 4 -28 4 -30 0 -43 -2 -27 -4z"/>
 <path d="M715 290 c3 -5 8 -10 11 -10 3 0 2 5 -1 10 -3 6 -8 10 -11 10 -3 0 -2 -4 1 -10z"/>
 <path d="M475 280 c3 -5 8 -10 11 -10 3 0 2 5 -1 10 -3 6 -8 10 -11 10 -3 0 -2 -4 1 -10z"/>
 <path d="M504 268 c-4 -7 -3 -8 4 -4 12 7 16 16 8 16 -3 0 -8 -5 -12 -12z"/>
 <path d="M343 233 c4 -3 10 -3 14 0 3 4 0 7 -7 7 -7 0 -10 -3 -7 -7z"/>
 <path d="M445 160 c-4 -6 -1 -9 7 -8 7 2 12 -3 10 -10 -1 -8 2 -11 8 -7 8 5 7 11 -1 21 -14 17 -16 17 -24 4z"/>
 <path d="M500 160 c0 -7 3 -10 7 -7 3 4 3 10 0 14 -4 3 -7 0 -7 -7z"/>
 <path d="M331 104 c0 -11 3 -14 6 -6 3 7 2 16 -1 19 -3 4 -6 -2 -5 -13z"/>
 <path d="M470 94 c0 -8 5 -12 10 -9 6 4 8 11 5 16 -9 14 -15 11 -15 -7z"/>
 <path d="M345 50 c3 -5 8 -10 11 -10 3 0 2 5 -1 10 -3 6 -8 10 -11 10 -3 0 -2 -4 1 -10z"/>
 </g>
<g id="layer114" fill="#36454b" stroke="none">
 <path d="M423 595 c0 -8 4 -12 9 -9 5 3 6 10 3 15 -9 13 -12 11 -12 -6z"/>
 <path d="M175 590 c3 -5 8 -10 11 -10 3 0 2 5 -1 10 -3 6 -8 10 -11 10 -3 0 -2 -4 1 -10z"/>
 <path d="M238 573 c7 -3 16 -2 19 1 4 3 -2 6 -13 5 -11 0 -14 -3 -6 -6z"/>
 <path d="M323 573 c4 -3 10 -3 14 0 3 4 0 7 -7 7 -7 0 -10 -3 -7 -7z"/>
 <path d="M480 551 c0 -6 4 -13 10 -16 6 -3 7 1 4 9 -7 18 -14 21 -14 7z"/>
 <path d="M602 540 c0 -14 2 -19 5 -12 2 6 2 18 0 25 -3 6 -5 1 -5 -13z"/>
 <path d="M645 550 c3 -5 8 -10 11 -10 3 0 2 5 -1 10 -3 6 -8 10 -11 10 -3 0 -2 -4 1 -10z"/>
 <path d="M714 548 c-4 -7 -3 -8 4 -4 7 4 12 9 12 12 0 8 -9 4 -16 -8z"/>
 <path d="M835 549 c-4 -6 -5 -12 -2 -15 2 -3 7 2 10 11 7 17 1 20 -8 4z"/>
 <path d="M914 548 c-4 -7 -3 -8 4 -4 7 4 12 9 12 12 0 8 -9 4 -16 -8z"/>
 <path d="M405 540 c3 -5 8 -10 11 -10 3 0 2 5 -1 10 -3 6 -8 10 -11 10 -3 0 -2 -4 1 -10z"/>
 <path d="M1030 540 c0 -7 3 -10 7 -7 3 4 3 10 0 14 -4 3 -7 0 -7 -7z"/>
 <path d="M1380 530 c0 -7 3 -10 7 -7 3 4 3 10 0 14 -4 3 -7 0 -7 -7z"/>
 <path d="M196 522 c-3 -5 1 -9 9 -9 8 0 12 4 9 9 -3 4 -7 8 -9 8 -2 0 -6 -4 -9 -8z"/>
 <path d="M678 523 c6 -2 18 -2 25 0 6 3 1 5 -13 5 -14 0 -19 -2 -12 -5z"/>
 <path d="M1085 519 c-4 -6 -5 -12 -2 -15 2 -3 7 2 10 11 7 17 1 20 -8 4z"/>
 <path d="M104 508 c-4 -7 -3 -8 4 -4 12 7 16 16 8 16 -3 0 -8 -5 -12 -12z"/>
 <path d="M415 510 c3 -5 8 -10 11 -10 3 0 2 5 -1 10 -3 6 -8 10 -11 10 -3 0 -2 -4 1 -10z"/>
 <path d="M1640 499 c0 -5 9 -9 20 -9 11 0 20 2 20 4 0 2 -9 6 -20 9 -11 3 -20 1 -20 -4z"/>
 <path d="M444 488 c-4 -7 -3 -8 4 -4 7 4 12 9 12 12 0 8 -9 4 -16 -8z"/>
 <path d="M980 490 c0 -7 3 -10 7 -7 3 4 3 10 0 14 -4 3 -7 0 -7 -7z"/>
 <path d="M160 480 c0 -7 3 -10 7 -7 3 4 3 10 0 14 -4 3 -7 0 -7 -7z"/>
 <path d="M413 483 c4 -3 10 -3 14 0 3 4 0 7 -7 7 -7 0 -10 -3 -7 -7z"/>
 <path d="M1083 473 c0 -9 4 -10 14 -2 7 6 13 12 13 14 0 1 -6 2 -13 2 -8 0 -14 -6 -14 -14z"/>
 <path d="M85 460 c3 -5 8 -10 11 -10 3 0 2 5 -1 10 -3 6 -8 10 -11 10 -3 0 -2 -4 1 -10z"/>
 <path d="M620 460 c0 -7 3 -10 7 -7 3 4 3 10 0 14 -4 3 -7 0 -7 -7z"/>
 <path d="M994 458 c-4 -7 -3 -8 4 -4 7 4 12 9 12 12 0 8 -9 4 -16 -8z"/>
 <path d="M684 448 c-4 -7 -3 -8 4 -4 7 4 12 9 12 12 0 8 -9 4 -16 -8z"/>
 <path d="M1030 450 c0 -7 3 -10 7 -7 3 4 3 10 0 14 -4 3 -7 0 -7 -7z"/>
 <path d="M1358 453 c6 -2 18 -2 25 0 6 3 1 5 -13 5 -14 0 -19 -2 -12 -5z"/>
 <path d="M520 440 c0 -7 3 -10 7 -7 3 4 3 10 0 14 -4 3 -7 0 -7 -7z"/>
 <path d="M770 434 c0 -8 5 -12 10 -9 6 4 8 11 5 16 -9 14 -15 11 -15 -7z"/>
 <path d="M140 430 c0 -7 3 -10 7 -7 3 4 3 10 0 14 -4 3 -7 0 -7 -7z"/>
 <path d="M1125 420 c3 -5 8 -10 11 -10 3 0 2 5 -1 10 -3 6 -8 10 -11 10 -3 0 -2 -4 1 -10z"/>
 <path d="M640 416 c0 -2 7 -7 16 -10 8 -3 12 -2 9 4 -6 10 -25 14 -25 6z"/>
 <path d="M164 398 c-4 -7 -3 -8 4 -4 12 7 16 16 8 16 -3 0 -8 -5 -12 -12z"/>
 <path d="M615 400 c3 -5 8 -10 11 -10 3 0 2 5 -1 10 -3 6 -8 10 -11 10 -3 0 -2 -4 1 -10z"/>
 <path d="M140 370 c0 -7 3 -10 7 -7 3 4 3 10 0 14 -4 3 -7 0 -7 -7z"/>
 <path d="M543 373 c4 -3 10 -3 14 0 3 4 0 7 -7 7 -7 0 -10 -3 -7 -7z"/>
 <path d="M470 360 c0 -7 3 -10 7 -7 3 4 3 10 0 14 -4 3 -7 0 -7 -7z"/>
 <path d="M565 361 c-3 -5 0 -13 6 -17 7 -4 9 -3 5 4 -3 5 0 13 6 15 9 4 10 6 1 6 -6 1 -14 -3 -18 -8z"/>
 <path d="M603 353 c4 -3 10 -3 14 0 3 4 0 7 -7 7 -7 0 -10 -3 -7 -7z"/>
 <path d="M653 353 c4 -3 10 -3 14 0 3 4 0 7 -7 7 -7 0 -10 -3 -7 -7z"/>
 <path d="M150 340 c0 -7 3 -10 7 -7 3 4 3 10 0 14 -4 3 -7 0 -7 -7z"/>
 <path d="M444 328 c-4 -6 -3 -8 4 -4 5 3 13 0 15 -6 3 -8 6 -6 6 5 1 19 -14 23 -25 5z"/>
 <path d="M110 311 c0 -6 4 -13 10 -16 6 -3 7 1 4 9 -7 18 -14 21 -14 7z"/>
 <path d="M570 310 c0 -7 3 -10 7 -7 3 4 3 10 0 14 -4 3 -7 0 -7 -7z"/>
 <path d="M703 287 c0 -8 6 -14 14 -14 9 0 10 4 2 14 -6 7 -12 13 -14 13 -1 0 -2 -6 -2 -13z"/>
 <path d="M185 280 c3 -5 8 -10 11 -10 3 0 2 5 -1 10 -3 6 -8 10 -11 10 -3 0 -2 -4 1 -10z"/>
 <path d="M424 258 c-12 -14 -13 -18 -3 -10 9 6 18 10 21 7 2 -3 5 2 5 10 0 19 0 19 -23 -7z"/>
 <path d="M503 253 c4 -3 10 -3 14 0 3 4 0 7 -7 7 -7 0 -10 -3 -7 -7z"/>
 <path d="M353 243 c4 -3 10 -3 14 0 3 4 0 7 -7 7 -7 0 -10 -3 -7 -7z"/>
 <path d="M175 230 c3 -5 8 -10 11 -10 3 0 2 5 -1 10 -3 6 -8 10 -11 10 -3 0 -2 -4 1 -10z"/>
 <path d="M308 233 c6 -2 18 -2 25 0 6 3 1 5 -13 5 -14 0 -19 -2 -12 -5z"/>
 <path d="M493 233 c4 -3 10 -3 14 0 3 4 0 7 -7 7 -7 0 -10 -3 -7 -7z"/>
 <path d="M396 217 c3 -10 9 -15 12 -12 3 3 0 11 -7 18 -10 9 -11 8 -5 -6z"/>
 <path d="M475 220 c3 -5 8 -10 11 -10 3 0 2 5 -1 10 -3 6 -8 10 -11 10 -3 0 -2 -4 1 -10z"/>
 <path d="M424 208 c-4 -7 -3 -8 4 -4 12 7 16 16 8 16 -3 0 -8 -5 -12 -12z"/>
 <path d="M450 210 c0 -5 5 -10 11 -10 5 0 7 5 4 10 -3 6 -8 10 -11 10 -2 0 -4 -4 -4 -10z"/>
 <path d="M350 206 c0 -2 8 -10 18 -17 15 -13 16 -12 3 4 -13 16 -21 21 -21 13z"/>
 <path d="M490 190 c0 -7 3 -10 7 -7 3 4 3 10 0 14 -4 3 -7 0 -7 -7z"/>
 <path d="M465 171 c-3 -5 -2 -12 3 -15 5 -3 9 1 9 9 0 17 -3 19 -12 6z"/>
 <path d="M736 167 c-16 -12 -16 -14 -3 -14 9 0 18 6 21 14 7 16 4 16 -18 0z"/>
 <path d="M330 150 c0 -7 3 -10 7 -7 3 4 3 10 0 14 -4 3 -7 0 -7 -7z"/>
 <path d="M794 148 c-4 -7 -3 -8 4 -4 7 4 12 9 12 12 0 8 -9 4 -16 -8z"/>
 <path d="M555 140 c3 -5 8 -10 11 -10 3 0 2 5 -1 10 -3 6 -8 10 -11 10 -3 0 -2 -4 1 -10z"/>
 <path d="M696 142 c-3 -5 1 -9 9 -9 8 0 12 4 9 9 -3 4 -7 8 -9 8 -2 0 -6 -4 -9 -8z"/>
 <path d="M454 118 c-4 -7 -3 -8 4 -4 12 7 16 16 8 16 -3 0 -8 -5 -12 -12z"/>
 <path d="M720 109 c0 -5 5 -7 10 -4 6 3 10 8 10 11 0 2 -4 4 -10 4 -5 0 -10 -5 -10 -11z"/>
 <path d="M490 99 c0 -5 5 -7 10 -4 6 3 10 8 10 11 0 2 -4 4 -10 4 -5 0 -10 -5 -10 -11z"/>
 <path d="M635 100 c3 -5 8 -10 11 -10 3 0 2 5 -1 10 -3 6 -8 10 -11 10 -3 0 -2 -4 1 -10z"/>
 <path d="M755 100 c3 -5 8 -10 11 -10 3 0 2 5 -1 10 -3 6 -8 10 -11 10 -3 0 -2 -4 1 -10z"/>
 <path d="M780 100 c0 -7 3 -10 7 -7 3 4 3 10 0 14 -4 3 -7 0 -7 -7z"/>
 <path d="M690 79 c-7 -11 -10 -23 -7 -25 2 -2 9 7 15 21 14 30 7 33 -8 4z"/>
 <path d="M455 80 c3 -5 8 -10 11 -10 3 0 2 5 -1 10 -3 6 -8 10 -11 10 -3 0 -2 -4 1 -10z"/>
 <path d="M323 63 c4 -3 10 -3 14 0 3 4 0 7 -7 7 -7 0 -10 -3 -7 -7z"/>
 <path d="M425 60 c3 -5 8 -10 11 -10 3 0 2 5 -1 10 -3 6 -8 10 -11 10 -3 0 -2 -4 1 -10z"/>
 <path d="M583 63 c4 -3 10 -3 14 0 3 4 0 7 -7 7 -7 0 -10 -3 -7 -7z"/>
 <path d="M393 43 c4 -3 10 -3 14 0 3 4 0 7 -7 7 -7 0 -10 -3 -7 -7z"/>
 <path d="M463 43 c4 -3 10 -3 14 0 3 4 0 7 -7 7 -7 0 -10 -3 -7 -7z"/>
 <path d="M340 31 c0 -6 4 -13 10 -16 6 -3 7 1 4 9 -7 18 -14 21 -14 7z"/>
 </g>
<g id="layer115" fill="#f3fafb" stroke="none">
 <path d="M250 603 c-8 -3 -26 -10 -39 -15 -13 -5 -21 -11 -18 -14 3 -3 15 0 28 6 29 16 110 14 151 -4 44 -18 96 -71 114 -115 9 -20 15 -58 15 -85 0 -26 3 -46 6 -43 3 3 5 31 4 62 -1 90 -45 159 -126 196 -39 18 -104 23 -135 12z"/>
 <path d="M154 548 l-19 -23 23 19 c21 18 27 26 19 26 -2 0 -12 -10 -23 -22z"/>
 <path d="M620 538 c1 -32 28 -102 45 -114 10 -8 36 -14 57 -14 l38 0 0 71 c0 52 -3 70 -12 67 -7 -3 -13 -11 -13 -19 0 -9 -14 -15 -42 -17 -34 -3 -42 0 -48 17 -7 23 -25 29 -25 9z m115 -73 c0 -25 -4 -31 -27 -33 -19 -2 -30 3 -38 18 -17 32 -6 47 32 46 30 -1 33 -4 33 -31z"/>
 <path d="M850 490 c0 -57 -1 -60 -24 -60 -14 0 -28 -4 -31 -10 -4 -6 20 -10 64 -10 41 0 71 4 71 10 0 6 -13 10 -30 10 l-30 0 0 60 c0 33 -4 60 -10 60 -6 0 -10 -27 -10 -60z"/>
 <path d="M937 544 c-10 -10 22 -109 40 -121 9 -7 34 -13 55 -13 l38 0 0 70 c0 40 -4 70 -10 70 -6 0 -10 -26 -10 -59 0 -62 -9 -74 -45 -61 -14 5 -25 24 -34 59 -12 50 -23 66 -34 55z"/>
 <path d="M1117 493 c17 -69 33 -83 90 -83 l43 0 0 70 c0 44 -4 70 -11 70 -6 0 -13 -9 -16 -20 -4 -16 -14 -20 -44 -20 -28 0 -41 5 -49 20 -21 39 -28 19 -13 -37z m101 -31 c3 -31 2 -33 -25 -30 -17 2 -32 12 -40 28 -14 29 -2 42 37 38 20 -3 26 -9 28 -36z"/>
 <path d="M1296 543 c-3 -3 -6 -35 -6 -70 0 -49 3 -63 15 -63 10 0 15 10 15 30 0 28 2 30 40 30 38 0 40 -2 40 -31 0 -20 4 -29 13 -26 16 5 17 129 0 134 -7 3 -13 -9 -15 -29 -3 -30 -6 -33 -40 -36 -36 -3 -38 -2 -38 27 0 30 -11 46 -24 34z"/>
 <path d="M1517 543 c-4 -3 -7 -30 -7 -60 0 -50 -1 -53 -25 -53 -14 0 -25 -4 -25 -10 0 -6 28 -10 65 -10 37 0 65 4 65 10 0 6 -11 10 -25 10 -24 0 -25 3 -25 60 0 55 -6 70 -23 53z"/>
 <path d="M1634 536 c-10 -8 -16 -18 -12 -22 4 -4 14 -1 22 5 23 20 71 10 71 -14 0 -17 -8 -20 -46 -23 -46 -3 -47 -3 -46 -38 l1 -34 59 0 c36 0 56 4 52 10 -3 6 -24 10 -46 10 -33 0 -40 3 -37 18 2 11 14 18 38 20 41 4 59 17 56 39 -6 39 -74 56 -112 29z"/>
 <path d="M130 450 c0 -7 3 -10 7 -7 3 4 3 10 0 14 -4 3 -7 0 -7 -7z"/>
 <path d="M124 372 c3 -69 20 -102 76 -139 39 -27 112 -31 165 -9 49 21 44 27 -8 8 -102 -37 -209 33 -227 149 l-9 54 3 -63z"/>
 <path d="M570 330 c-8 -5 -10 -10 -5 -10 6 0 17 5 25 10 8 5 11 10 5 10 -5 0 -17 -5 -25 -10z"/>
 <path d="M613 333 c4 -3 10 -3 14 0 3 4 0 7 -7 7 -7 0 -10 -3 -7 -7z"/>
 <path d="M664 330 c36 -11 75 -47 92 -85 7 -16 13 -23 14 -15 1 44 -72 111 -117 109 -10 0 -6 -4 11 -9z"/>
 <path d="M490 310 c0 -7 3 -10 7 -7 3 4 3 10 0 14 -4 3 -7 0 -7 -7z"/>
 <path d="M524 298 c-4 -7 -3 -8 4 -4 12 7 16 16 8 16 -3 0 -8 -5 -12 -12z"/>
 <path d="M771 194 c0 -11 3 -14 6 -6 3 7 2 16 -1 19 -3 4 -6 -2 -5 -13z"/>
 <path d="M511 177 c-2 -39 37 -84 86 -99 34 -9 28 0 -10 16 -33 13 -61 46 -70 81 -4 18 -5 18 -6 2z"/>
 <path d="M670 90 c-9 -6 -10 -10 -3 -10 6 0 15 5 18 10 8 12 4 12 -15 0z"/>
 <path d="M633 73 c4 -3 10 -3 14 0 3 4 0 7 -7 7 -7 0 -10 -3 -7 -7z"/>
 </g>
<g id="layer116" fill="#25373e" stroke="none">
 <path d="M0 325 l0 -325 890 0 890 0 0 325 0 325 -890 0 -890 0 0 -325z m392 279 c33 -17 41 -18 32 -2 -4 7 -3 8 5 4 6 -4 9 -11 7 -15 -3 -4 8 -21 25 -37 24 -23 29 -25 23 -9 -4 11 -4 17 0 14 4 -4 9 -18 11 -32 3 -13 12 -38 20 -53 18 -36 19 -96 0 -149 l-14 -40 41 45 c22 25 42 40 44 35 2 -6 20 -9 39 -7 18 2 48 -3 64 -11 22 -11 31 -12 31 -4 0 7 6 2 13 -9 6 -12 20 -33 31 -48 26 -38 32 -105 12 -145 -9 -17 -14 -37 -10 -43 4 -7 3 -8 -4 -4 -7 4 -12 0 -12 -10 0 -10 -3 -15 -6 -11 -4 3 -20 -1 -37 -9 -27 -15 -29 -15 -24 0 5 14 3 15 -13 6 -37 -20 -87 -12 -123 19 -35 32 -59 88 -50 121 3 12 0 20 -6 20 -7 0 -9 -5 -5 -12 4 -7 3 -8 -4 -4 -9 5 -9 13 0 29 10 20 10 21 -6 8 -10 -8 -15 -23 -13 -33 3 -10 1 -18 -4 -18 -5 0 -9 5 -9 11 0 8 -5 7 -16 -2 -14 -12 -14 -14 2 -26 10 -7 24 -11 30 -9 7 3 15 -9 18 -30 4 -19 11 -34 15 -34 5 0 1 -16 -7 -35 -10 -22 -23 -35 -35 -35 -10 0 -16 -4 -13 -8 3 -5 0 -9 -7 -9 -7 0 -24 -3 -40 -6 -15 -3 -25 -2 -22 3 3 4 -2 11 -11 14 -12 5 -15 2 -10 -9 3 -10 2 -13 -5 -10 -6 4 -8 13 -5 21 3 8 0 17 -7 19 -10 4 -14 55 -7 75 1 3 2 9 1 14 -3 13 40 46 61 46 11 0 16 5 13 10 -4 6 4 19 17 30 13 11 18 19 11 20 -6 0 -18 -6 -25 -13 -7 -7 -21 -16 -31 -20 -10 -4 -16 -10 -14 -14 10 -16 -101 -14 -141 3 -53 21 -107 87 -117 141 -11 70 29 159 85 188 23 12 26 11 26 -5 0 -10 -3 -18 -6 -18 -27 2 -46 -24 -65 -89 -12 -44 40 -163 65 -148 5 3 10 -2 13 -10 9 -22 66 -33 117 -22 45 9 89 43 103 80 7 18 27 24 27 7 0 -6 -7 -24 -15 -40 -9 -17 -11 -30 -6 -30 15 0 41 78 41 124 0 88 -76 175 -168 191 -57 9 -140 -16 -177 -55 -16 -16 -26 -30 -22 -30 4 0 -1 -9 -10 -19 -9 -11 -20 -18 -25 -15 -12 7 15 53 53 94 19 19 33 38 32 42 -2 4 3 5 10 3 6 -2 28 4 47 14 39 21 115 18 162 -5z m266 -61 c9 -23 63 -26 59 -3 -1 10 6 15 23 15 23 0 25 -4 30 -55 5 -54 6 -55 38 -58 l34 -3 -4 58 c-3 56 -2 58 22 58 23 0 25 -4 30 -58 3 -31 8 -57 13 -57 31 1 37 -2 37 -20 0 -18 -7 -20 -74 -20 -44 0 -78 5 -82 11 -4 8 -9 8 -13 1 -6 -10 -53 -17 -93 -13 -27 2 -46 27 -62 85 -9 30 -16 59 -16 65 0 18 50 13 58 -6z m323 -36 c8 -26 19 -44 23 -40 4 4 4 0 0 -10 -4 -12 -1 -17 10 -17 19 0 29 34 24 81 -2 29 0 34 20 37 24 4 24 2 26 -88 1 -67 -1 -70 -53 -70 -62 0 -78 13 -100 87 -20 66 -18 75 14 71 14 -2 25 -17 36 -51z m161 36 c7 -10 25 -19 41 -20 21 -2 27 2 27 17 0 15 7 20 25 20 25 0 25 -1 23 -79 -2 -77 -3 -79 -29 -83 -14 -2 -44 1 -65 7 -31 8 -39 16 -46 43 -5 18 -12 31 -16 28 -4 -2 -8 16 -9 40 -2 37 1 44 17 44 10 0 25 -8 32 -17z m184 -8 c-4 -15 -2 -25 4 -25 6 0 8 -4 5 -10 -4 -6 7 -10 26 -10 27 0 31 3 26 21 -8 31 2 49 29 49 23 0 24 -3 24 -75 0 -61 -3 -77 -16 -82 -18 -7 -47 23 -38 38 3 5 -1 9 -10 9 -8 0 -23 3 -33 7 -10 3 -15 3 -11 -2 4 -4 3 -14 -3 -22 -6 -7 -8 -13 -4 -13 4 0 2 -6 -5 -14 -6 -8 -18 -12 -26 -9 -10 4 -14 25 -14 84 0 78 0 79 26 79 23 0 25 -3 20 -25z m224 -34 c0 -58 0 -59 30 -63 23 -4 30 -1 26 9 -3 7 3 22 13 32 19 19 19 19 -1 25 -20 5 -20 7 -6 28 20 29 100 38 127 14 10 -9 20 -13 24 -10 3 4 4 -6 1 -22 -6 -32 -35 -56 -79 -65 -25 -5 -22 -7 18 -8 40 -1 48 -4 45 -18 -3 -16 -19 -18 -151 -21 -140 -2 -147 -1 -147 17 0 14 8 21 28 23 26 3 27 4 24 61 -2 55 -1 57 23 57 24 0 25 -3 25 -59z m-1125 9 c3 -5 4 -10 1 -10 -3 0 -8 5 -11 10 -3 6 -4 10 -1 10 3 0 8 -4 11 -10z m18 -27 c-7 -2 -19 -2 -25 0 -7 3 -2 5 12 5 14 0 19 -2 13 -5z m-263 -77 c0 -3 -5 -8 -12 -12 -7 -4 -8 -3 -4 4 7 12 16 16 16 8z m445 -6 c3 -5 4 -10 1 -10 -3 0 -8 5 -11 10 -3 6 -4 10 -1 10 3 0 8 -4 11 -10z m-68 -27 c-4 -3 -10 -3 -14 0 -3 4 0 7 7 7 7 0 10 -3 7 -7z m-80 -20 c-4 -3 -7 0 -7 7 0 7 3 10 7 7 3 -4 3 -10 0 -14z m333 -197 c0 -3 -5 -8 -12 -12 -7 -4 -8 -3 -4 4 7 12 16 16 16 8z m-23 -63 c-4 -3 -7 0 -7 7 0 7 3 10 7 7 3 -4 3 -10 0 -14z"/>
 <path d="M564 348 c-4 -7 -3 -8 4 -4 12 7 16 16 8 16 -3 0 -8 -5 -12 -12z"/>
 <path d="M580 309 c0 -6 -11 -25 -25 -41 -21 -25 -24 -33 -13 -46 10 -12 10 -14 1 -8 -19 11 -17 -44 3 -72 23 -34 108 -72 88 -40 -5 7 -3 8 5 4 14 -9 71 12 71 26 0 5 -5 6 -12 2 -7 -5 -8 -3 -4 5 5 7 10 10 13 8 2 -3 15 5 28 17 21 20 23 27 15 55 -11 39 -29 63 -41 55 -5 -3 -8 0 -7 7 2 7 -8 18 -22 26 -30 16 -100 17 -100 2z m-15 -169 c3 -5 4 -10 1 -10 -3 0 -8 5 -11 10 -3 6 -4 10 -1 10 3 0 8 -4 11 -10z"/>
 <path d="M553 303 c4 -3 10 -3 14 0 3 4 0 7 -7 7 -7 0 -10 -3 -7 -7z"/>
 <path d="M519 273 c-13 -16 -12 -17 4 -4 9 7 17 15 17 17 0 8 -8 3 -21 -13z"/>
 <path d="M354 134 c-11 -42 7 -78 39 -82 15 -2 27 1 27 6 0 6 10 8 22 4 16 -4 20 -2 15 10 -3 9 0 21 6 27 8 8 8 11 -2 11 -7 0 -9 5 -6 10 12 20 -17 40 -56 40 -33 0 -40 -4 -45 -26z"/>
 <path d="M736 133 c-6 -14 -5 -15 5 -6 7 7 10 15 7 18 -3 3 -9 -2 -12 -12z"/>
 <path d="M704 88 c-4 -7 -3 -8 4 -4 7 4 12 9 12 12 0 8 -9 4 -16 -8z"/>
 <path d="M682 466 c10 -7 15 -16 11 -19 -3 -4 1 -7 10 -7 10 0 17 8 17 20 0 15 -7 20 -27 20 -25 -1 -26 -2 -11 -14z"/>
 <path d="M1166 472 c-8 -13 7 -29 27 -29 10 0 17 8 17 19 0 18 -34 26 -44 10z"/>
 <path d="M1656 511 c-7 -11 28 -21 44 -11 8 5 7 9 -5 14 -23 8 -33 8 -39 -3z"/>
 </g>

</svg>