<svg xmlns="http://www.w3.org/2000/svg" xmlns:xlink="http://www.w3.org/1999/xlink" width="58" height="76" viewBox="0 0 58 76"><defs><path id="fz99a" d="M146.36 199.73a23.67 23.67 0 0 0-23.65 23.65c0 16.18 21.16 39.94 22.07 40.93.84.95 2.32.95 3.16 0 .9-1 22.06-24.75 22.06-40.93a23.66 23.66 0 0 0-23.64-23.65z"/><path id="fz99d" d="M146.72 209.16l4.53 9.28 10.15 1.51-7.34 7.13 1.72 10.36-9.06-4.97-9.28 4.97 1.73-10.36-7.34-7.13 10.14-1.5z"/><mask id="fz99c" width="2" height="2" x="-1" y="-1"><path fill="#fff" d="M122 199h48v67h-48z"/><use xlink:href="#fz99a"/></mask><filter id="fz99b" width="80" height="102" x="106" y="183" filterUnits="userSpaceOnUse"><feOffset dy="3" in="SourceGraphic" result="FeOffset1023Out"/><feGaussianBlur in="FeOffset1023Out" result="FeGaussianBlur1024Out" stdDeviation="2.4 2.4"/></filter></defs><g><g transform="translate(-117 -197)"><g filter="url(#fz99b)"><use fill="none" stroke-opacity=".69" stroke-width="0" mask="url(&quot;#fz99c&quot;)" xlink:href="#fz99a"/><use fill-opacity=".69" xlink:href="#fz99a"/></g><use fill="#e73229" xlink:href="#fz99a"/></g><g transform="translate(-117 -197)"><use fill="#fff" xlink:href="#fz99d"/></g></g></svg>