<svg xmlns="http://www.w3.org/2000/svg" xmlns:xlink="http://www.w3.org/1999/xlink" width="16" height="11" viewBox="0 0 16 11"><defs><path id="g4j4a" d="M146.64 4686.44l3.72 3.07-12.74.02 3.74-3.1a.46.46 0 0 0 .07-.61.4.4 0 0 0-.57-.08l-4.02 3.33-.02-7.74 6.94 5.12a.4.4 0 0 0 .24.08c.08 0 .16-.03.23-.08l6.92-5.15.01 7.78-4.02-3.33a.39.39 0 0 0-.57.08c-.14.18-.1.46.07.6zm3.62-5.53l-6.27 4.65-6.27-4.63zm1.71 0c0-.49-.36-.88-.82-.88l-14.33.02c-.22 0-.43.1-.58.26a.9.9 0 0 0-.24.62l.02 8.6c0 .24.08.46.24.62.15.17.36.25.58.25l14.33-.02c.46 0 .82-.39.82-.87z"/></defs><g><g clip-path="url(#clip-ba43462a-d41c-4af9-9395-a68d4682e325)" opacity=".6" transform="translate(-136 -4680)"><use fill="#fff" xlink:href="#g4j4a"/></g></g></svg>