<svg xmlns="http://www.w3.org/2000/svg" xmlns:xlink="http://www.w3.org/1999/xlink" width="16" height="23" viewBox="0 0 16 23"><defs><path id="nniza" d="M149.73 4758.41l-5.63 9.4-5.77-9.3a6.67 6.67 0 1 1 11.4-.1zM144 4747a8 8 0 0 0-6.8 12.2l6.35 10.24c.12.2.33.32.56.32.24 0 .45-.12.57-.32l6.2-10.34A8 8 0 0 0 144 4747z"/><path id="nnizb" d="M144 4757.68a2.68 2.68 0 1 1 0-5.36 2.68 2.68 0 0 1 0 5.36zm0-6.68a4 4 0 1 0 .01 8.01 4 4 0 0 0-.01-8.01z"/></defs><g><g opacity=".6" transform="translate(-136 -4747)"><use fill="#fff" xlink:href="#nniza"/></g><g opacity=".6" transform="translate(-136 -4747)"><use fill="#fff" xlink:href="#nnizb"/></g></g></svg>