<svg xmlns="http://www.w3.org/2000/svg" xmlns:xlink="http://www.w3.org/1999/xlink" width="11" height="15" viewBox="0 0 11 15"><defs><path id="iwy5a" d="M1984.12 48.6l.55-2.28c.02-.26-.07-.59-.55-.71.02-.01-.86-.22-.86-.22l.32-1.3 1.63.41.76.2.49-2.01 1.18.3-.47 1.97.95.23.47-1.95 1.19.3-.49 2c1.5.54 2.6 1.33 2.38 2.81-.16 1.08-.74 1.6-1.52 1.8 1.07.56 1.61 1.43 1.1 2.95-.64 1.88-2.17 2.04-4.2 1.65l-.48 2.02-1.19-.3.48-2-.94-.25-.49 2-1.18-.3.49-2.03-.85-.22-1.54-.4.59-1.4.86.23c.33.08.48-.14.54-.3zm1.84 1.46l-.66 2.69c.81.2 3.3 1.02 3.66-.5.38-1.57-2.2-1.98-3-2.19zm.89-3.66l-.6 2.43c.68.18 2.74.88 3.08-.5.34-1.44-1.81-1.76-2.48-1.93z"/></defs><g><g transform="translate(-1981 -42)"><use fill="#fafafa" xlink:href="#iwy5a"/></g></g></svg>