<svg xmlns="http://www.w3.org/2000/svg" xmlns:xlink="http://www.w3.org/1999/xlink" width="50" height="51" viewBox="0 0 50 51"><defs><path id="shrza" d="M971.52 1461.75c0 2.88-2.34 5.2-5.22 5.2h-3.13v-2.07h3.13c1.73 0 3.13-1.4 3.13-3.13v-4.77l-9.4 9.37v31.86c0 1.73 1.4 3.13 3.14 3.13h27.14c1.73 0 3.13-1.4 3.13-3.13v-1.47a11.47 11.47 0 0 1 0-22.06v-16.05c0-1.73-1.4-3.13-3.13-3.13h-18.8zm24 36.46c0 2.88-2.33 5.2-5.21 5.2h-27.14a5.22 5.22 0 0 1-5.22-5.2v-32.3c0-.27.1-.53.3-.73l11.49-11.46c.2-.2.46-.3.73-.3h19.84a5.22 5.22 0 0 1 5.22 5.2v15.68a11.47 11.47 0 1 1 0 22.82zm-18.78-22.92c1.73 0 3.13 1.4 3.13 3.13v2.08c0 .58-.47 1.04-1.05 1.04h-1.04v1.05h2.09c1.73 0 3.13 1.4 3.13 3.12v10.42c0 1.72-1.4 3.12-3.13 3.12h-14.61a3.13 3.13 0 0 1-3.14-3.12v-10.42c0-1.73 1.4-3.12 3.14-3.12h2.08v-1.05h-1.04c-.58 0-1.04-.46-1.04-1.04v-2.08c0-1.73 1.4-3.13 3.13-3.13zm-7.3 6.25v1.05h6.25v-1.05zm8.34-3.12c0-.58-.47-1.04-1.04-1.04h-8.35c-.58 0-1.05.46-1.05 1.04v1.04h10.44zm3.13 7.3c0-.59-.46-1.05-1.04-1.05h-14.61c-.58 0-1.05.46-1.05 1.04v1.04h10.44v2.09H964.2v4.16h16.7zm-16.7 10.4c0 .58.47 1.05 1.05 1.05h14.6c.59 0 1.05-.47 1.05-1.04v-1.04h-16.7zm12.53-9.37h2.08v2.09h-2.08zm21.92-6.25c1.73 0 3.13 1.4 3.13 3.13h-2.09c0-.58-.47-1.04-1.04-1.04h-4.18a1.04 1.04 0 1 0 0 2.08h4.18a3.13 3.13 0 1 1 0 6.25h-1.05v1.04h-2.08v-1.04h-1.05a3.13 3.13 0 0 1-3.13-3.13h2.09c0 .58.46 1.05 1.04 1.05h4.18a1.04 1.04 0 1 0 0-2.09h-4.18a3.13 3.13 0 1 1 0-6.25h1.05v-1.04h2.08v1.04zm-2.1 14.59a9.38 9.38 0 1 0 .03-18.77 9.38 9.38 0 0 0-.02 18.77zm-8.34-37.5c1.73 0 3.13 1.4 3.13 3.12v2.08h-2.09v-2.08c0-.58-.46-1.04-1.04-1.04h-2.09v-2.08zm-6.26 0h2.08v2.08h-2.08zm-7.31 13.54h12.52v2.08h-12.52zm0-4.17h12.52v2.08h-12.52zm4.17-4.17h8.35v2.09h-8.35zm-4.17 0h2.09v2.09h-2.09z"/></defs><g><g transform="translate(-958 -1453)"><use fill="#fafafa" xlink:href="#shrza"/></g></g></svg>