<svg xmlns="http://www.w3.org/2000/svg" xmlns:xlink="http://www.w3.org/1999/xlink" width="50" height="51" viewBox="0 0 50 51"><defs><path id="e89za" d="M711.22 1625.42a5.22 5.22 0 0 1 5.22 5.2v3.13h-2.09v-3.12c0-1.73-1.4-3.13-3.13-3.13h-18.79v4.17c0 2.87-2.34 5.2-5.22 5.2h-1.04v-2.08h1.04c1.73 0 3.13-1.4 3.13-3.12v-2.7l-7.3 7.3v33.94c0 1.73 1.4 3.13 3.13 3.13h25.05v2.08h-25.05a5.22 5.22 0 0 1-5.22-5.21v-34.38c0-.27.1-.54.3-.73l9.4-9.38c.2-.2.47-.3.74-.3zm10.44 33.33c1.73 0 3.13 1.4 3.13 3.13h-2.09c0-.58-.47-1.04-1.04-1.04h-4.18a1.04 1.04 0 1 0 0 2.08h4.18a3.13 3.13 0 1 1 0 6.25h-1.05v1.04h-2.09v-1.04h-1.04a3.13 3.13 0 0 1-3.13-3.13h2.09c0 .58.46 1.05 1.04 1.05h4.18a1.04 1.04 0 1 0 0-2.09h-4.18a3.13 3.13 0 1 1 0-6.25h1.04v-1.04h2.1v1.04zm-2.1-6.25c6.35 0 11.5 5.13 11.5 11.46a11.48 11.48 0 0 1-22.97 0c0-6.33 5.14-11.46 11.48-11.46zm0 20.84a9.38 9.38 0 1 0 .03-18.77 9.38 9.38 0 0 0-.02 18.77zm-8.72-37.5a7.51 7.51 0 0 1 7.68 7.29 7.5 7.5 0 0 1-7.68 7.29c-.94 0-1.88-.16-2.75-.49v3.61H706v-20.83h2.09v3.61c.87-.32 1.8-.49 2.75-.49zm0 12.5a5.42 5.42 0 0 0 5.6-5.21 5.42 5.42 0 0 0-5.6-5.21c-.96 0-1.9.23-2.75.67v9.07c.85.45 1.79.68 2.75.67zm10.82-11.46h5.21v2.08h-5.21zm0 5.2h7.3v2.09h-7.3zm0 5.21h4.17v2.09h-4.17zm-20.2 11.66a4.17 4.17 0 0 1 0 6.26l-5.2 4.72a1.04 1.04 0 0 1-1.4 0l-5.19-4.71a4.17 4.17 0 0 1 0-6.26 5.02 5.02 0 0 1 5.9-.53 5.03 5.03 0 0 1 5.88.52zm-1.41 4.73a2.09 2.09 0 0 0 0-3.18 2.87 2.87 0 0 0-3.78 0c-.4.36-1.01.36-1.4 0a2.8 2.8 0 0 0-1.9-.71c-.7 0-1.37.25-1.9.71a2.09 2.09 0 0 0 0 3.18l4.5 4.08zm-11.8-12.22h10.44v2.08h-10.43zm0-5.2h14.62v2.07h-14.61zm0-5.22h14.62v2.09h-14.61zm12.53 10.42h2.09v2.08h-2.09z"/></defs><g><g transform="translate(-681 -1625)"><use fill="#fafafa" xlink:href="#e89za"/></g></g></svg>