<svg xmlns="http://www.w3.org/2000/svg" xmlns:xlink="http://www.w3.org/1999/xlink" width="18" height="15" viewBox="0 0 18 15"><defs><path id="lwfaa" d="M1951.54 50.7c0 .23-.08.45-.2.64a1 1 0 0 1-.53.38c-.1.04-.21.05-.31.05a1.06 1.06 0 0 1-1.03-.86 1.08 1.08 0 0 1 .66-1.2.98.98 0 0 1 .35-.06 1.06 1.06 0 0 1 1 .7c.04.12.06.23.06.35zm-.72 2.38a.55.55 0 0 1 .25.44c0 .04 0 .08-.02.12a.6.6 0 0 1-.12.23.88.88 0 0 1-.18.15l-.37.2c-.79.39-1.66.6-2.53.6a4.8 4.8 0 0 1-2.75-.83.48.48 0 0 1-.19-.2.57.57 0 0 1 .01-.56.46.46 0 0 1 .23-.19h.01a.44.44 0 0 1 .4 0l.17.1c.1.07.2.15.3.19.57.29 1.2.43 1.84.43.84 0 1.7-.25 2.42-.7a.43.43 0 0 1 .25-.07c.1 0 .2.03.28.09zm-5.74-1.37a1 1 0 0 1-.52-.38c-.12-.19-.2-.4-.2-.63a1.06 1.06 0 0 1 .83-1.03l.22-.03c.27 0 .52.12.72.3a1.02 1.02 0 0 1 .32.8c0 .3-.13.56-.33.74-.2.18-.45.3-.72.3a.9.9 0 0 1-.31-.06h-.01zm11.07-2.64v.1a2.25 2.25 0 0 1-1.13 1.9 3.97 3.97 0 0 1-.78 2.94 6.91 6.91 0 0 1-3.89 2.46 10 10 0 0 1-2.41.3 9.29 9.29 0 0 1-3.55-.7 6.17 6.17 0 0 1-2.97-2.44 4.06 4.06 0 0 1-.54-2.56c-.31-.17-.58-.43-.77-.73a2.2 2.2 0 0 1-.37-1.1v-.01c0-.57.24-1.1.61-1.5.37-.38.87-.64 1.41-.64h.2c.27 0 .54.04.8.14.22.1.44.21.64.37l.21-.1c1.19-.72 2.56-1 3.9-1.08.02-.69.1-1.4.42-2.03.27-.52.74-.93 1.3-1.07a4.33 4.33 0 0 1 2.3.3c.23-.37.56-.65.95-.8l.01-.01c.23-.07.47-.12.71-.12.26 0 .51.05.76.16.35.14.64.4.85.7a1.99 1.99 0 0 1 .31 1.3v.01c-.04.5-.29.95-.64 1.26a1.93 1.93 0 0 1-3.24-1.42v-.07a3.36 3.36 0 0 0-1.56-.35c-.35.03-.67.26-.82.58a3.62 3.62 0 0 0-.3 1.57c1.33.09 2.66.42 3.83 1.1l.01.02c.03 0 .07.03.1.05l.27-.2a2.12 2.12 0 0 1 1.74-.28h.02c.42.11.8.36 1.1.7.29.34.48.77.52 1.24zm-3.89-4.4c.01.24.12.46.28.62.17.16.39.27.61.27h.06a.9.9 0 0 0 .61-.26.92.92 0 0 0 .29-.63v-.05a.93.93 0 0 0-.28-.65.93.93 0 0 0-.64-.28c-.08 0-.15 0-.22.03a.98.98 0 0 0-.5.33.9.9 0 0 0-.2.62zm-10.3 3.45h-.09a1.12 1.12 0 0 0-1.06 1.02v.07c0 .17.05.34.13.5l.24.3c.3-.7.78-1.27 1.32-1.75a1.24 1.24 0 0 0-.54-.14zm11.5 1.77a5.52 5.52 0 0 0-2.87-2 8.1 8.1 0 0 0-2.64-.4c-.89 0-1.78.14-2.64.4-1.11.37-2.18 1.01-2.87 2-.35.5-.55 1.1-.55 1.72 0 .22.03.45.08.67.13.49.37.93.69 1.3a4.95 4.95 0 0 0 1.39 1.15 7.84 7.84 0 0 0 4.6.95 7.33 7.33 0 0 0 3.84-1.38c.36-.27.68-.59.94-.96.26-.37.45-.78.54-1.23a3.04 3.04 0 0 0-.5-2.22zm1.53-1.15c-.1-.2-.25-.36-.43-.46a1.22 1.22 0 0 0-1.17-.03 5.26 5.26 0 0 1 1.33 1.75 1.14 1.14 0 0 0 .37-.82c0-.15-.03-.3-.1-.44z"/></defs><g><g transform="translate(-1939 -42)"><use fill="#fafafa" xlink:href="#lwfaa"/></g></g></svg>