<svg xmlns="http://www.w3.org/2000/svg" xmlns:xlink="http://www.w3.org/1999/xlink" width="15" height="15" viewBox="0 0 15 15"><defs><path id="ulb0a" d="M1915.1 50c.27.62 0 1.35-.6 1.62l-.59.27.26.6c.27.61 0 1.35-.6 1.62-.6.28-1.32 0-1.59-.62l-.26-.6-3.3 1.53.25.6c.27.61 0 1.34-.6 1.62-.61.28-1.32 0-1.6-.62l-.25-.6-.58.27c-.6.28-1.31 0-1.58-.62s0-1.36.6-1.63l.58-.27-1.48-3.4-.58.27c-.6.27-1.31 0-1.59-.63-.27-.62 0-1.35.61-1.63l.58-.26-.26-.6c-.27-.62 0-1.35.6-1.62.61-.28 1.32 0 1.6.62l.25.6 3.31-1.53-.26-.6c-.27-.62 0-1.35.6-1.63.61-.27 1.32 0 1.6.63l.25.6.58-.27c.6-.28 1.32 0 1.59.62s0 1.35-.6 1.63l-.59.26 1.48 3.4.58-.26c.6-.28 1.32 0 1.59.62zm-4.36.64l-1.48-3.4-3.3 1.52 1.47 3.4z"/></defs><g><g transform="translate(-1901 -42)"><use fill="#fafafa" xlink:href="#ulb0a"/></g></g></svg>