<svg xmlns="http://www.w3.org/2000/svg" xmlns:xlink="http://www.w3.org/1999/xlink" width="17" height="15" viewBox="0 0 17 15"><defs><path id="uxxga" d="M1875 42.83c.56-.23 1.15.28 1.02.9l-2.54 12.5a.8.8 0 0 1-1.26.5l-3.84-2.9-1.95 2.05a.64.64 0 0 1-1.09-.27l-1.41-4.6-3.78-1.16c-.5-.15-.53-.86-.05-1.05zm-1.87 2.78c.16-.16-.03-.42-.22-.3l-8.17 5.2c-.14.1-.2.28-.15.45l1.1 3.63c.01.07.12.06.13-.02l.27-2.43c0-.1.05-.18.12-.24z"/></defs><g><g transform="translate(-1859 -42)"><use fill="#fafafa" xlink:href="#uxxga"/></g></g></svg>