<svg xmlns="http://www.w3.org/2000/svg" width="50" height="50" viewBox="0 0 50 50">
  <metadata><?xpacket begin="﻿" id="W5M0MpCehiHzreSzNTczkc9d"?>
<x:xmpmeta xmlns:x="adobe:ns:meta/" x:xmptk="Adobe XMP Core 5.6-c138 79.159824, 2016/09/14-01:09:01        ">
   <rdf:RDF xmlns:rdf="http://www.w3.org/1999/02/22-rdf-syntax-ns#">
      <rdf:Description rdf:about=""/>
   </rdf:RDF>
</x:xmpmeta>
                                                                                                    
                                                                                                    
                                                                                                    
                                                                                                    
                                                                                                    
                                                                                                    
                                                                                                    
                                                                                                    
                                                                                                    
                                                                                                    
                                                                                                    
                                                                                                    
                                                                                                    
                                                                                                    
                                                                                                    
                                                                                                    
                                                                                                    
                                                                                                    
                                                                                                    
                                                                                                    
                           
<?xpacket end="w"?></metadata>
<defs>
    <style>
      .cls-1 {
        fill: #fafafa;
        fill-rule: evenodd;
      }
    </style>
  </defs>
  <path id="Icon" class="cls-1" d="M700.831,1469.72v6.25a5.21,5.21,0,0,1-10.42,0v-6.25h-2.084v6.25a7.294,7.294,0,0,0,14.588,0v-6.25h-2.084Zm0,0-5.21-2.08a1.042,1.042,0,1,0-2.084,0c0,0.17-.047,4.16-4.169,4.16v2.08a5.735,5.735,0,0,0,5.373-2.92c1.088,1.49,3.172,2.92,7.133,2.92v-2.08c-6,0-6.246-3.75-6.253-4.16h0Zm0,0-9.938,12.49a36.362,36.362,0,0,0,1.6-11.45,8.247,8.247,0,0,1,1.852-5.24l-1.62-1.31a10.441,10.441,0,0,0-2.316,6.55c0,7.93-1.956,11.99-1.974,12.03a1.011,1.011,0,0,0-.11.47,1.043,1.043,0,0,0,1.042,1.04H692.5v-2.09h-6.812Zm0,0,22.339,0.58c-0.024-.04-1.98-4.1-1.98-12.03a10.441,10.441,0,0,0-2.316-6.55l-1.62,1.31a8.241,8.241,0,0,1,1.852,5.24,36.305,36.305,0,0,0,1.6,11.45h-6.813v2.09h8.337a1.079,1.079,0,0,0,.467-0.11,1.047,1.047,0,0,0,.471-1.4h0Zm0,0-10.317.47v3.73l-1.347,1.35a1.075,1.075,0,0,1-1.474,0l-1.347-1.35v-3.73h-2.085v4.16a1.058,1.058,0,0,0,.306.74l1.653,1.65a3.139,3.139,0,0,0,4.42,0l1.653-1.65a1.053,1.053,0,0,0,.3-0.74v-4.16h-2.084Zm0,0,4.169,3.12h-3.127v2.08h3.127a7.306,7.306,0,0,1,7.294,7.29v8.34H682.074v-8.34a7.306,7.306,0,0,1,7.294-7.29H692.5v-2.08h-3.127a9.389,9.389,0,0,0-9.378,9.37v9.38a1.043,1.043,0,0,0,1.042,1.04H710.21a1.043,1.043,0,0,0,1.042-1.04v-9.38a9.389,9.389,0,0,0-9.378-9.37h0Zm0,0-2.085,1.04c0,0.09-.125,8.33-4.168,8.33s-4.169-8.25-4.169-8.33h-2.084c0,0.43.071,10.42,6.253,10.42s6.253-9.99,6.253-10.42h-2.085Zm0,0,4.169,12.5h2.084v5.21h-2.084v-5.21Zm-18.758,0h2.084v5.21H685.2v-5.21Zm9.379-3.12h2.084v8.33h-2.084v-8.33Zm8.916-37.56-7.486-2.99a1.007,1.007,0,0,0-.744-0.01l-8.388,3.05a3.062,3.062,0,0,0-1.142.72,3.125,3.125,0,0,0,0,4.42l2.9,2.9a1.058,1.058,0,0,0,.736.3h11.463a1.059,1.059,0,0,0,.737-0.3l2.977-2.98a2.99,2.99,0,0,0,.692-1.05,3.123,3.123,0,0,0-1.742-4.06h0Zm-0.425,3.64-2.67,2.67H689.8l-2.591-2.59a0.927,0.927,0,0,1-.242-0.38,1.033,1.033,0,0,1,.622-1.33l8.014-2.92,7.118,2.85a1.017,1.017,0,0,1,.353.23,1.037,1.037,0,0,1,0,1.47h0Zm0,0-8.491-2.54h2.084v4.17h-2.084v-4.17Zm-1.042,1.04h4.168v2.09h-4.168v-2.09Zm31.262,18.75H709.168v2.08H724.8a3.128,3.128,0,0,1,3.127,3.13v15.62a3.128,3.128,0,0,1-3.127,3.13H713.336v2.08H724.8a5.213,5.213,0,0,0,5.211-5.21v-15.62a5.213,5.213,0,0,0-5.211-5.21h0Zm0,0-14.589,4.17h18.758v2.08H710.21v-2.08Zm7.295-9.38h-9.379v2.09h9.379a1.038,1.038,0,0,1,1.042,1.04v3.12h2.084v-3.12a3.127,3.127,0,0,0-3.126-3.13h0Zm0,0-3.126,1.04h2.084v5.21h-2.084v-5.21Zm-4.169,0h2.084v5.21H710.21v-5.21Zm11.463,12.5h2.084v6.25h-2.084v-6.25Zm-2.084,2.09h6.252v2.08h-6.252v-2.08Zm4.168,9.37h2.084v2.08h-2.084v-2.08Zm-4.168,0h2.084v2.08h-2.084v-2.08Zm-4.168,0h2.084v2.08h-2.084v-2.08Zm9.378-34.37h-6.252a1.043,1.043,0,0,0-1.042,1.04v6.25h2.084v-5.21h4.168v10.42h2.084v-11.46a1.043,1.043,0,0,0-1.042-1.04h0Zm0,0-4.168-8.33h2.084v9.37h-2.084v-9.37Zm2.084,6.25h-2.084a1.038,1.038,0,0,0-1.042,1.04v2.08h4.168v-2.08a1.037,1.037,0,0,0-1.042-1.04h0Zm0,0-1.042,6.25H724.8v2.08h-3.126v-2.08Zm0,4.16H724.8v2.08h-3.126v-2.08Z" transform="translate(-680 -1454.09)"/>
</svg>
