<svg xmlns="http://www.w3.org/2000/svg" width="50.122" height="50" viewBox="0 0 50.122 50">
  <metadata><?xpacket begin="﻿" id="W5M0MpCehiHzreSzNTczkc9d"?>
<x:xmpmeta xmlns:x="adobe:ns:meta/" x:xmptk="Adobe XMP Core 5.6-c138 79.159824, 2016/09/14-01:09:01        ">
   <rdf:RDF xmlns:rdf="http://www.w3.org/1999/02/22-rdf-syntax-ns#">
      <rdf:Description rdf:about=""/>
   </rdf:RDF>
</x:xmpmeta>
                                                                                                    
                                                                                                    
                                                                                                    
                                                                                                    
                                                                                                    
                                                                                                    
                                                                                                    
                                                                                                    
                                                                                                    
                                                                                                    
                                                                                                    
                                                                                                    
                                                                                                    
                                                                                                    
                                                                                                    
                                                                                                    
                                                                                                    
                                                                                                    
                                                                                                    
                                                                                                    
                           
<?xpacket end="w"?></metadata>
<defs>
    <style>
      .cls-1 {
        fill: #fafafa;
        fill-rule: evenodd;
      }
    </style>
  </defs>
  <path id="Icon" class="cls-1" d="M971.212,1453.72a1.058,1.058,0,0,0-1.476,0l-11.481,11.46,1.476,1.48,9.7-9.68v4.77a3.13,3.13,0,0,1-3.132,3.13h-3.131v2.08H966.3a5.216,5.216,0,0,0,5.219-5.21v-7.29a1.049,1.049,0,0,0-.306-0.74h0Zm0,0,24.313,21.57v-16.66a5.216,5.216,0,0,0-5.219-5.21H970.474a1.065,1.065,0,0,0-.738.3l-11.481,11.46a1.049,1.049,0,0,0-.306.74v32.29a5.216,5.216,0,0,0,5.219,5.21h27.138a5.216,5.216,0,0,0,5.219-5.21v-2.08h-2.087v2.08a3.13,3.13,0,0,1-3.132,3.13H963.168a3.13,3.13,0,0,1-3.132-3.13v-31.86l10.871-10.85h19.4a3.13,3.13,0,0,1,3.132,3.13v16.66h2.087Zm0,0-18.788,0h-8.35a3.129,3.129,0,0,0-3.131,3.13v2.08a1.038,1.038,0,0,0,1.043,1.04h12.526a1.038,1.038,0,0,0,1.043-1.04v-2.08a3.13,3.13,0,0,0-3.131-3.13h0Zm1.044,4.17H967.343v-1.04a1.038,1.038,0,0,1,1.044-1.04h8.35a1.039,1.039,0,0,1,1.044,1.04v1.04Zm0,0,2.087,3.13H965.256a3.121,3.121,0,0,0-3.132,3.12v10.42a3.128,3.128,0,0,0,3.132,3.12h14.612a3.128,3.128,0,0,0,3.132-3.12v-10.42a3.121,3.121,0,0,0-3.132-3.12h0Zm1.044,13.54a1.045,1.045,0,0,1-1.044,1.04H965.256a1.045,1.045,0,0,1-1.044-1.04v-10.42a1.038,1.038,0,0,1,1.044-1.04h14.612a1.038,1.038,0,0,1,1.044,1.04v10.42Zm0,0-13.569-15.63h2.088v3.13h-2.088v-3.13Zm8.35,0h2.088v3.13h-2.088v-3.13Zm-12.525,6.25h11.481v2.09H963.168v-2.09Zm13.569,0h2.088v2.09h-2.088v-2.09ZM963.168,1493h18.788v2.09H963.168V1493Zm35.489-12.5h-4.175a3.125,3.125,0,1,0,0,6.25h4.175v-2.08h-4.175a1.04,1.04,0,1,1,0-2.08h4.175a1.038,1.038,0,0,1,1.043,1.04h2.09a3.129,3.129,0,0,0-3.133-3.13h0Zm0,0,0,4.17h-4.175v2.08h4.175a1.045,1.045,0,0,1,0,2.09h-4.175a1.047,1.047,0,0,1-1.044-1.05H991.35a3.13,3.13,0,0,0,3.132,3.13h4.175a3.125,3.125,0,1,0,0-6.25h0Zm0,0-3.132-5.21h2.087v2.08h-2.087v-2.08Zm0,10.42h2.087v2.08h-2.087v-2.08Zm1.044-15.63a11.46,11.46,0,1,0,11.481,11.46,11.471,11.471,0,0,0-11.481-11.46h0Zm0,20.84a9.375,9.375,0,1,1,9.391-9.38,9.387,9.387,0,0,1-9.391,9.38h0Zm0,0-8.35-37.5h-2.088v2.08h2.088a1.039,1.039,0,0,1,1.044,1.04v2.08h2.087v-2.08a3.121,3.121,0,0,0-3.131-3.12h0Zm0,0-6.263,0h2.087v2.08h-2.087v-2.08Zm-7.306,13.54h12.525v2.08H974.65v-2.08Zm0-4.17h12.525v2.08H974.65v-2.08Zm4.175-4.17h8.35v2.09h-8.35v-2.09Zm-4.175,0h2.087v2.09H974.65v-2.09Z" transform="translate(-957.938 -1453.41)"/>
</svg>
