<svg xmlns="http://www.w3.org/2000/svg" width="50.125" height="50" viewBox="0 0 50.125 50">
  <metadata><?xpacket begin="﻿" id="W5M0MpCehiHzreSzNTczkc9d"?>
<x:xmpmeta xmlns:x="adobe:ns:meta/" x:xmptk="Adobe XMP Core 5.6-c138 79.159824, 2016/09/14-01:09:01        ">
   <rdf:RDF xmlns:rdf="http://www.w3.org/1999/02/22-rdf-syntax-ns#">
      <rdf:Description rdf:about=""/>
   </rdf:RDF>
</x:xmpmeta>
                                                                                                    
                                                                                                    
                                                                                                    
                                                                                                    
                                                                                                    
                                                                                                    
                                                                                                    
                                                                                                    
                                                                                                    
                                                                                                    
                                                                                                    
                                                                                                    
                                                                                                    
                                                                                                    
                                                                                                    
                                                                                                    
                                                                                                    
                                                                                                    
                                                                                                    
                                                                                                    
                           
<?xpacket end="w"?></metadata>
<defs>
    <style>
      .cls-1 {
        fill: #fafafa;
        fill-rule: evenodd;
      }
    </style>
  </defs>
  <path id="Icon" class="cls-1" d="M711.218,1625.42H691.387a1.063,1.063,0,0,0-.738.3l-9.394,9.38a1.026,1.026,0,0,0-.306.73v34.38a5.222,5.222,0,0,0,5.219,5.21h25.05v-2.08h-25.05a3.13,3.13,0,0,1-3.132-3.13v-33.94l8.783-8.77h19.4a3.13,3.13,0,0,1,3.132,3.13v3.12h2.087v-3.12a5.215,5.215,0,0,0-5.219-5.21h0Zm0,0-19.093.3a1.058,1.058,0,0,0-1.476,0l-9.394,9.38,1.476,1.47,7.612-7.6v2.7a3.121,3.121,0,0,1-3.132,3.12h-1.043v2.09h1.043a5.229,5.229,0,0,0,5.22-5.21v-5.21a1.049,1.049,0,0,0-.306-0.74h0Zm0,0,29.531,33.03h-4.175a3.125,3.125,0,1,0,0,6.25h4.175v-2.08h-4.175a1.04,1.04,0,1,1,0-2.08h4.175a1.038,1.038,0,0,1,1.044,1.04h2.087a3.129,3.129,0,0,0-3.131-3.13h0Zm0,0,0,4.17h-4.175V1665h4.175a1.04,1.04,0,1,1,0,2.08h-4.175a1.039,1.039,0,0,1-1.044-1.04H714.35a3.13,3.13,0,0,0,3.131,3.13h4.175a3.125,3.125,0,1,0,0-6.25h0Zm0,0-3.131-5.21h2.087v2.08h-2.087v-2.08Zm0,10.42h2.087v2.08h-2.087v-2.08Zm1.044-15.63a11.46,11.46,0,1,0,11.482,11.46,11.471,11.471,0,0,0-11.482-11.46h0Zm0,20.84a9.375,9.375,0,1,1,9.394-9.38,9.387,9.387,0,0,1-9.394,9.38h0Zm0,0-8.73-37.51a7.979,7.979,0,0,0-4.37,1.3,1.038,1.038,0,0,0-.469.87v10.25a1.038,1.038,0,0,0,.469.87,7.979,7.979,0,0,0,4.37,1.3,7.3,7.3,0,1,0,0-14.59h0Zm0,12.5a5.743,5.743,0,0,1-2.752-.67v-9.07a5.978,5.978,0,0,1,2.752-.67,5.219,5.219,0,1,1,0,10.41h0Zm0,0M706,1632.71h2.087v20.83H706v-20.83Zm15.656,4.17h5.219v2.08h-5.219v-2.08Zm0,5.2h7.307v2.09h-7.307v-2.09Zm0,5.21h4.176v2.09h-4.176v-2.09Zm-20.2,11.66a33.325,33.325,0,0,0-11.784.01,3.674,3.674,0,0,0-.368.37,4.166,4.166,0,0,0,.368,5.89l5.188,4.72a1.071,1.071,0,0,0,.7.27,1.025,1.025,0,0,0,.7-0.28l5.189-4.72a3.674,3.674,0,0,0,.368-0.37,4.168,4.168,0,0,0-.368-5.89h0Zm-1.4,4.73-4.488,4.08-4.485-4.08a2.28,2.28,0,0,1-.231-0.23,2.09,2.09,0,0,1,.231-2.95,2.876,2.876,0,0,1,3.784,0,1.052,1.052,0,0,0,1.407,0,2.866,2.866,0,0,1,3.782,0,2.171,2.171,0,0,1,.23.23,2.089,2.089,0,0,1-.23,2.95h0Zm0,0-11.795-12.22h10.438v2.08H688.255v-2.08Zm0-5.21h14.613v2.08H688.255v-2.08Zm0-5.21h14.613v2.09H688.255v-2.09Zm12.526,10.42h2.087v2.08h-2.087v-2.08Z" transform="translate(-680.938 -1625.41)"/>
</svg>
