<svg xmlns="http://www.w3.org/2000/svg" width="50" height="50" viewBox="0 0 50 50">
  <metadata><?xpacket begin="﻿" id="W5M0MpCehiHzreSzNTczkc9d"?>
<x:xmpmeta xmlns:x="adobe:ns:meta/" x:xmptk="Adobe XMP Core 5.6-c138 79.159824, 2016/09/14-01:09:01        ">
   <rdf:RDF xmlns:rdf="http://www.w3.org/1999/02/22-rdf-syntax-ns#">
      <rdf:Description rdf:about=""/>
   </rdf:RDF>
</x:xmpmeta>
                                                                                                    
                                                                                                    
                                                                                                    
                                                                                                    
                                                                                                    
                                                                                                    
                                                                                                    
                                                                                                    
                                                                                                    
                                                                                                    
                                                                                                    
                                                                                                    
                                                                                                    
                                                                                                    
                                                                                                    
                                                                                                    
                                                                                                    
                                                                                                    
                                                                                                    
                                                                                                    
                           
<?xpacket end="w"?></metadata>
<defs>
    <style>
      .cls-1 {
        fill: #fafafa;
        fill-rule: evenodd;
      }
    </style>
  </defs>
  <path id="Icon" class="cls-1" d="M998.631,1642.66H976.747v-1.04a5.211,5.211,0,0,0-5.21-5.21H961.116a3.127,3.127,0,0,0-3.126,3.13v31.26a5.224,5.224,0,0,0,5.21,5.21h35.431a5.219,5.219,0,0,0,5.209-5.21v-22.93a5.213,5.213,0,0,0-5.209-5.21h0Zm3.129,28.14a3.126,3.126,0,0,1-3.129,3.12H963.2a3.125,3.125,0,0,1-3.126-3.12v-31.26a1.046,1.046,0,0,1,1.042-1.05h10.421a3.127,3.127,0,0,1,3.126,3.13v1.04h-3.126v2.08h27.094a3.134,3.134,0,0,1,3.129,3.13v22.93Zm0,0,3.12-44.81H975.705a3.125,3.125,0,0,0-3.126,3.12v9.38h2.084v-9.38a1.044,1.044,0,0,1,1.042-1.04h29.175a1.048,1.048,0,0,1,1.05,1.04v39.6a1.041,1.041,0,0,1-1.05,1.04h-2.08v2.09h2.08a3.128,3.128,0,0,0,3.13-3.13v-39.6a3.126,3.126,0,0,0-3.13-3.12h0Zm0,0-25.007,4.17a3.125,3.125,0,0,0-3.126,3.12v2.09h2.084v-2.09a1.044,1.044,0,0,1,1.042-1.04h2.085v-2.08h-2.085Zm0,0,4.169,0h2.084v2.08h-2.084v-2.08Zm-2.084,4.16H1002.8v2.09H981.958v-2.09Zm0,4.17H1002.8v2.09H981.958v-2.09Zm5.713,15a41.033,41.033,0,0,0-13.512,0q-0.159.15-.3,0.3a4.877,4.877,0,0,0,.3,6.89l6.044,5.67a1.045,1.045,0,0,0,1.424,0l6.044-5.67a2.856,2.856,0,0,0,.3-0.3,4.877,4.877,0,0,0-.3-6.89h0Zm-1.425,5.67-5.33,5-5.332-5a2.251,2.251,0,0,1-.2-0.2,2.788,2.788,0,0,1,.2-3.94,3.406,3.406,0,0,1,2.31-.9,3.446,3.446,0,0,1,2.309.89,1.033,1.033,0,0,0,1.425,0,3.432,3.432,0,0,1,4.617,0q0.108,0.1.2,0.21a2.788,2.788,0,0,1-.2,3.94h0Zm0,0-18.877-16.5h2.084v2.08h-2.084v-2.08Zm-4.169,27.09h10.421v2.09H963.2v-2.09Zm12.5,0h2.084v2.09h-2.084v-2.09Z" transform="translate(-958 -1626)"/>
</svg>
