<svg xmlns="http://www.w3.org/2000/svg" width="50" height="50" viewBox="0 0 50 50">
  <metadata><?xpacket begin="﻿" id="W5M0MpCehiHzreSzNTczkc9d"?>
<x:xmpmeta xmlns:x="adobe:ns:meta/" x:xmptk="Adobe XMP Core 5.6-c138 79.159824, 2016/09/14-01:09:01        ">
   <rdf:RDF xmlns:rdf="http://www.w3.org/1999/02/22-rdf-syntax-ns#">
      <rdf:Description rdf:about=""/>
   </rdf:RDF>
</x:xmpmeta>
                                                                                                    
                                                                                                    
                                                                                                    
                                                                                                    
                                                                                                    
                                                                                                    
                                                                                                    
                                                                                                    
                                                                                                    
                                                                                                    
                                                                                                    
                                                                                                    
                                                                                                    
                                                                                                    
                                                                                                    
                                                                                                    
                                                                                                    
                                                                                                    
                                                                                                    
                                                                                                    
                           
<?xpacket end="w"?></metadata>
<defs>
    <style>
      .cls-1 {
        fill: #fafafa;
        fill-rule: evenodd;
      }
    </style>
  </defs>
  <path id="Icon" class="cls-1" d="M720.589,1848.83v3.12a5.211,5.211,0,1,1-10.421,0v-3.12h-2.084v3.12a7.295,7.295,0,1,0,14.589,0v-3.12h-2.084Zm0,0-5.21-12.51a8.342,8.342,0,0,0-8.337,8.34v4.17a1.038,1.038,0,0,0,1.042,1.04h1.042a5.752,5.752,0,0,0,5.372-2.92c1.089,1.49,3.173,2.92,7.133,2.92h1.042a1.038,1.038,0,0,0,1.042-1.04v-4.17a8.342,8.342,0,0,0-8.336-8.34h0Zm6.252,11.47c-6,0-6.245-3.76-6.252-4.17a1.043,1.043,0,0,0-2.085,0c0,0.17-.047,4.17-4.168,4.17v-3.13a6.253,6.253,0,0,1,12.5,0v3.13Zm0,0-4.168,9.38h2.084v3.12h-2.084v-3.12Zm-6.253,0h2.084v3.12H711.21v-3.12Zm10.421,2.08H718.5a1.04,1.04,0,0,0-1,.74l-2.127,7.1-2.128-7.1a1.042,1.042,0,0,0-1-.74h-3.126a9.385,9.385,0,0,0-9.379,9.38v8.34a1.044,1.044,0,0,0,1.042,1.04h29.178a1.044,1.044,0,0,0,1.043-1.04v-8.34a9.385,9.385,0,0,0-9.379-9.38h0Zm7.294,16.67H701.832v-7.29a7.308,7.308,0,0,1,7.294-7.3h2.351l2.9,9.68a1.041,1.041,0,0,0,2,0l2.9-9.68h2.351a7.309,7.309,0,0,1,7.294,7.3v7.29Zm0,0-5.21-4.17H725.8v5.22h-2.084v-5.22Zm-18.757,0h2.084v5.22h-2.084v-5.22Zm15.631-11.46v4.72l-5.878,4.9,1.334,1.6,6.253-5.21a1.03,1.03,0,0,0,.375-0.8v-5.21h-2.084Zm0,0-10.421,4.72v-4.72h-2.084v5.21a1.027,1.027,0,0,0,.375.8l6.253,5.21,1.333-1.6Zm0,0,4.168,5.7h2.084v6.26h-2.084v-6.26Zm-5.21-19.8h12.5V1853h-12.5v-2.09Zm18.757-22.92H684.116a3.125,3.125,0,0,0-3.126,3.12v10.42a3.127,3.127,0,0,0,3.126,3.13h20.842v-2.08H684.116a1.046,1.046,0,0,1-1.042-1.05v-10.42a1.044,1.044,0,0,1,1.042-1.04h43.767a1.043,1.043,0,0,1,1.042,1.04v10.42a1.046,1.046,0,0,1-1.042,1.05H725.8v2.08h2.084a3.128,3.128,0,0,0,3.127-3.13v-10.42a3.126,3.126,0,0,0-3.127-3.12h0Zm0,0M686.2,1875.92v-32.3h-2.085v33.35a1.044,1.044,0,0,0,1.042,1.04h12.5v-2.09H686.2Zm0,0,39.6-32.3h2.084v14.59H725.8v-14.59Zm-37.514-10.42h2.084v6.25h-2.084v-6.25Zm-2.084,2.08h6.252v2.09H686.2v-2.09Zm8.336,0h12.5v2.09h-12.5v-2.09Zm27.094,0H725.8v2.09h-4.168v-2.09ZM692.453,1853a3.126,3.126,0,0,0-3.127,3.12v20.85h2.085v-20.85a1.043,1.043,0,0,1,1.042-1.04h12.5V1853h-12.5Zm0,0-3.127-5.21H693.5v2.08h-4.169v-2.08Zm6.253,0h9.379v2.08h-9.379v-2.08ZM693.5,1865.5h2.084v6.25H693.5v-6.25Z" transform="translate(-681 -1828)"/>
</svg>
