<svg xmlns="http://www.w3.org/2000/svg" xmlns:xlink="http://www.w3.org/1999/xlink" width="114" height="101" viewBox="0 0 114 101"><defs><path id="q65ra" d="M149.77 88.88V33.12h54.2v55.76z"/><path id="q65rc" d="M151.4 86c0 .39.32.78.78.78h49.76c.4 0 .78-.31.78-.78V36.24a.78.78 0 0 0-.78-.78H152.1a.78.78 0 0 0-.77.78V86zm.7 3.81a3.9 3.9 0 0 1-3.89-3.89V36.24a3.9 3.9 0 0 1 3.9-3.9h49.75a3.9 3.9 0 0 1 3.9 3.9V86a3.9 3.9 0 0 1-3.9 3.9H152.1z"/><path id="q65rd" d="M189.56 57.19c-.78-3.2-1.48-8.18-.31-9.9 1.17-1.7 3.66-2.17 5.76.24 1.17 1.25 5.6 2.1 4.9-.08-2.02-6.38.63-2.88-.93-8.17-1-3.35-14.1-10.67-20.94-1.4-1.56 2.1-6.08 15.26-9.9 12.22-3.65-2.88-10.04-2.41-12.53 2.26-.94 1.79-2.03 5.76.08 12.15 2.25 7 8.95 12.3 10.35 11.05 2.18-1.94-.3-5.21-.7-8.25.94.78 4.29 3.04 5.61 3.35 2.96.7 9.03.93 10.98 1.79 1.4.62 10.9 5.22 11.45 3.58 1.63-4.98-6.93-5.06-6.16-9.11.63-4.2 3.35-5.68 2.34-9.73z"/><path id="q65re" d="M189.48 61.86s.4-1.48 3.35-.47c2.96 1.01 6.15 2.18 7.71 2.57 1.8.47 4.44.62 5.22-.15v4.59c-2.42.39-9.19-3.58-10.12-3.9a346.3 346.3 0 0 1-6.16-2.64z"/><path id="q65rf" d="M188.32 82.65c-2.19-.31-.63-4.67-1.33-6.62 3.35 1.25 3.12 4.13 1.33 6.62zm2.1-8.1c-5.3-.85-10.83-3.04-14.33-9.65-.39 3.03.54 4.28-.16 4.51-8.33.94-13-4.44-13.86-6 .55 3.67 6.23 10.52 3.35 11.84-4.13-1.55-9.97-9.8-10.98-18.22-1.32 7.32 4.67 17.83 10.82 20.56 1.4 1.32-1.09 1.17-.38 2.02 1.32 1.64 5.21 2.88 8.4 8.57.86.62 2.58 1.71 4.13 1.09-.07-2.65-3.27-5.76-7.55-9.73-2.5-2.18-1.32-5.61-2.65-8.8 1.71 1 5.3 2.25 10.83 1.79 4.2 2.18 5.14 6.7 3.58 8.25 2.65 2.88 4.13 6.39 7.94 7.87 4.75-2.5 2.65-8.26 3.82-12.3-.78-1.49-1.56-1.88-2.96-1.8z"/><path id="q65rg" d="M188.78 55.94c-2.02-4.9-8.64-14.64-.08-19.7-3.89-1.48-6.77 5.84-8.25.62-2.26.4.23 3.66-2.88 3.35.47 2.18 1.24 5.14 3.27 5.68-1.01 1.4-5.6-2.8-3.9 1.95-1.63.08-2.72-.54-3.42-.85-.78 3.03-2.03 5.6-3.66 6.85-4.13.08-2.03-3.12-7-4.99 3.18-1.86 8.01 4.36 8.4-1.24-1.01-2.96-4.83-3.97-7.94-4.6.23-1.4 2.1-2.18-.78-2.33-.55-1.56 2.34-2.03 4.9-4.75-.15-.55.47-1.33.16-1.64-.39-.39-1.71-.15-2.57-.23.08-1.17 7.94-2.34-3.43-1.48-.38-.23.55-.78 2.34-1.48 1.64-.62 5.69-1.01 8.02-1.01.16-.94-2.26-1.56-2.26-1.56s3.59-.94 5.92-1.4c6.08-1.17 8.41-1.1 10.28-.4.86.32-.54-1.08.31-.93.86.16 1.48.4 2.65.86 1.32.55 2.34 1.48 3.5 2.26 2.18 1.32 2.1 1.95 2.65 3.81a41 41 0 0 1 4.13.94c.7.93-.23 3.11-.08 5.45 0 .31.7 1.64-.23 3.04-1.17 0-1.01-1.87-1.64-3.2-2.18-2.88-2.57-.77-3.81-1-.78.23-.86-.55-1.8-.48-.07 3.74 3.43 3.12 3.2 6.23-1.4.24-.78 2.5 2.02 2.42.78 0 .86.23 1.25.15 1.09-.39-.16-2.1 1.09-2.49.16 3.35 2.57 6.93 2.96 9.27 0 .7-.55 1.56-1.17 2.18-.62.78-2.18.62-3.43.7-3.5-1.25-2.72-6.62-6.7-7-.62 0-.93.15-1 .61-1.56 4.52 1.79 8.18 1.94 13.32 3.43-.47 10.75 4.36 14.25 2.65 2.96 5.68 8.65 13.31 7.95 19.54-3.04 1.02-3.12-1.32-4.99-1.63 2.65-9.9-8.88-20.64-19.39-13.24-2.02-.15-2.02-2.5-4.05-2.65 2.73-6.85.94-9.34.16-14.25 1.01.94 2.49 2.26 3.11 2.65z"/><path id="q65rh" d="M135.13 57.65c-.4-.15-.86-.85-2.18-.7 1.4-2.88 5.84-1.94 7.94-3.58-1.09-.31-1.17-1.17-1.24-1.8 6.7-.54 15.26-6.69 21.8-3.34-15.58 2.8-8.1 18.07-25.54 14.95-.24-2.57 1.63-3.74 2.33-3.81-1.4-1.33-3.66.78-4.67 1.32-1.01-1.4 1.17-2.57 1.56-3.04z"/><path id="q65ri" d="M175 53.84c5.06-1.56 5.06 3.27 6.7 4.6.3.15-6.31-2.58-6.7-4.6z"/><path id="q65rj" d="M182.86 121.59h1.48c1.17 0 1.48-.94 1.48-1.48 0-.55-.39-.7-1.16-.7h-1.25zm-.85 3.97h-1.56l1.56-7.56h3.42c1.25 0 1.87.63 1.87 1.72 0 .7-.54 3.11-2.96 3.11h-1.79z"/><path id="q65rk" d="M191.43 122.21v-.23c0-.7-.47-.94-.86-.94-.7 0-1.16.47-1.4 1.17zm1.01 1.71a3.09 3.09 0 0 1-2.8 1.8c-1.32 0-2.26-.55-2.26-2.03 0-.94.47-3.9 3.35-3.9 1.32 0 2.1.63 2.1 1.87 0 .24-.08.7-.23 1.4h-3.74c0 .08-.08.32-.08.47 0 .47.16.94 1.01.94.4 0 .86-.24 1.1-.63h1.55z"/><path id="q65rl" d="M199.3 117.7a2.13 2.13 0 0 1-2.19 1.55c-1.16 0-1.32-.78-1.32-1.25v-.3h.7c0 .3 0 .7.86.7.47 0 1.01-.08 1.24-.7zm-4.29 5.83l2.8-3.58h1.56l-1.17 5.6h-1.4l.78-3.57-2.8 3.58h-1.56l1.17-5.6h1.48z"/><path id="q65rm" d="M205.76 119.95l-1.17 5.6h-1.48l.94-4.43h-1.56l-.4 1.71c-.46 2.18-1.24 2.8-2.25 2.8-.23 0-.7-.07-.86-.15l.24-1.09s.23.08.46.08c.47 0 .7-.24 1.1-1.95l.54-2.65h4.44z"/><path id="q65rn" d="M147.35 120.03c.32-.94.86-1.48 1.02-1.64a3.52 3.52 0 0 1 2.41-.77c.55 0 1.64.07 2.26 1 .39.63.54 1.4.54 2.11 0 1.01-.3 2.34-.85 3.35-.86 1.56-2.18 1.71-3.12 1.71-.62 0-1.4-.08-1.94-.7a2.54 2.54 0 0 1-.78-1.71l1.32-.24c0 .24.08.55.31.86.24.31.55.55 1.25.55s1.17-.32 1.56-.86a3.9 3.9 0 0 0 .62-1.64h-2.65l.16-1.09h2.57v-.46c0-.47-.08-.94-.31-1.25-.32-.54-.94-.54-1.17-.54-.47 0-.86.15-1.25.46a2 2 0 0 0-.62 1.01z"/><path id="q65ro" d="M157.01 117.7c0 .15.08.3.16.46.07.08.23.23.54.23a.7.7 0 0 0 .55-.23c.15-.16.23-.31.23-.47h1.09c-.08.47-.39.86-.7 1.02-.39.23-.86.38-1.25.38s-.85-.07-1.16-.38a1.48 1.48 0 0 1-.4-1.02zm-.54 2.1l-.55 3.11c0 .23-.08.47-.16.7.08-.15.24-.31.4-.47l2.49-2.88.07-.46h1.33l-1.01 5.91h-1.33l.55-3.19c0-.15.07-.47.15-.62-.08.15-.23.39-.39.47l-2.41 2.8-.08.54h-1.32l1-5.91h1.26z"/><path id="q65rp" d="M163.16 123.22h-2.65l.16-1.09h2.65z"/><path id="q65rq" d="M165.5 124.55h1.71c.4 0 .86 0 1.17-.32.31-.23.47-.7.47-1.09 0-.46-.24-.7-.31-.77-.32-.24-.63-.24-.94-.24h-1.63zm4.98-6.86l-.23 1.17h-3.9l-.3 2.1h1.94c.47 0 1.25 0 1.8.47.3.31.61.78.61 1.48s-.3 1.56-.85 2.1c-.7.63-1.48.63-2.18.63h-3.5l1.32-8.02h5.3z"/><path id="q65rr" d="M173.29 119.8l-.55 3.11c0 .23-.08.47-.16.7.08-.15.24-.31.4-.47l2.49-2.88.07-.46h1.33l-1.01 5.91h-1.33l.55-3.19c0-.15.07-.47.15-.62-.08.15-.23.39-.39.47l-2.41 2.8-.08.54h-1.32l1.01-5.91h1.25z"/><path id="q65rs" d="M179.98 123.22h-2.64l.15-1.09h2.65z"/><path id="q65rt" d="M153.2 104.3h2.88l-1.25-3.5c-.08-.08-.16-.32-.16-.32-.07 0-.15.24-.15.31zm-1.8-6.39c.47-1 1.02-1.71 3.2-1.71 1.32 0 2.57.16 3.19 1.71l5.14 12.39h-4.75l-1.1-2.89h-5.05l-1.1 2.89h-4.74z"/><path id="q65ru" d="M176.79 104.84h3.5c.4 0 .86 0 1.17.4.08.15.16.38.16.62 0 .23-.08.62-.24.78-.07.15-.3.3-1.16.3h-2.42c-.23 0-.7 0-.85-.23a1.82 1.82 0 0 1-.16-.85zm3.35-3.11h-3.27v-1.17c0-.23-.08-.47.15-.62.16-.16.32-.16.55-.16h2.57c.31 0 .7 0 1.01.31.16.16.23.4.23.63 0 .15-.07.46-.15.62-.23.39-.7.39-1.1.39zm-8.02-3.12v9.58c0 .55.23 1.17.54 1.56.63.7 1.48.62 2.1.62h7.33c1.16 0 2.18 0 3.11-1 .86-.94.86-2.03.86-2.97 0-.86-.08-1.79-.78-2.49a2.9 2.9 0 0 0-1.64-.7v-.08a2.04 2.04 0 0 0 1.4-.7c.63-.7.7-1.4.7-2.18 0-.86-.07-2.18-.85-2.96-.78-.86-2.03-.93-3.04-.93h-7.55c-.55 0-1.25.3-1.56.7-.31.3-.47.93-.47 1.55z"/><path id="q65rv" d="M194.23 99.08c0-.62.08-1.4.55-2.02.54-.55 1.32-.7 1.87-.7h7.63c.86 0 2.41 0 3.35 1.32.62.93.7 2.1.7 3.2 0 .62-.08 2.25-.55 3.42a2.62 2.62 0 0 1-2.57 1.71h-.62v.08l3.97 4.2h-5.45l-2.72-3.65c-.47-.63-.94-1.25-.94-1.87v-.32c0-.93.86-1.55 2.03-1.55h.77c.4 0 .94-.08 1.25-.4.23-.3.31-.77.31-1.16 0-.78-.23-1.09-.31-1.17-.31-.39-.86-.31-1.25-.31h-2.49c-.23 0-.46 0-.7.23-.31.24-.23.55-.23.86v9.42h-4.52V99.08z"/><path id="q65rw" d="M215.5 104.3h2.87l-1.24-3.5c-.08-.08-.16-.32-.16-.32-.08 0-.15.24-.15.31zm-1.8-6.39c.47-1 1.01-1.71 3.2-1.71 1.32 0 2.49.16 3.19 1.71l5.14 12.39h-4.75l-1.1-2.89h-5.06l-1.09 2.89h-4.75z"/><path id="q65rx" d="M226.4 110.37V96.43h4.51v13.94z"/><path id="q65ry" d="M235.82 110.37c-.55 0-1.17-.15-1.48-.46a1.79 1.79 0 0 1-.63-1.33V96.43h4.52v9.58c0 .16 0 .47.23.7.16.16.47.16.7.16h7.25v3.5z"/><path id="q65rz" d="M165.58 101.26v5.53l3.5-2.8z"/><linearGradient id="q65rb" x1="176.9" x2="176.9" y1="45.11" y2="92.59" gradientUnits="userSpaceOnUse"><stop offset="0" stop-color="#e6332a"/><stop offset=".23" stop-color="#e63229"/><stop offset=".31" stop-color="#e62c25"/><stop offset=".37" stop-color="#e5221e"/><stop offset=".42" stop-color="#e30814"/><stop offset=".42" stop-color="#e30613"/><stop offset=".93" stop-color="#be1622"/><stop offset="1" stop-color="#942320"/></linearGradient></defs><g><g transform="translate(-133 -25)"><use fill="url(#q65rb)" xlink:href="#q65ra"/></g><g transform="translate(-133 -25)"><use xlink:href="#q65rc"/></g><g transform="translate(-133 -25)"><use fill="#fff" xlink:href="#q65rd"/></g><g transform="translate(-133 -25)"><use fill="#e30613" xlink:href="#q65re"/></g><g transform="translate(-133 -25)"><use xlink:href="#q65rf"/></g><g transform="translate(-133 -25)"><use xlink:href="#q65rg"/></g><g transform="translate(-133 -25)"><use xlink:href="#q65rh"/></g><g transform="translate(-133 -25)"><use xlink:href="#q65ri"/></g><g transform="translate(-133 -25)"><use xlink:href="#q65rj"/></g><g transform="translate(-133 -25)"><use xlink:href="#q65rk"/></g><g transform="translate(-133 -25)"><use xlink:href="#q65rl"/></g><g transform="translate(-133 -25)"><use xlink:href="#q65rm"/></g><g transform="translate(-133 -25)"><use xlink:href="#q65rn"/></g><g transform="translate(-133 -25)"><use xlink:href="#q65ro"/></g><g transform="translate(-133 -25)"><use xlink:href="#q65rp"/></g><g transform="translate(-133 -25)"><use xlink:href="#q65rq"/></g><g transform="translate(-133 -25)"><use xlink:href="#q65rr"/></g><g transform="translate(-133 -25)"><use xlink:href="#q65rs"/></g><g transform="translate(-133 -25)"><use xlink:href="#q65rt"/></g><g transform="translate(-133 -25)"><use fill="#e30613" xlink:href="#q65ru"/></g><g transform="translate(-133 -25)"><use xlink:href="#q65rv"/></g><g transform="translate(-133 -25)"><use xlink:href="#q65rw"/></g><g transform="translate(-133 -25)"><use xlink:href="#q65rx"/></g><g transform="translate(-133 -25)"><use xlink:href="#q65ry"/></g><g transform="translate(-133 -25)"><use fill="#e30613" xlink:href="#q65rz"/></g></g></svg>